<svg xmlns="http://www.w3.org/2000/svg" width="258.987" height="62.842" viewBox="0 0 258.987 62.842">
    <defs>
        <style>
            .cls-1{fill:#5a32de}
        </style>
    </defs>
    <g id="그룹_86" transform="translate(-123 -2235)">
        <g id="그룹_76" transform="translate(123 2235)">
            <g id="그룹_55" transform="translate(57.49 .174)">
                <g id="그룹_44" transform="translate(0 .359)">
                    <path id="패스_41" d="M113.16 2023.725h3.752l.147 7.863h.034l3.784-7.863h3.295l.424 7.863h.032l3.507-7.863h3.754l-5.972 11.647h-3.832l-.407-7.585h-.032l-3.637 7.585h-3.833z" class="cls-1" transform="translate(-113.16 -2023.725)"/>
                </g>
                <g id="그룹_45" transform="translate(16.433 2.806)">
                    <path id="패스_42" d="M140.672 2032.635c-.732 1.467-2.74 2.986-6.508 2.986-3.978 0-5.873-1.519-5.169-4.8.667-3.132 3.441-4.763 7.111-4.763 3.785 0 5.775 1.647 4.992 5.333l-.049.263h-8.679c-.066 1.141.57 1.973 2.348 1.973a3.049 3.049 0 0 0 2.3-.995zm-2.8-2.773c.017-.978-.538-1.811-2.168-1.811a2.959 2.959 0 0 0-2.953 1.811z" class="cls-1" transform="translate(-128.85 -2026.061)"/>
                </g>
                <g id="그룹_46" transform="translate(34.52 2.937)">
                    <path id="패스_43" d="M147.573 2029.189c.881-2.628 3.458-3 6.167-3 3.213 0 5.514.521 4.991 3l-.948 4.468a2.63 2.63 0 0 0 .019 1.6h-3.458a1.965 1.965 0 0 1 0-.816 6.8 6.8 0 0 1-4.421 1.176c-2.823 0-4.126-.916-3.735-2.758.423-2.007 1.924-2.725 4.437-2.888l3.49-.228c.914-.065 1.093-.26 1.191-.717.133-.619-.457-.948-1.973-.948-1.272 0-1.973.359-2.3 1.111zm7.39 1.94a9.853 9.853 0 0 1-1.371.246l-2.4.276c-.717.081-1.075.357-1.19.9-.147.685.393 1.075 1.321 1.075 1.991 0 3.264-.751 3.523-1.958z" class="cls-1" transform="translate(-146.119 -2026.186)"/>
                </g>
                <g id="그룹_47" transform="translate(47.362 2.937)">
                    <path id="패스_44" d="M160.257 2026.413h3.408l-.375 1.746h.034a5.3 5.3 0 0 1 4.027-1.973 6.7 6.7 0 0 1 1.16.1l-.686 3.231a5.846 5.846 0 0 0-1.842-.294 3.128 3.128 0 0 0-3.411 2.61l-.733 3.426h-3.459z" class="cls-1" transform="translate(-158.38 -2026.186)"/>
                </g>
                <g id="그룹_48" transform="translate(56.533 2.806)">
                    <path id="패스_45" d="M178.961 2032.635c-.734 1.467-2.741 2.986-6.509 2.986-3.981 0-5.873-1.519-5.172-4.8.669-3.132 3.444-4.763 7.113-4.763 3.785 0 5.775 1.647 4.992 5.333l-.049.263h-8.677c-.065 1.141.571 1.973 2.348 1.973a3.048 3.048 0 0 0 2.3-.995zm-2.807-2.773c.017-.978-.538-1.811-2.168-1.811a2.962 2.962 0 0 0-2.955 1.811z" class="cls-1" transform="translate(-167.136 -2026.061)"/>
                </g>
                <g id="그룹_49" transform="translate(75.348)">
                    <path id="패스_46" d="M193.836 2028.781h6.264l-1.4 6.607h-1.81l-.212-1.208a8.149 8.149 0 0 1-5.368 1.568c-5.089 0-6.851-2.17-6-6.184.734-3.425 3.574-6.183 8.615-6.183 3.213 0 6.671.833 6.443 4.194h-4.388c-.048-.9-.589-1.681-2.415-1.681a4.243 4.243 0 0 0-4.241 3.688c-.44 2.021.294 3.653 2.676 3.653a3.728 3.728 0 0 0 3.718-2.039h-2.381z" class="cls-1" transform="translate(-185.101 -2023.382)"/>
                </g>
                <g id="그룹_50" transform="translate(90.769 2.806)">
                    <path id="패스_47" d="M207.17 2026.061c3.995 0 5.84 1.647 5.188 4.78-.669 3.132-3.23 4.78-7.227 4.78s-5.841-1.649-5.172-4.78c.653-3.133 3.213-4.78 7.211-4.78zm-3.556 4.78c-.359 1.664.44 2.5 2.007 2.5a2.937 2.937 0 0 0 3.081-2.5c.344-1.665-.457-2.5-2.021-2.5a2.911 2.911 0 0 0-3.067 2.5z" class="cls-1" transform="translate(-199.825 -2026.061)"/>
                </g>
                <g id="그룹_51" transform="translate(103.239 .065)">
                    <path id="패스_48" d="M214.275 2023.444h3.457l-2.545 11.941h-3.457z" class="cls-1" transform="translate(-211.73 -2023.444)"/>
                </g>
                <g id="그룹_52" transform="translate(108.384 .098)">
                    <path id="패스_49" d="M224.628 2034.34h-.028a5.3 5.3 0 0 1-3.67 1.4c-3.132 0-4.8-1.73-4.142-4.8a6.009 6.009 0 0 1 6.117-4.633c1.534 0 2.61.506 3.017 1.353h.032l.882-4.192h3.457l-2.529 11.907H224.4zm-1.37-5.612a2.726 2.726 0 0 0-2.936 2.251c-.311 1.469.391 2.252 1.974 2.252a2.752 2.752 0 0 0 2.936-2.252c.293-1.368-.358-2.25-1.974-2.25z" class="cls-1" transform="translate(-216.642 -2023.476)"/>
                </g>
                <g id="그룹_53" transform="translate(121.204 2.806)">
                    <path id="패스_50" d="M240.707 2032.635c-.734 1.467-2.741 2.986-6.509 2.986-3.981 0-5.873-1.519-5.171-4.8.668-3.132 3.443-4.763 7.113-4.763 3.783 0 5.774 1.647 4.991 5.333l-.049.263H232.4c-.065 1.141.571 1.973 2.348 1.973a3.047 3.047 0 0 0 2.3-.995zm-2.807-2.773c.016-.978-.537-1.811-2.168-1.811a2.962 2.962 0 0 0-2.955 1.811z" class="cls-1" transform="translate(-228.883 -2026.061)"/>
                </g>
                <g id="그룹_54" transform="translate(133.533 2.937)">
                    <path id="패스_51" d="M242.532 2026.413h3.359l-.26 1.274h.034a5.7 5.7 0 0 1 4.027-1.5c2.17 0 3.541 1.044 3.069 3.246l-1.242 5.823h-3.457l1.011-4.779c.246-1.125-.275-1.681-1.436-1.681a2.5 2.5 0 0 0-2.591 2.121l-.931 4.339h-3.459z" class="cls-1" transform="translate(-240.654 -2026.186)"/>
                </g>
            </g>
            <g id="그룹_63" transform="translate(54.79 17.681)">
                <g id="그룹_56" transform="translate(0 .539)">
                    <path id="패스_52" d="M114.315 2040.612h17.566l-.81 3.784h-11.717l-.665 3.168h10.981l-.786 3.636H117.9l-.663 3.169h11.718l-.813 3.783h-17.56z" class="cls-1" transform="translate(-110.582 -2040.612)"/>
                </g>
                <g id="그룹_57" transform="translate(17.736 .539)">
                    <path id="패스_53" d="M137.073 2049.039l-5.013-8.427h6.951l2.213 4.716 4.225-4.716h6.951l-8.6 8.427 5.677 9.114h-7.248l-2.6-5.306-4.864 5.306h-7.248z" class="cls-1" transform="translate(-127.516 -2040.612)"/>
                </g>
                <g id="그룹_58" transform="translate(40.952 .539)">
                    <path id="패스_54" d="M153.415 2040.612h12.971c4.768 0 5.923 2.53 5.21 5.847-.615 2.9-2.7 5.847-7.42 5.847h-7.4l-1.252 5.847h-5.846zm4.129 8.058h5.207a2.478 2.478 0 0 0 2.8-2.211c.344-1.547-.247-2.211-1.867-2.211h-5.209z" class="cls-1" transform="translate(-149.682 -2040.612)"/>
                </g>
                <g id="그룹_59" transform="translate(62.788 .539)">
                    <path id="패스_55" d="M174.267 2040.612h14.051c4.3 0 5.456 1.965 4.815 4.888a4.889 4.889 0 0 1-3.634 4.005l-.025.049c1.031.369 1.721 1.254 1.449 3.146-.464 3.464-.589 4.57-.049 5.454h-6.411a7.3 7.3 0 0 1 .221-2.6c.565-2.751-.221-3.244-1.7-3.244h-5.354l-1.253 5.847h-5.848zm4.2 7.763h5.625a2.39 2.39 0 0 0 2.58-1.941c.246-1.154-.346-1.892-1.769-1.892h-5.626z" class="cls-1" transform="translate(-170.531 -2040.612)"/>
                </g>
                <g id="그룹_60" transform="translate(85.538 .539)">
                    <path id="패스_56" d="M195.987 2040.612h17.564l-.811 3.784h-11.716l-.665 3.168h10.981l-.786 3.636h-10.981l-.663 3.169h11.717l-.81 3.783h-17.565z" class="cls-1" transform="translate(-192.252 -2040.612)"/>
                </g>
                <g id="그룹_61" transform="translate(105.429)">
                    <path id="패스_57" d="M226.138 2045.771a1.507 1.507 0 0 0-.638-1.475 4.8 4.8 0 0 0-2.728-.566c-1.966 0-3.168.566-3.414 1.721-.123.59.221.934 1.08 1.08 1.425.247 5.775.908 7.42 1.206 3.144.564 4.84 1.889 4.178 4.987-1.255 5.946-8.991 5.994-11.4 5.994-5.947 0-10.023-1.056-9.312-5.945h6.929a1.53 1.53 0 0 0 .539 1.572 5.07 5.07 0 0 0 2.923.591c1.473 0 3.144-.344 3.463-1.843.2-.934-.465-1.252-2.429-1.573l-5.677-.884c-3.488-.54-4.5-2.359-3.955-4.962.491-2.31 2.6-5.576 10.293-5.576 6.363 0 9.875 1.522 9.358 5.675z" class="cls-1" transform="translate(-211.243 -2040.097)"/>
                </g>
                <g id="그룹_62" transform="translate(127.268)">
                    <path id="패스_58" d="M246.99 2045.771a1.508 1.508 0 0 0-.64-1.475 4.791 4.791 0 0 0-2.727-.566c-1.965 0-3.168.566-3.413 1.721-.123.59.221.934 1.08 1.08 1.425.247 5.775.908 7.42 1.206 3.146.564 4.84 1.889 4.177 4.987-1.254 5.946-8.993 5.994-11.4 5.994-5.947 0-10.024-1.056-9.312-5.945h6.925a1.53 1.53 0 0 0 .54 1.572 5.063 5.063 0 0 0 2.923.591c1.473 0 3.144-.344 3.465-1.843.195-.934-.468-1.252-2.434-1.573l-5.675-.884c-3.488-.54-4.5-2.359-3.954-4.962.491-2.31 2.6-5.576 10.294-5.576 6.362 0 9.876 1.522 9.358 5.675z" class="cls-1" transform="translate(-232.095 -2040.097)"/>
                </g>
            </g>
            <g id="그룹_64" transform="translate(210.428 17.962)">
                <path id="패스_59" d="M260.014 2040.365l-.833 4.113h48.559v-4.113z" class="cls-1" transform="translate(-259.182 -2040.365)"/>
            </g>
            <g id="그룹_65" transform="translate(208.99 25.076)">
                <path id="패스_60" d="M258.639 2047.158l-.83 4.112h50v-4.112z" class="cls-1" transform="translate(-257.809 -2047.158)"/>
            </g>
            <g id="그룹_66" transform="translate(207.552 32.188)">
                <path id="패스_61" d="M257.266 2053.948l-.831 4.114h51.435v-4.114z" class="cls-1" transform="translate(-256.435 -2053.948)"/>
            </g>
            <g id="그룹_67" transform="translate(0 17.962)">
                <path id="패스_62" d="M108.883 2044.478l.833-4.113H58.27v4.113z" class="cls-1" transform="translate(-58.27 -2040.365)"/>
            </g>
            <g id="그룹_68" transform="translate(0 25.075)">
                <path id="패스_63" d="M107.444 2051.271l.833-4.114H58.27v4.114z" class="cls-1" transform="translate(-58.27 -2047.157)"/>
            </g>
            <g id="그룹_69" transform="translate(0 32.188)">
                <path id="패스_64" d="M106.006 2058.062l.831-4.114H58.27v4.114z" class="cls-1" transform="translate(-58.27 -2053.948)"/>
            </g>
            <g id="그룹_75" transform="translate(205.473)">
                <g id="그룹_72" transform="translate(1.352 1.813)">
                    <g id="그룹_70">
                        <path id="패스_65" d="M257.129 2028.244h-.329v-2.564l-.889.385v-.345l1.221-.521z" class="cls-1" transform="translate(-255.734 -2024.935)"/>
                        <path id="패스_66" d="M257.311 2028.431h-.679v-2.472l-.89.385v-.726l1.569-.67z" class="cls-1" transform="translate(-255.742 -2024.947)"/>
                    </g>
                    <g id="그룹_71" transform="translate(1.858 .088)">
                        <path id="패스_67" d="M259.025 2027.108a1 1 0 0 1-.308.047.981.981 0 0 1-1.035-.979 1.071 1.071 0 0 1 2.133 0 1.208 1.208 0 0 1-.224.665l-.9 1.4h-.4zm.447-.932a.727.727 0 1 0-.725.673.676.676 0 0 0 .725-.673z" class="cls-1" transform="translate(-257.508 -2025.023)"/>
                        <path id="패스_68" d="M258.8 2028.428h-.82l.7-1.092a1.151 1.151 0 0 1-1.167-1.152 1.244 1.244 0 0 1 2.481 0 1.353 1.353 0 0 1-.251.757zm-.043-2.741a.5.5 0 1 0 .549.5.5.5 0 0 0-.551-.5z" class="cls-1" transform="translate(-257.516 -2025.031)"/>
                    </g>
                </g>
                <g id="그룹_74">
                    <g id="그룹_73">
                        <path id="패스_69" d="M257.976 2023.682a3.061 3.061 0 1 1-3.06 3.06 3.063 3.063 0 0 1 3.06-3.06m0-.3a3.359 3.359 0 1 0 3.359 3.36 3.36 3.36 0 0 0-3.359-3.36z" class="cls-1" transform="translate(-254.443 -2023.208)"/>
                        <path id="패스_70" d="M257.984 2030.282a3.533 3.533 0 1 1 3.535-3.533 3.537 3.537 0 0 1-3.535 3.533zm0-6.42a2.888 2.888 0 1 0 2.887 2.887 2.891 2.891 0 0 0-2.887-2.887z" class="cls-1" transform="translate(-254.451 -2023.216)"/>
                    </g>
                </g>
            </g>
        </g>
        <g id="그룹_77" transform="translate(123 2282.609)">
            <path id="패스_71" d="M66.77 2076.323h-7.829v-7.111h2.824v1.419h2.166v-1.419h2.839zm4.14 5.444H59.95v-4.667h2.97v2.166h7.99zm-6.98-7.741v-1.169h-2.165v1.169zm6.892 3.951h-2.97v-8.97h2.97v2.62h1.273v2.634h-1.273z" class="cls-1" transform="translate(-58.941 -2068.656)"/>
            <path id="패스_72" d="M79.432 2076.323a4.561 4.561 0 0 1-.752-.753 4.863 4.863 0 0 1-.637-1.031 9.579 9.579 0 0 1-.717 1.061 3.6 3.6 0 0 1-.864.784 4.633 4.633 0 0 1-.936-.8 5.68 5.68 0 0 1-.716-1.045 5.148 5.148 0 0 1-.682 1.112 5.3 5.3 0 0 1-.84.819l-1.814-1.42a6.151 6.151 0 0 0 1.2-1.572 4.768 4.768 0 0 0 .571-1.967h-1.216v-2.3H76.3v2.3h-.616a3.464 3.464 0 0 0 .213 1.119 3.671 3.671 0 0 0 .52.958 3.869 3.869 0 0 0 .506-.994 3.98 3.98 0 0 0 .224-1.083h-.584v-2.3h4.273v2.3h-1.23a4.33 4.33 0 0 0 .513 1.806 5.733 5.733 0 0 0 1.052 1.383zm4.7 5.59h-2.988v-2.664h-8.091v-2.5h11.076zm0-5.53h-2.84v-7.376h2.837v2.268H85.4v2.648h-1.271z" class="cls-1" transform="translate(-58.347 -2068.656)"/>
            <path id="패스_73" d="M93.315 2076.323h-7.829v-7.111h2.824v1.419h2.166v-1.419h2.839zm4.14 5.444h-10.96v-4.667h2.97v2.166h7.99zm-6.98-7.741v-1.169H88.31v1.169zm6.892 3.951H94.4v-8.97h2.97v2.62h1.27v2.634h-1.273z" class="cls-1" transform="translate(-57.684 -2068.656)"/>
            <path id="패스_74" d="M105.977 2076.323a4.6 4.6 0 0 1-.753-.753 4.817 4.817 0 0 1-.636-1.031 9.726 9.726 0 0 1-.718 1.061 3.617 3.617 0 0 1-.863.784 4.589 4.589 0 0 1-.934-.8 5.485 5.485 0 0 1-.718-1.045 5.23 5.23 0 0 1-.681 1.112 5.3 5.3 0 0 1-.841.819l-1.815-1.42a6.2 6.2 0 0 0 1.2-1.572 4.749 4.749 0 0 0 .569-1.967h-1.214v-2.3h4.274v2.3h-.616a3.437 3.437 0 0 0 .213 1.119 3.671 3.671 0 0 0 .519.958 3.869 3.869 0 0 0 .506-.994 4.069 4.069 0 0 0 .226-1.083h-.587v-2.3h4.273v2.3h-1.23a4.33 4.33 0 0 0 .513 1.806 5.635 5.635 0 0 0 1.054 1.383zm4.7 5.59h-2.987v-2.664H99.6v-2.5h11.078zm0-5.53h-2.84v-7.376h2.84v2.268h1.272v2.648h-1.272z" class="cls-1" transform="translate(-57.09 -2068.656)"/>
            <path id="패스_75" d="M127.754 2075.331h-2.97v-.848h-2.121a4.8 4.8 0 0 1-2.971.834 5.889 5.889 0 0 1-1.7-.228 4.021 4.021 0 0 1-1.3-.635 2.829 2.829 0 0 1-.835-1 3.088 3.088 0 0 1 0-2.627 2.856 2.856 0 0 1 .835-1.01 3.928 3.928 0 0 1 1.3-.644 6.363 6.363 0 0 1 3.322-.016 4.3 4.3 0 0 1 1.271.594h2.2v-.747h2.97zm.161 6.5h-11.21v-3.834h7.945v-.468h-7.945v-1.8h11.049v3.789h-7.932v.5h8.093zm-7.3-8.9a1.027 1.027 0 0 0 .323-.775 1.053 1.053 0 0 0-.315-.8 1.3 1.3 0 0 0-.929-.3 1.267 1.267 0 0 0-.893.3 1.118 1.118 0 0 0 0 1.567 1.261 1.261 0 0 0 .893.3 1.352 1.352 0 0 0 .919-.292zm4.171-.395v-.835h-.994a2.406 2.406 0 0 1 .043.455c0 .068 0 .135-.008.2l-.02.183z" class="cls-1" transform="translate(-56.259 -2068.659)"/>
            <path id="패스_76" d="M135.579 2079.1a3.121 3.121 0 0 1-1.258.995 4.226 4.226 0 0 1-1.684.323 4.128 4.128 0 0 1-1.681-.329 3.2 3.2 0 0 1-1.266-1.01 4.932 4.932 0 0 1-.8-1.733 9.965 9.965 0 0 1-.279-2.5 9.856 9.856 0 0 1 .279-2.495 4.9 4.9 0 0 1 .8-1.726 3.2 3.2 0 0 1 1.266-1.011 4.481 4.481 0 0 1 3.365 0 3.158 3.158 0 0 1 1.258 1.011 4.934 4.934 0 0 1 .789 1.733 11.38 11.38 0 0 1 0 5.005 5.207 5.207 0 0 1-.789 1.737zm-2.545-1.4a1.582 1.582 0 0 0 .511-.864 7.093 7.093 0 0 0 .2-1.975 9.311 9.311 0 0 0-.093-1.456 3.591 3.591 0 0 0-.258-.922 1.136 1.136 0 0 0-.359-.475.678.678 0 0 0-.8 0 1.135 1.135 0 0 0-.358.475 3.592 3.592 0 0 0-.258.914 9.059 9.059 0 0 0-.093 1.449 9.3 9.3 0 0 0 .093 1.47 3.454 3.454 0 0 0 .258.914 1.121 1.121 0 0 0 .358.469.716.716 0 0 0 .4.133.74.74 0 0 0 .399-.132zm7.71 4.127h-2.97v-12.819h2.97v4.507h1.289v2.634h-1.289z" class="cls-1" transform="translate(-55.641 -2068.656)"/>
            <path id="패스_77" d="M154.794 2077.291h-12.935v-1.814h4.93v-.38a8.416 8.416 0 0 1-2.9-.528 1.378 1.378 0 0 1-.923-1.3q0-1.025 1.309-1.434a20.015 20.015 0 0 1 8.055 0q1.3.408 1.3 1.434a1.363 1.363 0 0 1-.922 1.294 8.657 8.657 0 0 1-2.869.535v.38h4.947zm-.5-6.088h-11.952v-1.842h4.419v-.688h3.132v.688h4.4zm-.352 10.639h-11.236v-4.272h2.971v.453h5.282v-.453h2.985zm-2.985-1.8v-.35h-5.282v.35zm-.408-6.67c.077-.03.117-.063.117-.1s-.038-.073-.111-.1a1.876 1.876 0 0 0-.386-.059c-.186-.015-.429-.026-.732-.037s-.68-.013-1.127-.013-.837 0-1.133.013-.54.022-.725.037a1.877 1.877 0 0 0-.389.059c-.073.023-.11.055-.11.1s.037.084.11.109a1.8 1.8 0 0 0 .389.06c.184.013.425.023.725.028s.674.008 1.133.008c.672 0 1.188-.006 1.544-.016a2.235 2.235 0 0 0 .697-.091z" class="cls-1" transform="translate(-55.014 -2068.672)"/>
            <path id="패스_78" d="M155.355 2082.474a2.8 2.8 0 0 0 .892-.395.794.794 0 0 0 .38-.674c0-.079-.025-.117-.073-.117a.877.877 0 0 1-.732-.278 1.327 1.327 0 0 1-.3-.425 1.453 1.453 0 0 1-.126-.629 1.359 1.359 0 0 1 .446-1.068 1.627 1.627 0 0 1 1.12-.4 1.446 1.446 0 0 1 1.186.542 2.059 2.059 0 0 1 .438 1.319 2.947 2.947 0 0 1-.657 1.908 3.721 3.721 0 0 1-1.771 1.178z" class="cls-1" transform="translate(-54.374 -2068.207)"/>
            <path id="패스_79" d="M171.674 2079.236a16.811 16.811 0 0 1-1.654.395c-.613.118-1.27.217-1.968.3s-1.421.14-2.172.176-1.507.042-2.269.022V2069.4h2.97v8.048q.556-.014 1.17-.065t1.244-.14q.628-.088 1.252-.2t1.193-.264zm3.54 2.59h-2.985v-12.819h2.985v4.36h1.479v2.649h-1.479z" class="cls-1" transform="translate(-53.983 -2068.656)"/>
            <path id="패스_80" d="M186.147 2080.056q-.963.1-2.225.181t-2.575.146q-1.315.068-2.574.1t-2.225.05v-2.5q1.026-.014 2.261-.05c.824-.024 1.664-.056 2.524-.088s1.7-.073 2.53-.118 1.592-.094 2.283-.154zm-.833-5.415a3.423 3.423 0 0 1-1.53 1.6 5.194 5.194 0 0 1-2.5.564 5.709 5.709 0 0 1-1.747-.256 3.973 3.973 0 0 1-1.376-.747 3.437 3.437 0 0 1-.9-1.187 4.019 4.019 0 0 1 0-3.145 3.452 3.452 0 0 1 .9-1.186 3.988 3.988 0 0 1 1.376-.746 6.1 6.1 0 0 1 3.5 0 4.022 4.022 0 0 1 1.377.746 3.417 3.417 0 0 1 .9 1.193 3.783 3.783 0 0 1 .322 1.581 3.723 3.723 0 0 1-.322 1.583zm-2.956-.542a1.183 1.183 0 0 0 .451-1.039 1.223 1.223 0 0 0-.451-1.053 1.75 1.75 0 0 0-1.07-.336 1.707 1.707 0 0 0-1.059.336 1.211 1.211 0 0 0-.446 1.04 1.227 1.227 0 0 0 .446 1.044 1.675 1.675 0 0 0 1.059.344 1.787 1.787 0 0 0 1.071-.335zm7.081 7.727h-2.913v-12.819h2.913z" class="cls-1" transform="translate(-53.371 -2068.656)"/>
            <path id="패스_81" d="M201.07 2075.494a5.317 5.317 0 0 1-1.734-.74 5.13 5.13 0 0 1-1.353-1.236 5.8 5.8 0 0 1-1.479 1.4 6.329 6.329 0 0 1-1.711.819l-1.495-1.609a9.088 9.088 0 0 0 1.662-.893 3.822 3.822 0 0 0 1.09-1.111h-2.21v-2.149h2.66v-1.075h2.957v1.084h2.649v2.149h-2.269a2.859 2.859 0 0 0 1 .958 6.787 6.787 0 0 0 1.544.653zm1.419 2.59q-.66.058-1.419.1c-.508.028-1.04.053-1.6.072-.049.643-.114 1.262-.2 1.852s-.181 1.139-.3 1.646l-2.942-.279c.107-.5.2-1 .279-1.513s.137-1.046.176-1.6q-.878.028-1.676.037c-.532 0-1.031.011-1.5.021v-2.356c.681-.01 1.414-.019 2.2-.036s1.569-.034 2.369-.059 1.593-.05 2.379-.081 1.528-.061 2.232-.1zm3.569 3.747h-2.97v-12.819h2.97z" class="cls-1" transform="translate(-52.577 -2068.662)"/>
            <path id="패스_82" d="M215.145 2071.8h-8.518v-2.05h2.694v-1.023h3.131v1.023h2.694zm-.556 3.511a2.637 2.637 0 0 1-1.369.979 7.013 7.013 0 0 1-2.335.338 8.049 8.049 0 0 1-1.653-.154 4.211 4.211 0 0 1-1.252-.455 2.315 2.315 0 0 1-.8-.724 1.812 1.812 0 0 1 0-1.931 2.308 2.308 0 0 1 .8-.725 4.185 4.185 0 0 1 1.252-.454 8.957 8.957 0 0 1 3.305 0 4.174 4.174 0 0 1 1.252.454 2.305 2.305 0 0 1 .8.731 1.777 1.777 0 0 1 .278.974 1.7 1.7 0 0 1-.278.969zm3.995 5.179a3.172 3.172 0 0 1-1.772 1.106 12.668 12.668 0 0 1-3.583.4 15.848 15.848 0 0 1-2.6-.182 6.413 6.413 0 0 1-1.763-.527 2.508 2.508 0 0 1-1-.812 1.812 1.812 0 0 1-.316-1.039 1.778 1.778 0 0 1 .316-1.022 2.467 2.467 0 0 1 1-.807 6.7 6.7 0 0 1 1.763-.527 17.871 17.871 0 0 1 5.194 0 6.7 6.7 0 0 1 1.764.527 2.47 2.47 0 0 1 1 .807 1.8 1.8 0 0 1 .316 1.037 1.763 1.763 0 0 1-.319 1.041zm-6.8-5.809q.336-.118.336-.336t-.336-.351a3.065 3.065 0 0 0-1.778 0q-.344.13-.344.336c0 .156.114.272.344.351a2.814 2.814 0 0 0 .885.116 2.885 2.885 0 0 0 .888-.114zm3.98 4.96a.255.255 0 0 0 .1-.19.28.28 0 0 0-.093-.2.827.827 0 0 0-.381-.16 5.269 5.269 0 0 0-.805-.1c-.346-.023-.8-.037-1.352-.037s-1.01.014-1.354.037a5.1 5.1 0 0 0-.8.1.853.853 0 0 0-.372.153.259.259 0 0 0-.1.19.27.27 0 0 0 .1.205.859.859 0 0 0 .372.153 5.206 5.206 0 0 0 .8.1c.345.024.8.038 1.354.038a14.865 14.865 0 0 0 1.82-.082 1.474 1.474 0 0 0 .706-.204zm2.927-2.838H215.7v-7.785h2.987v1.537h1.2v2.223h-1.2v.557h1.2v2.225h-1.2z" class="cls-1" transform="translate(-51.946 -2068.669)"/>
            <path id="패스_83" d="M227.064 2079.1a3.209 3.209 0 0 1-1.281.995 4.281 4.281 0 0 1-1.689.323 4.191 4.191 0 0 1-1.69-.329 3.243 3.243 0 0 1-1.28-1.01 4.906 4.906 0 0 1-.813-1.733 9.7 9.7 0 0 1-.286-2.5 9.6 9.6 0 0 1 .286-2.495 4.874 4.874 0 0 1 .813-1.726 3.252 3.252 0 0 1 1.28-1.011 4.519 4.519 0 0 1 3.38 0 3.248 3.248 0 0 1 1.281 1.011 4.767 4.767 0 0 1 .8 1.733 11.422 11.422 0 0 1 0 5.005 5.023 5.023 0 0 1-.801 1.737zm-2.561-1.4a1.7 1.7 0 0 0 .511-.864 6.607 6.607 0 0 0 .221-1.975 8.694 8.694 0 0 0-.1-1.456 3.742 3.742 0 0 0-.264-.922 1.109 1.109 0 0 0-.366-.475.7.7 0 0 0-.818 0 1.152 1.152 0 0 0-.375.475 3.547 3.547 0 0 0-.27.914 8.48 8.48 0 0 0-.1 1.449 8.709 8.709 0 0 0 .1 1.47 3.408 3.408 0 0 0 .27.914 1.138 1.138 0 0 0 .375.469.694.694 0 0 0 .818 0zm7.873 4.127h-2.984v-12.819h2.984z" class="cls-1" transform="translate(-51.311 -2068.656)"/>
            <path id="패스_84" d="M245.068 2074.436c-.458.088-1.009.161-1.646.219s-1.322.1-2.048.132-1.477.051-2.247.066-1.513.022-2.226.022v-5.648h7.537v2.049h-4.564v1.507c.378 0 .794-.009 1.242-.029s.9-.044 1.362-.072.9-.068 1.318-.111.79-.09 1.111-.139zm3.82 3.512h-11.327v-1.814h4.1v-.848h3.133v.848h4.1zm-.66 2.926a1.734 1.734 0 0 1-.57.455 4.164 4.164 0 0 1-.98.35 9.767 9.767 0 0 1-1.451.221q-.845.071-1.974.073a19.2 19.2 0 0 1-2.533-.138 7.066 7.066 0 0 1-1.609-.38 1.913 1.913 0 0 1-.849-.585 1.279 1.279 0 0 1-.248-.754 1.241 1.241 0 0 1 .248-.746 1.938 1.938 0 0 1 .849-.578 6.958 6.958 0 0 1 1.609-.381 23.3 23.3 0 0 1 5.049 0 6.955 6.955 0 0 1 1.61.381 1.883 1.883 0 0 1 .848.585 1.258 1.258 0 0 1 .25.754 1.222 1.222 0 0 1-.249.743zm-2.81-.614a.169.169 0 0 0 .09-.132.165.165 0 0 0-.082-.132.866.866 0 0 0-.322-.1c-.161-.023-.391-.043-.689-.056s-.684-.023-1.163-.023-.881.009-1.177.023-.527.033-.687.056a.785.785 0 0 0-.315.1.159.159 0 0 0-.074.117.162.162 0 0 0 .074.139.823.823 0 0 0 .315.087 6.173 6.173 0 0 0 .687.052q.445.014 1.177.014c.723 0 1.244-.008 1.566-.029a1.344 1.344 0 0 0 .6-.116zm3.22-4.771h-2.97v-6.482h2.97v2.033h1.346v2.65h-1.346z" class="cls-1" transform="translate(-50.512 -2068.656)"/>
            <path id="패스_85" d="M262.831 2077.213H249.9v-2.224h12.935zm-.715 4.536h-11.37v-3.949h2.97v1.727h8.4zm-.074-7.682H250.8v-4.991h2.97v2.694h8.268z" class="cls-1" transform="translate(-49.897 -2068.653)"/>
            <path id="패스_86" d="M276.057 2081.678h-2.6v-2.6l-1.49 1.537a7.04 7.04 0 0 1-1.2-1.149 7.958 7.958 0 0 1-.986-1.587 8.158 8.158 0 0 1-1.019 1.661 9.436 9.436 0 0 1-1.176 1.221l-1.9-1.7a8.238 8.238 0 0 0 1.945-2.428 6.808 6.808 0 0 0 .747-3.248v-4.085h2.809v4.084a6.361 6.361 0 0 0 .593 2.831 7.3 7.3 0 0 0 1.675 2.189v-3.118h-1.49v-2.646h1.49v-3.6h2.6zm3.455.148h-2.751v-12.819h2.751z" class="cls-1" transform="translate(-49.149 -2068.656)"/>
            <path id="패스_87" d="M289.437 2081.678h-2.6v-3.687h-1.847v-2.091a10.719 10.719 0 0 1-1.507 2.635 12.293 12.293 0 0 1-2 2l-2.019-1.653a8.906 8.906 0 0 0 2.545-3 9.721 9.721 0 0 0 1.083-4.009h-3.1v-2.444h6v.907c0 .2 0 .386-.007.571s-.01.365-.021.542h.878v-2.415h2.6zm-2.6-6.057v-1.8h-1.216a11.735 11.735 0 0 1-.525 1.8zm5.926 6.2h-2.751v-12.819h2.751z" class="cls-1" transform="translate(-48.496 -2068.656)"/>
            <path id="패스_88" d="M306.142 2081.157h-12.935v-2.37h4.93v-1.4h-3.893v-5.152h7.889v-.746h-7.889v-2.289H305.1v5.091h-7.886v.777h8.048v2.312H301.2v1.4h4.947z" class="cls-1" transform="translate(-47.845 -2068.647)"/>
        </g>
    </g>
</svg>
