<svg xmlns="http://www.w3.org/2000/svg" id="그룹_76" width="790" height="110.733" viewBox="0 0 790 110.733">
    <defs>
        <style>
            .cls-1{fill:#5a32de}
        </style>
    </defs>
    <g id="그룹_55" transform="translate(175.365 .53)">
        <g id="그룹_44" transform="translate(0 1.096)">
            <path id="패스_41" d="M113.16 2023.725h11.44l.447 23.983h.1l11.543-23.983h10.051l1.294 23.983h.1l10.7-23.983h11.45l-18.217 35.527H140.38l-1.243-23.137h-.1l-11.1 23.137h-11.688z" class="cls-1" transform="translate(-113.16 -2023.725)"/>
        </g>
        <g id="그룹_45" transform="translate(50.127 8.559)">
            <path id="패스_42" d="M164.909 2046.115c-2.233 4.475-8.358 9.108-19.853 9.108-12.134 0-17.913-4.633-15.766-14.632 2.035-9.552 10.495-14.53 21.69-14.53 11.546 0 17.616 5.026 15.227 16.268l-.15.8h-26.47c-.2 3.479 1.738 6.019 7.163 6.019a9.3 9.3 0 0 0 7.019-3.035zm-8.556-8.46c.051-2.983-1.642-5.523-6.613-5.523s-7.763 2.54-9.006 5.523z" class="cls-1" transform="translate(-128.85 -2026.061)"/>
        </g>
        <g id="그룹_46" transform="translate(105.299 8.959)">
            <path id="패스_43" d="M150.553 2035.345c2.687-8.016 10.549-9.159 18.811-9.159 9.8 0 16.821 1.591 15.223 9.159l-2.891 13.629a8.022 8.022 0 0 0 .057 4.875H171.2a6 6 0 0 1 0-2.489c-3.684 2.894-8.163 3.588-13.485 3.588-8.61 0-12.584-2.792-11.393-8.413 1.291-6.12 5.869-8.312 13.533-8.809l10.645-.7c2.789-.2 3.335-.792 3.633-2.186.406-1.888-1.393-2.891-6.019-2.891-3.879 0-6.019 1.1-7.016 3.39zm22.543 5.917a30.1 30.1 0 0 1-4.182.751l-7.316.843c-2.188.246-3.278 1.09-3.629 2.739-.447 2.089 1.2 3.281 4.029 3.281 6.073 0 9.955-2.29 10.747-5.971z" class="cls-1" transform="translate(-146.119 -2026.186)"/>
        </g>
        <g id="그룹_47" transform="translate(144.47 8.959)">
            <path id="패스_44" d="M164.105 2026.88h10.4l-1.144 5.325h.1a16.166 16.166 0 0 1 12.284-6.019 20.454 20.454 0 0 1 3.54.293l-2.093 9.856a17.827 17.827 0 0 0-5.62-.9c-6.022 0-9.406 3.086-10.405 7.961l-2.236 10.451H158.38z" class="cls-1" transform="translate(-158.38 -2026.186)"/>
        </g>
        <g id="그룹_48" transform="translate(172.444 8.559)">
            <path id="패스_45" d="M203.205 2046.115c-2.24 4.475-8.361 9.108-19.856 9.108-12.144 0-17.913-4.633-15.776-14.632 2.042-9.552 10.5-14.53 21.7-14.53 11.546 0 17.616 5.026 15.227 16.268l-.15.8h-26.473c-.2 3.479 1.741 6.019 7.163 6.019a9.3 9.3 0 0 0 7.016-3.035zm-8.562-8.46c.051-2.983-1.642-5.523-6.613-5.523s-7.77 2.54-9.013 5.523z" class="cls-1" transform="translate(-167.136 -2026.061)"/>
        </g>
        <g id="그룹_49" transform="translate(229.838)">
            <path id="패스_46" d="M211.746 2039.852h19.108L226.573 2060h-5.521l-.645-3.683c-1.946 1.741-7.169 4.782-16.373 4.782-15.524 0-20.9-6.62-18.313-18.862 2.24-10.448 10.9-18.86 26.277-18.86 9.8 0 20.348 2.543 19.655 12.792h-13.386c-.147-2.741-1.8-5.128-7.367-5.128-7.265 0-11.645 4.977-12.936 11.25-1.342 6.165.9 11.143 8.163 11.143 5.821 0 9.3-2.192 11.342-6.221h-7.262z" class="cls-1" transform="translate(-185.101 -2023.382)"/>
        </g>
        <g id="그룹_50" transform="translate(276.877 8.559)">
            <path id="패스_47" d="M222.231 2026.061c12.185 0 17.814 5.026 15.824 14.581-2.041 9.552-9.853 14.581-22.044 14.581s-17.817-5.029-15.776-14.581c1.99-9.555 9.802-14.581 21.996-14.581zm-10.846 14.581c-1.1 5.076 1.342 7.613 6.121 7.613s8.307-2.537 9.4-7.613c1.048-5.08-1.393-7.613-6.166-7.613s-8.31 2.533-9.355 7.613z" class="cls-1" transform="translate(-199.825 -2026.061)"/>
        </g>
        <g id="그룹_51" transform="translate(314.913 .198)">
            <path id="패스_48" d="M219.493 2023.444h10.546l-7.763 36.424H211.73z" class="cls-1" transform="translate(-211.73 -2023.444)"/>
        </g>
        <g id="그룹_52" transform="translate(330.607 .3)">
            <path id="패스_49" d="M241 2056.616h-.1a16.17 16.17 0 0 1-11.195 4.281c-9.553 0-14.632-5.278-12.636-14.632 1.636-7.815 8.754-14.131 18.658-14.131 4.68 0 7.961 1.543 9.2 4.128h.1l2.69-12.786h10.553l-7.715 36.322H240.3zm-4.179-17.118c-4.824 0-7.955 2.384-8.955 6.866-.949 4.482 1.192 6.869 6.022 6.869 4.93 0 8.112-2.69 8.955-6.869.893-4.175-1.09-6.864-6.02-6.864z" class="cls-1" transform="translate(-216.642 -2023.476)"/>
        </g>
        <g id="그룹_53" transform="translate(369.713 8.559)">
            <path id="패스_50" d="M264.95 2046.115c-2.24 4.475-8.361 9.108-19.856 9.108-12.143 0-17.913-4.633-15.773-14.632 2.038-9.552 10.5-14.53 21.7-14.53 11.54 0 17.613 5.026 15.223 16.268l-.15.8h-26.473c-.2 3.479 1.741 6.019 7.163 6.019a9.3 9.3 0 0 0 7.016-3.035zm-8.562-8.46c.048-2.983-1.639-5.523-6.613-5.523s-7.77 2.54-9.013 5.523z" class="cls-1" transform="translate(-228.883 -2026.061)"/>
        </g>
        <g id="그룹_54" transform="translate(407.32 8.959)">
            <path id="패스_51" d="M246.382 2026.88h10.246l-.792 3.885h.1a17.384 17.384 0 0 1 12.284-4.579c6.62 0 10.8 3.185 9.361 9.9l-3.789 17.763h-10.544l3.083-14.578c.751-3.431-.84-5.128-4.38-5.128a7.625 7.625 0 0 0-7.9 6.47l-2.84 13.236h-10.557z" class="cls-1" transform="translate(-240.654 -2026.186)"/>
        </g>
    </g>
    <g id="그룹_63" transform="translate(167.129 53.932)">
        <g id="그룹_56" transform="translate(0 1.645)">
            <path id="패스_52" d="M121.968 2040.613h53.583l-2.47 11.542h-35.742l-2.029 9.664h33.5l-2.4 11.093h-33.5l-2.022 9.668h35.744l-2.479 11.54h-53.571z" class="cls-1" transform="translate(-110.582 -2040.613)"/>
        </g>
        <g id="그룹_57" transform="translate(54.101 1.645)">
            <path id="패스_53" d="M156.669 2066.317l-15.29-25.7h21.2l6.754 14.383 12.888-14.386h21.207l-26.233 25.7 17.316 27.8H172.4l-7.942-16.185-14.837 16.185h-22.105z" class="cls-1" transform="translate(-127.516 -2040.613)"/>
        </g>
        <g id="그룹_58" transform="translate(124.917 1.645)">
            <path id="패스_54" d="M161.068 2040.613h39.565c14.543 0 18.067 7.718 15.891 17.836-1.875 8.84-8.246 17.834-22.632 17.834h-22.559l-3.818 17.836h-17.833zm12.594 24.579h15.885c4.942 0 7.569-2.022 8.543-6.743 1.048-4.718-.754-6.744-5.7-6.744h-15.884z" class="cls-1" transform="translate(-149.682 -2040.613)"/>
        </g>
        <g id="그룹_59" transform="translate(191.526 1.645)">
            <path id="패스_55" d="M181.927 2040.613h42.862c13.115 0 16.642 5.993 14.687 14.91-1.5 7.122-6.07 11.019-11.086 12.217l-.077.149c3.144 1.124 5.249 3.824 4.418 9.595-1.415 10.567-1.8 13.939-.15 16.635h-19.556c-.451-2.323.15-5.467.674-7.943 1.722-8.392-.674-9.894-5.176-9.894h-16.331l-3.821 17.836h-17.84zm12.814 23.679H211.9c4.342 0 7.115-2.245 7.869-5.92.751-3.521-1.054-5.77-5.4-5.77h-17.158z" class="cls-1" transform="translate(-170.531 -2040.613)"/>
        </g>
        <g id="그룹_60" transform="translate(260.921 1.645)">
            <path id="패스_56" d="M203.645 2040.613h53.577l-2.473 11.542h-35.74l-2.029 9.664h33.494l-2.4 11.093h-33.49l-2.022 9.668H248.3l-2.47 11.54h-53.58z" class="cls-1" transform="translate(-192.252 -2040.613)"/>
        </g>
        <g id="그룹_61" transform="translate(321.594)">
            <path id="패스_57" d="M256.676 2057.406a4.6 4.6 0 0 0-1.946-4.5c-1.578-1.121-4.2-1.726-8.323-1.726-6 0-9.664 1.726-10.415 5.25-.374 1.8.674 2.851 3.294 3.293 4.348.755 17.616 2.77 22.632 3.678 9.591 1.722 14.763 5.764 12.744 15.21-3.827 18.137-27.424 18.284-34.769 18.284-18.14 0-30.574-3.221-28.405-18.133h21.137c-.227 2.021.073 3.671 1.645 4.795 1.5 1.124 4.275 1.8 8.917 1.8 4.492 0 9.591-1.05 10.562-5.623.6-2.85-1.419-3.821-7.409-4.8l-17.316-2.7c-10.639-1.648-13.712-7.195-12.064-15.137 1.5-7.045 7.946-17.009 31.4-17.009 19.409 0 30.121 4.642 28.546 17.309z" class="cls-1" transform="translate(-211.243 -2040.097)"/>
        </g>
        <g id="그룹_62" transform="translate(388.212)">
            <path id="패스_58" d="M277.529 2057.406a4.6 4.6 0 0 0-1.952-4.5c-1.572-1.121-4.195-1.726-8.319-1.726-5.993 0-9.664 1.726-10.412 5.25-.374 1.8.674 2.851 3.294 3.293 4.348.755 17.616 2.77 22.632 3.678 9.6 1.722 14.763 5.764 12.741 15.21-3.824 18.137-27.431 18.284-34.766 18.284-18.14 0-30.578-3.221-28.405-18.133h21.134c-.227 2.021.077 3.671 1.649 4.795 1.5 1.124 4.268 1.8 8.917 1.8 4.492 0 9.591-1.05 10.568-5.623.594-2.85-1.428-3.821-7.425-4.8l-17.309-2.7c-10.639-1.648-13.715-7.195-12.061-15.137 1.5-7.045 7.942-17.009 31.4-17.009 19.405 0 30.124 4.642 28.546 17.309z" class="cls-1" transform="translate(-232.095 -2040.097)"/>
        </g>
    </g>
    <g id="그룹_64" transform="translate(641.878 54.789)">
        <path id="패스_59" d="M261.721 2040.365l-2.54 12.546H407.3v-12.546z" class="cls-1" transform="translate(-259.182 -2040.365)"/>
    </g>
    <g id="그룹_65" transform="translate(637.491 76.491)">
        <path id="패스_60" d="M260.342 2047.158l-2.533 12.545h152.508v-12.545z" class="cls-1" transform="translate(-257.809 -2047.158)"/>
    </g>
    <g id="그룹_66" transform="translate(633.104 98.184)">
        <path id="패스_61" d="M258.969 2053.948l-2.534 12.549h156.9v-12.549z" class="cls-1" transform="translate(-256.435 -2053.948)"/>
    </g>
    <g id="그룹_67" transform="translate(0 54.789)">
        <path id="패스_62" d="M212.657 2052.911l2.54-12.546H58.27v12.546z" class="cls-1" transform="translate(-58.27 -2040.365)"/>
    </g>
    <g id="그룹_68" transform="translate(0 76.488)">
        <path id="패스_63" d="M208.27 2059.706l2.54-12.549H58.27v12.549z" class="cls-1" transform="translate(-58.27 -2047.157)"/>
    </g>
    <g id="그룹_69" transform="translate(0 98.184)">
        <path id="패스_64" d="M203.883 2066.5l2.533-12.549H58.27v12.549z" class="cls-1" transform="translate(-58.27 -2053.948)"/>
    </g>
    <g id="그룹_75" transform="translate(626.764)">
        <g id="그룹_72" transform="translate(4.125 5.531)">
            <g id="그룹_70">
                <path id="패스_65" d="M259.633 2034.485h-1.013v-7.82l-2.712 1.175v-1.054l3.725-1.587z" class="cls-1" transform="translate(-255.378 -2024.395)"/>
                <path id="패스_66" d="M260.528 2035.575h-2.072v-7.542l-2.714 1.173v-2.215l4.786-2.043z" class="cls-1" transform="translate(-255.742 -2024.948)"/>
            </g>
            <g id="그룹_71" transform="translate(5.667 .268)">
                <path id="패스_67" d="M261.778 2031.025a3.038 3.038 0 0 1-.939.144 2.994 2.994 0 0 1-3.156-2.988 3.266 3.266 0 0 1 6.508 0 3.689 3.689 0 0 1-.684 2.029l-2.738 4.277h-1.227zm1.364-2.844a2.217 2.217 0 1 0-2.211 2.052 2.063 2.063 0 0 0 2.211-2.051z" class="cls-1" transform="translate(-257.152 -2024.665)"/>
                <path id="패스_68" d="M261.427 2035.393h-2.5l2.15-3.33a3.51 3.51 0 0 1-3.559-3.515 3.794 3.794 0 0 1 7.569 0 4.13 4.13 0 0 1-.767 2.311zm-.131-8.362a1.523 1.523 0 1 0 1.674 1.517 1.54 1.54 0 0 0-1.67-1.517z" class="cls-1" transform="translate(-257.516 -2025.031)"/>
            </g>
        </g>
        <g id="그룹_74">
            <g id="그룹_73">
                <path id="패스_69" d="M264.863 2024.3a9.337 9.337 0 1 1-9.335 9.335 9.345 9.345 0 0 1 9.335-9.335m0-.914a10.248 10.248 0 1 0 10.246 10.249 10.249 10.249 0 0 0-10.246-10.249z" class="cls-1" transform="translate(-254.087 -2022.852)"/>
                <path id="패스_70" d="M265.227 2044.772A10.778 10.778 0 1 1 276.01 2034a10.788 10.788 0 0 1-10.783 10.772zm0-19.583a8.808 8.808 0 1 0 8.8 8.807 8.818 8.818 0 0 0-8.8-8.808z" class="cls-1" transform="translate(-254.451 -2023.216)"/>
            </g>
        </g>
    </g>
</svg>
