<svg xmlns="http://www.w3.org/2000/svg" id="그룹_76" width="343.334" height="48.125" viewBox="0 0 343.334 48.125">
    <defs>
        <style>
            .cls-1{fill:#f85340}
        </style>
    </defs>
    <g id="그룹_55" transform="translate(76.214 .231)">
        <g id="그룹_44" transform="translate(0 .476)">
            <path id="패스_41" d="M113.16 2023.725h4.973l.194 10.423h.044l5.017-10.423h4.368l.562 10.423h.043l4.649-10.423h4.976l-7.917 15.44h-5.08l-.54-10.055h-.043l-4.822 10.055H114.5z" class="cls-1" transform="translate(-113.16 -2023.725)"/>
        </g>
        <g id="그룹_45" transform="translate(21.785 3.72)">
            <path id="패스_42" d="M144.522 2034.777c-.971 1.945-3.632 3.958-8.628 3.958-5.273 0-7.785-2.013-6.852-6.359.884-4.151 4.561-6.315 9.426-6.315 5.018 0 7.656 2.184 6.617 7.07l-.065.348h-11.5c-.087 1.512.755 2.616 3.113 2.616a4.044 4.044 0 0 0 3.05-1.319zm-3.722-3.677c.022-1.3-.714-2.4-2.874-2.4a3.923 3.923 0 0 0-3.914 2.4z" class="cls-1" transform="translate(-128.85 -2026.061)"/>
        </g>
        <g id="그룹_46" transform="translate(45.763 3.893)">
            <path id="패스_43" d="M148.046 2030.167c1.168-3.483 4.585-3.98 8.175-3.98 4.26 0 7.31.691 6.616 3.98l-1.257 5.924a3.487 3.487 0 0 0 .025 2.119h-4.585a2.605 2.605 0 0 1 0-1.082c-1.6 1.258-3.548 1.559-5.861 1.559-3.742 0-5.469-1.214-4.951-3.656.561-2.66 2.551-3.612 5.882-3.828l4.626-.3c1.212-.086 1.45-.344 1.579-.95.176-.82-.605-1.256-2.616-1.256-1.686 0-2.616.476-3.049 1.473zm9.8 2.572a13.131 13.131 0 0 1-1.818.326l-3.18.366c-.951.107-1.425.474-1.577 1.19-.194.908.521 1.426 1.751 1.426 2.639 0 4.326-1 4.671-2.6z" class="cls-1" transform="translate(-146.119 -2026.186)"/>
        </g>
        <g id="그룹_47" transform="translate(62.787 3.893)">
            <path id="패스_44" d="M160.868 2026.488h4.518l-.5 2.314h.044a7.026 7.026 0 0 1 5.339-2.616 8.877 8.877 0 0 1 1.538.128l-.909 4.283a7.746 7.746 0 0 0-2.442-.39c-2.617 0-4.088 1.341-4.522 3.46l-.972 4.542h-4.582z" class="cls-1" transform="translate(-158.38 -2026.186)"/>
        </g>
        <g id="그룹_48" transform="translate(74.944 3.72)">
            <path id="패스_45" d="M182.812 2034.777c-.973 1.945-3.634 3.958-8.629 3.958-5.278 0-7.785-2.013-6.856-6.359.887-4.151 4.565-6.315 9.429-6.315 5.018 0 7.656 2.184 6.617 7.07l-.065.348H171.8c-.086 1.512.757 2.616 3.113 2.616a4.043 4.043 0 0 0 3.049-1.319zm-3.721-3.677c.022-1.3-.714-2.4-2.874-2.4a3.927 3.927 0 0 0-3.917 2.4z" class="cls-1" transform="translate(-167.136 -2026.061)"/>
        </g>
        <g id="그룹_49" transform="translate(99.887)">
            <path id="패스_46" d="M196.681 2030.54h8.3l-1.861 8.758h-2.4l-.281-1.6c-.846.756-3.116 2.078-7.116 2.078-6.747 0-9.082-2.877-7.959-8.2.973-4.541 4.737-8.2 11.42-8.2 4.26 0 8.843 1.1 8.542 5.56h-5.818c-.064-1.191-.78-2.229-3.2-2.229-3.157 0-5.061 2.163-5.622 4.889-.583 2.679.39 4.843 3.548 4.843 2.53 0 4.043-.953 4.929-2.7h-3.156z" class="cls-1" transform="translate(-185.101 -2023.382)"/>
        </g>
        <g id="그룹_50" transform="translate(120.331 3.72)">
            <path id="패스_47" d="M209.563 2026.061c5.3 0 7.742 2.184 6.877 6.337-.887 4.151-4.282 6.337-9.58 6.337s-7.743-2.186-6.856-6.337c.864-4.153 4.259-6.337 9.559-6.337zm-4.714 6.337c-.476 2.206.583 3.309 2.66 3.309a3.893 3.893 0 0 0 4.085-3.309c.455-2.208-.605-3.309-2.68-3.309a3.859 3.859 0 0 0-4.065 3.311z" class="cls-1" transform="translate(-199.825 -2026.061)"/>
        </g>
        <g id="그룹_51" transform="translate(136.861 .086)">
            <path id="패스_48" d="M215.1 2023.444h4.583l-3.374 15.83h-4.579z" class="cls-1" transform="translate(-211.73 -2023.444)"/>
        </g>
        <g id="그룹_52" transform="translate(143.682 .131)">
            <path id="패스_49" d="M227.229 2037.879h-.043a7.027 7.027 0 0 1-4.865 1.86c-4.152 0-6.359-2.294-5.491-6.359a7.967 7.967 0 0 1 8.109-6.141c2.034 0 3.46.671 4 1.794h.043l1.169-5.557h4.583l-3.353 15.786h-4.456zm-1.816-7.44a3.614 3.614 0 0 0-3.892 2.984c-.412 1.948.518 2.985 2.617 2.985a3.648 3.648 0 0 0 3.892-2.985c.387-1.814-.475-2.984-2.617-2.984z" class="cls-1" transform="translate(-216.642 -2023.476)"/>
        </g>
        <g id="그룹_53" transform="translate(160.677 3.72)">
            <path id="패스_50" d="M244.557 2034.777c-.973 1.945-3.634 3.958-8.629 3.958-5.278 0-7.785-2.013-6.855-6.359.886-4.151 4.564-6.315 9.429-6.315 5.015 0 7.655 2.184 6.616 7.07l-.065.348h-11.5c-.086 1.512.757 2.616 3.113 2.616a4.04 4.04 0 0 0 3.049-1.319zm-3.721-3.677c.021-1.3-.712-2.4-2.874-2.4a3.927 3.927 0 0 0-3.917 2.4z" class="cls-1" transform="translate(-228.883 -2026.061)"/>
        </g>
        <g id="그룹_54" transform="translate(177.021 3.893)">
            <path id="패스_51" d="M243.144 2026.488h4.456l-.344 1.689h.044a7.554 7.554 0 0 1 5.339-1.99c2.877 0 4.694 1.384 4.068 4.3l-1.647 7.72h-4.583l1.34-6.336c.326-1.491-.365-2.229-1.9-2.229a3.314 3.314 0 0 0-3.435 2.812l-1.234 5.753h-4.586z" class="cls-1" transform="translate(-240.654 -2026.186)"/>
        </g>
    </g>
    <g id="그룹_63" transform="translate(72.634 23.439)">
        <g id="그룹_56" transform="translate(0 .715)">
            <path id="패스_52" d="M115.531 2040.613h23.287l-1.073 5.016H122.21l-.882 4.2h14.558l-1.041 4.821h-14.558l-.879 4.2h15.534l-1.077 5.016h-23.283z" class="cls-1" transform="translate(-110.582 -2040.613)"/>
        </g>
        <g id="그룹_57" transform="translate(23.512 .715)">
            <path id="패스_53" d="M140.186 2051.784l-6.645-11.171h9.215l2.934 6.252 5.6-6.252h9.217l-11.4 11.171 7.525 12.083h-9.608l-3.452-7.034-6.448 7.034h-9.608z" class="cls-1" transform="translate(-127.516 -2040.613)"/>
        </g>
        <g id="그룹_58" transform="translate(54.289 .715)">
            <path id="패스_54" d="M154.631 2040.613h17.195c6.32 0 7.852 3.354 6.906 7.751-.815 3.842-3.584 7.751-9.836 7.751h-9.8l-1.659 7.752h-7.75zm5.473 10.682h6.9c2.148 0 3.289-.879 3.713-2.931.455-2.051-.328-2.931-2.476-2.931h-6.9z" class="cls-1" transform="translate(-149.682 -2040.613)"/>
        </g>
        <g id="그룹_59" transform="translate(83.237 .715)">
            <path id="패스_55" d="M175.484 2040.613h18.628c5.7 0 7.233 2.6 6.383 6.48a6.481 6.481 0 0 1-4.818 5.31l-.033.065c1.366.489 2.281 1.662 1.92 4.17-.615 4.593-.78 6.058-.065 7.23H189a9.682 9.682 0 0 1 .293-3.452c.748-3.647-.293-4.3-2.249-4.3h-7.1l-1.661 7.752h-7.753zm5.569 10.291h7.457a3.168 3.168 0 0 0 3.42-2.573c.326-1.53-.458-2.507-2.345-2.507h-7.459z" class="cls-1" transform="translate(-170.531 -2040.613)"/>
        </g>
        <g id="그룹_60" transform="translate(113.396 .715)">
            <path id="패스_56" d="M197.2 2040.613h23.285l-1.075 5.016h-15.53l-.882 4.2h14.557l-1.041 4.821h-14.557l-.879 4.2h15.533l-1.073 5.016h-23.286z" class="cls-1" transform="translate(-192.252 -2040.613)"/>
        </g>
        <g id="그룹_61" transform="translate(139.765)">
            <path id="패스_57" d="M230.988 2047.62a2 2 0 0 0-.846-1.955 6.364 6.364 0 0 0-3.617-.75c-2.606 0-4.2.75-4.526 2.281-.162.781.293 1.239 1.431 1.431 1.89.328 7.656 1.2 9.836 1.6 4.168.748 6.416 2.5 5.539 6.61-1.663 7.883-11.919 7.946-15.111 7.946-7.884 0-13.288-1.4-12.345-7.881h9.186a2.029 2.029 0 0 0 .715 2.084c.651.489 1.858.783 3.875.783 1.952 0 4.168-.456 4.59-2.444.261-1.239-.616-1.66-3.22-2.086l-7.525-1.171c-4.624-.716-5.959-3.127-5.243-6.579.651-3.062 3.453-7.392 13.646-7.392 8.435 0 13.09 2.017 12.406 7.523z" class="cls-1" transform="translate(-211.243 -2040.097)"/>
        </g>
        <g id="그룹_62" transform="translate(168.717)">
            <path id="패스_58" d="M251.84 2047.62a2 2 0 0 0-.848-1.955 6.353 6.353 0 0 0-3.616-.75c-2.6 0-4.2.75-4.525 2.281-.162.781.293 1.239 1.432 1.431 1.89.328 7.656 1.2 9.836 1.6 4.171.748 6.416 2.5 5.537 6.61-1.662 7.883-11.921 7.946-15.109 7.946-7.884 0-13.289-1.4-12.345-7.881h9.185a2.029 2.029 0 0 0 .716 2.084c.65.489 1.855.783 3.875.783 1.952 0 4.168-.456 4.593-2.444.258-1.239-.621-1.66-3.227-2.086l-7.523-1.171c-4.624-.716-5.961-3.127-5.242-6.579.651-3.062 3.452-7.392 13.646-7.392 8.434 0 13.092 2.017 12.406 7.523z" class="cls-1" transform="translate(-232.095 -2040.097)"/>
        </g>
    </g>
    <g id="그룹_64" transform="translate(278.96 23.811)">
        <path id="패스_59" d="M260.285 2040.365l-1.1 5.452h64.374v-5.452z" class="cls-1" transform="translate(-259.182 -2040.365)"/>
    </g>
    <g id="그룹_65" transform="translate(277.054 33.243)">
        <path id="패스_60" d="M258.91 2047.158l-1.1 5.452h66.28v-5.452z" class="cls-1" transform="translate(-257.809 -2047.158)"/>
    </g>
    <g id="그룹_66" transform="translate(275.147 42.671)">
        <path id="패스_61" d="M257.537 2053.948l-1.1 5.454h68.187v-5.454z" class="cls-1" transform="translate(-256.435 -2053.948)"/>
    </g>
    <g id="그룹_67" transform="translate(0 23.811)">
        <path id="패스_62" d="M125.366 2045.818l1.1-5.452H58.27v5.452z" class="cls-1" transform="translate(-58.27 -2040.365)"/>
    </g>
    <g id="그룹_68" transform="translate(0 33.242)">
        <path id="패스_63" d="M123.46 2052.611l1.1-5.454H58.27v5.454z" class="cls-1" transform="translate(-58.27 -2047.157)"/>
    </g>
    <g id="그룹_69" transform="translate(0 42.671)">
        <path id="패스_64" d="M121.553 2059.4l1.1-5.454H58.27v5.454z" class="cls-1" transform="translate(-58.27 -2053.948)"/>
    </g>
    <g id="그룹_75" transform="translate(272.392)">
        <g id="그룹_72" transform="translate(1.793 2.404)">
            <g id="그룹_70">
                <path id="패스_65" d="M257.527 2029.235h-.44v-3.4l-1.179.511v-.458l1.619-.69z" class="cls-1" transform="translate(-255.678 -2024.85)"/>
                <path id="패스_66" d="M257.822 2029.566h-.9v-3.278l-1.18.51v-.963l2.08-.888z" class="cls-1" transform="translate(-255.742 -2024.948)"/>
            </g>
            <g id="그룹_71" transform="translate(2.463 .116)">
                <path id="패스_67" d="M259.462 2027.73a1.311 1.311 0 1 1-.368-2.532 1.328 1.328 0 0 1 1.416 1.3 1.6 1.6 0 0 1-.3.882l-1.19 1.859h-.533zm.593-1.236a.963.963 0 1 0-.961.892.9.9 0 0 0 .961-.891z" class="cls-1" transform="translate(-257.452 -2024.966)"/>
                <path id="패스_68" d="M259.216 2029.534h-1.087l.934-1.447a1.525 1.525 0 0 1-1.547-1.527 1.649 1.649 0 0 1 3.289 0 1.8 1.8 0 0 1-.333 1zm-.057-3.634a.662.662 0 1 0 .728.659.669.669 0 0 0-.728-.659z" class="cls-1" transform="translate(-257.516 -2025.031)"/>
            </g>
        </g>
        <g id="그룹_74">
            <g id="그룹_73">
                <path id="패스_69" d="M259.07 2023.779a4.058 4.058 0 1 1-4.057 4.057 4.061 4.061 0 0 1 4.057-4.057m0-.4a4.454 4.454 0 1 0 4.453 4.454 4.454 4.454 0 0 0-4.453-4.454z" class="cls-1" transform="translate(-254.387 -2023.152)"/>
                <path id="패스_70" d="M259.134 2032.584a4.684 4.684 0 1 1 4.686-4.683 4.688 4.688 0 0 1-4.686 4.683zm0-8.511a3.828 3.828 0 1 0 3.827 3.828 3.832 3.832 0 0 0-3.827-3.828z" class="cls-1" transform="translate(-254.451 -2023.216)"/>
            </g>
        </g>
    </g>
</svg>
