<svg xmlns="http://www.w3.org/2000/svg" width="40.125" height="40.125" viewBox="0 0 40.125 40.125">
    <defs>
        <style>
            .cls-1{fill:#fff}
        </style>
    </defs>
    <g id="Icon_ionic-ios-checkmark-circle-outline" transform="translate(-3.375 -3.375)">
        <path id="패스_815" d="M31.095 14.068l-1.7-1.746a.365.365 0 0 0-.27-.116.35.35 0 0 0-.27.116L17.09 24.176l-4.283-4.283a.373.373 0 0 0-.54 0l-1.717 1.718a.384.384 0 0 0 0 .55l5.4 5.4a1.708 1.708 0 0 0 1.129.55 1.79 1.79 0 0 0 1.119-.53h.01L31.1 14.618a.412.412 0 0 0-.005-.55z" class="cls-1" transform="translate(2.625 3.283)"/>
        <path id="패스_816" d="M23.437 6.076a17.355 17.355 0 1 1-12.279 5.083 17.247 17.247 0 0 1 12.279-5.083m0-2.7A20.063 20.063 0 1 0 43.5 23.437 20.059 20.059 0 0 0 23.437 3.375z" class="cls-1"/>
    </g>
</svg>
