<svg xmlns="http://www.w3.org/2000/svg" width="18.64" height="18.639" viewBox="0 0 18.64 18.639">
    <defs>
        <style>
            .cls-1{fill:#555}
        </style>
    </defs>
    <g id="그룹_79" transform="translate(-971.086 -2128.965)">
        <path id="패스_89" d="M984.348 2128.965h-7.884a5.378 5.378 0 0 0-5.378 5.379v7.883a5.376 5.376 0 0 0 5.378 5.376h7.884a5.376 5.376 0 0 0 5.378-5.376v-7.883a5.378 5.378 0 0 0-5.378-5.379m3.662 13.4a3.575 3.575 0 0 1-3.572 3.573h-8.065a3.577 3.577 0 0 1-3.575-3.573v-8.065a3.573 3.573 0 0 1 3.575-3.571h8.065a3.571 3.571 0 0 1 3.572 3.571z" class="cls-1"/>
        <path id="패스_90" d="M980.4 2133.494a4.836 4.836 0 1 0 4.838 4.838 4.836 4.836 0 0 0-4.838-4.838m0 7.973a3.136 3.136 0 1 1 3.137-3.135 3.134 3.134 0 0 1-3.137 3.135" class="cls-1"/>
        <path id="패스_91" d="M985.4 2132.184a1.126 1.126 0 1 0 1.127 1.126 1.127 1.127 0 0 0-1.127-1.126" class="cls-1"/>
    </g>
</svg>
