<svg xmlns="http://www.w3.org/2000/svg" width="215" height="216.562" viewBox="0 0 215 216.562">
    <defs>
        <style>
            .cls-1{isolation:isolate}.cls-2{fill:#fe573d}
        </style>
    </defs>
    <g id="그룹_379" transform="translate(-3159.245 -3171.614)">
        <g id="그룹_378" class="cls-1" transform="translate(3159.245 3171.614)">
            <g id="그룹_377" class="cls-1">
                <g id="그룹_376">
                    <path id="패스_815" d="M3282 3306.091c-6.463 3.829-21.617 12.8-38.534 16.01-1.127.185-2.64.434-3.77.6 1.475-.322 3.45-.654 4.887-1.071 11.573-3.362 29.5-9.886 51.463-27.812-5.1 4.967-9.507 9.258-14.047 12.276z" class="cls-2" transform="translate(-3116.773 -3107.097)"/>
                    <path id="패스_816" d="M3249.953 3312.633c-3.623.885-3.691.9-5.8 1.34a105.547 105.547 0 0 0 18-5.855 118.9 118.9 0 0 1-12.206 4.515z" class="cls-2" transform="translate(-3114.416 -3099.546)"/>
                    <path id="패스_817" d="M3296.934 3276.4c-1.531 2.877-3.539 6.743-5.212 9.559l-3.346 5.034c5.706-9 6.3-9.937 9.8-17.491.807-1.886 1.962-4.387 2.692-6.316-1.167 2.776-2.578 6.536-3.931 9.215z" class="cls-2" transform="translate(-3091.07 -3121.157)"/>
                    <path id="패스_818" d="M3287.811 3294.945c-2.112 2.058-4.868 4.84-7.061 6.79-6.605 5.418-6.847 5.617-11.278 8.573 8.674-6.439 9.2-6.818 15.047-12.466 6.642-6.544 7.053-6.942 12.09-13.423-2.562 3.218-5.946 7.565-8.8 10.526z" class="cls-2" transform="translate(-3101.05 -3112.058)"/>
                    <path id="패스_819" d="M3297.507 3219.646c1 2.83 2.385 6.59 3.25 9.467 1.879 7.786 3.663 15.148 2.379 27.375a23.128 23.128 0 0 1-5.27 5.45c4.841-21.188 3.681-33.813-4.758-51.932 1.361 2.871 3.277 6.674 4.4 9.64z" class="cls-2" transform="translate(-3088.571 -3151.345)"/>
                    <path id="패스_820" d="M3300.043 3230.812l.089.683-.629-3.395.54 2.711z" class="cls-2" transform="translate(-3085.195 -3141.792)"/>
                    <path id="패스_821" d="M3258.878 3317.308c-6.5 1.455-7.342 1.641-12.656 2.718 22.965-16.78 37.429-28.57 52.727-46.433 6.488-2.524 7.322-2.852 11.629-4.9-23.708 31.968-51.471 48.508-51.7 48.612z" class="cls-2" transform="translate(-3113.325 -3120.359)"/>
                    <path id="패스_822" d="M3276.8 3311.2c-5.771 1.928-6.5 2.174-11.651 3.659 19.691-15.7 35.09-30.857 46.249-53.81 3.36-2.7 3.775-3.056 5.438-5.192-12.49 36.321-39.779 55.2-40.036 55.343z" class="cls-2" transform="translate(-3103.332 -3127.135)"/>
                    <path id="패스_823" d="M3234.131 3314.242l-.422.013c-.515.017-1.181.036-1.693.056-.1-.049-.243-.116-.347-.169.411-.721.417-.741 1.552-1.7 3.154-.44 3.641-.5 6.341-.916a40.464 40.464 0 0 1-5.432 2.72z" class="cls-2" transform="translate(-3121.009 -3097.749)"/>
                    <path id="패스_824" d="M3236.022 3316.13c-.423.037-1 .071-1.429.093l-.726.046c2.521-.59 6.13-2.3 14.323-6.8 4.7-.9 5.541-1.065 9.4-1.882-5.232 2.619-16.131 8.083-21.569 8.54z" class="cls-2" transform="translate(-3119.848 -3099.824)"/>
                    <path id="패스_825" d="M3223.49 3313.4c1.334 1.664 2.486 3.109 8.386 3.447-1.128-.075-2.63-.171-3.757-.273-5.116-.706-13.7-1.9-12.247-10.066a38.7 38.7 0 0 0 6.207 5.955 13.389 13.389 0 0 1 1.412.938z" class="cls-2" transform="translate(-3129.434 -3100.396)"/>
                    <path id="패스_826" d="M3228.815 3313.427l-.845-.036-2.411-.233 3.256.269z" class="cls-2" transform="translate(-3124.234 -3096.885)"/>
                    <path id="패스_827" d="M3272.587 3276.85c-15.231 15.679-31.786 30.05-46.39 46.377-.437-6.392-.474-7.065-.58-12.957 16.569-17.87 34.251-34.692 50.088-53.244-2.477 18.429-3.091 19.781-3.118 19.824z" class="cls-2" transform="translate(-3124.203 -3126.52)"/>
                    <path id="패스_828" d="M3256.98 3297.606c-19.324 16.89-27.324 23.875-29.184 29.057a22.173 22.173 0 0 1-4.115-6.657c5-7.192 5-7.192 37.339-37.915-3.5 14.4-3.988 15.436-4.04 15.515z" class="cls-2" transform="translate(-3125.226 -3113.287)"/>
                    <path id="패스_829" d="M3288.414 3207.719c5 16.453 5.334 33.021-9.284 60.36-.281-10.986-.319-12.4-1.353-20.828 5.984-15.609 11.278-34-1.621-54.859 2.9 3.241 10.6 11.845 12.257 15.327z" class="cls-2" transform="translate(-3097.521 -3160.644)"/>
                    <path id="패스_830" d="M3303.717 3234.044c-3.539 19.624-10.708 38.084-34.174 64.341a179.586 179.586 0 0 0 3.849-19.829c12.5-17.322 25.221-38.463 24.6-64 4.668 13.312 5.695 17.948 5.721 19.491z" class="cls-2" transform="translate(-3101.012 -3148.943)"/>
                    <path id="패스_831" d="M3241.291 3171.968a103.943 103.943 0 0 1 49.689 17.247c-8.936-5.313-10.079-5.995-17.706-9.254-17.35-6.929-30.084-8.961-46.984-7.5a81.647 81.647 0 0 1 15-.494z" class="cls-2" transform="translate(-3123.848 -3171.503)"/>
                    <path id="패스_832" d="M3271.338 3184.526c8.782 6.077 8.951 6.2 13.158 9.859 8.346 7.9 10.269 10.221 15.822 19.088-6.718-8.791-7.117-9.318-12.953-15.162a84.1 84.1 0 0 0-25.105-18.991c2.736 1.539 6.463 3.482 9.079 5.206z" class="cls-2" transform="translate(-3104.858 -3167.545)"/>
                    <path id="패스_833" d="M3227.15 3172.229l-.859.02.859-.02z" class="cls-2" transform="translate(-3123.848 -3171.289)"/>
                    <path id="패스_834" d="M3269.123 3212.944c-6.09 2.095-6.724 2.313-12.4 3.982 3.464-9.061 9.887-25.9-8.026-38.8.6-1.032.667-1.14.68-1.89 12.1 6.585 22.874 15.593 19.746 36.712z" class="cls-2" transform="translate(-3112.019 -3169.176)"/>
                    <path id="패스_835" d="M3283.1 3200.021a38.366 38.366 0 0 1-5.914 3.591c-1.973-7.25-6.046-22.363-34.056-29.69a12.2 12.2 0 0 0-2.36-1.015c15.631 3.27 32.877 9.055 42.33 27.114z" class="cls-2" transform="translate(-3116.201 -3170.931)"/>
                    <path id="패스_836" d="M3223.176 3286.013c-9.964 1.647-10.778 1.791-18.26 2.931 16.285-20.357 33.793-39.693 50.24-59.907 9.52-2.086 10.988-2.415 18.324-4.179-18.53 25.283-50.213 61.1-50.3 61.155z" class="cls-2" transform="translate(-3135.134 -3143.503)"/>
                    <path id="패스_837" d="M3248.724 3274.977c-10.4 2.2-11.49 2.417-19.8 4.035 26.657-31.191 37.537-45.566 46.547-61.539 7.973-2.347 8.994-2.648 14.476-4.551-11.952 31.109-41 61.922-41.226 62.055z" class="cls-2" transform="translate(-3122.456 -3149.805)"/>
                    <path id="패스_838" d="M3209.39 3318.375c-1.083.087-1.227.1-1.424.13-13.119-6.662-19.837-13.683-15.413-29.908 6.217-.744 7.166-.856 12.632-1.559-5.535 11.348-9.377 22.287 4.2 31.337z" class="cls-2" transform="translate(-3142.377 -3110.675)"/>
                    <path id="패스_839" d="M3208.655 3317.445c-4 .423-4.237.447-6.77.7-4.182-8.245-3.653-16.537 11.169-36.746 8.553-1.284 9.86-1.482 16.963-2.628-15.1 17.836-22.568 28.712-21.363 38.674z" class="cls-2" transform="translate(-3137.925 -3115.04)"/>
                    <path id="패스_840" d="M3217.243 3312.206l-1.334-.255h.072l1.262.255z" class="cls-2" transform="translate(-3129.329 -3097.522)"/>
                    <path id="패스_841" d="M3176.027 3287.41c1.743 5.854 3.014 10.072 10.322 17.588l-1.39-1.4c-2.533-2.809-5.905-6.58-8.271-9.524-4.084-5.953-8.316-12.12-7.97-24.113 2.1 5.958 4.923 11.611 7.309 17.447z" class="cls-2" transform="translate(-3154.254 -3119.69)"/>
                    <path id="패스_842" d="M3192.4 3303.656l3.788 2.85-3.854-2.767c-2.084-1.683-4.924-3.872-6.931-5.646-4.61-4.515-4.789-4.7-6.68-7.354 6.219 6.585 8.084 8.578 13.676 12.917z" class="cls-2" transform="translate(-3148.959 -3108.721)"/>
                    <path id="패스_843" d="M3224.489 3229.53c-20.952 21.913-34.366 36.384-45.982 56.706-.332-10.442-.4-12.049.217-20.736 12.925-17.671 20.762-25.506 49.914-54.646-1.468 6.2-1.1 12.821-4.148 18.676z" class="cls-2" transform="translate(-3149.207 -3150.897)"/>
                    <path id="패스_844" d="M3210.988 3256.91c-17.478 22.192-26.686 36.263-28.48 51.55-3.667-8.624-4.142-9.733-6.194-17.2 4.309-12 11.773-26.978 37.065-55.224-.969 6.94.25 14.13-2.391 20.876z" class="cls-2" transform="translate(-3150.234 -3137.604)"/>
                    <path id="패스_845" d="M3241.62 3178.464c3.993 7.264 3.334 15.82-12.283 36 .281-7.979.319-9.206.334-14.822 6.793-10.188 13.052-21.483 1-26.581 6.09 2.3 9.771 4.121 10.951 5.4z" class="cls-2" transform="translate(-3122.24 -3170.851)"/>
                    <path id="패스_846" d="M3257.065 3194.927c-4.6 12.625-11.042 23.4-35.147 50.484 1.172-10.141 1.172-10.141 2.231-18.812 16.091-18.456 25.593-31.555 26.57-43.884 6.231 10.433 6.347 12.15 6.347 12.213z" class="cls-2" transform="translate(-3126.156 -3165.753)"/>
                    <path id="패스_847" d="M3249.666 3178.656c-7.27-3.294-8.207-3.7-14.374-5.2-2.674-.5-6.284-.98-9-1.21 7.36.377 15.721.807 23.376 6.415z" class="cls-2" transform="translate(-3123.848 -3171.282)"/>
                    <path id="패스_848" d="M3227.443 3176.094c-1.907.524-2.161.585-3.93 1 2.634-2.417 3.84-3.525 4.244-4.852.166.269.588.587.57.909a6.012 6.012 0 0 1-.123 1.29 3.3 3.3 0 0 1-.761 1.653z" class="cls-2" transform="translate(-3125.314 -3171.282)"/>
                    <path id="패스_849" d="M3227.266 3172.545c.029.057.075.124.1.179a.767.767 0 0 1-.153.291l-.924-.772.976.3z" class="cls-2" transform="translate(-3123.848 -3171.282)"/>
                    <path id="패스_850" d="M3184 3229.417c-5.924.635-5.924.635-10.977 1.112 13.466-13.423 24.684-22.528 52.179-42.321 5.3-.806 5.974-.908 10.148-1.6-10.5 8.515-21.2 16.774-31.589 25.435-10.066 8.394-15.176 13.067-16.9 14.7-.871.8-1.782 2.177-2.859 2.672z" class="cls-2" transform="translate(-3151.97 -3163.696)"/>
                    <path id="패스_851" d="M3204.569 3220.353c-7.617 1.068-8.237 1.147-13.862 1.876 15.5-13.3 31.854-25.607 46.612-39.788 4.243-.859 4.783-.969 7.924-1.673-11.937 15.554-40.506 39.5-40.674 39.584z" class="cls-2" transform="translate(-3142.635 -3166.781)"/>
                    <path id="패스_852" d="M3160.964 3264.961l-.706-4.384c-.281-2.8-.744-6.52-.909-9.328l-.1-2.559c.218-7.36.218-7.36 1.025-11.041 1.727-.281 1.9-.318 4.419-.617-2.648 6.946-5.93 15.582-3.725 27.93z" class="cls-2" transform="translate(-3159.245 -3137.077)"/>
                    <path id="패스_853" d="M3164.067 3281.95c-.177.06-.463.06-.579.213l-.1-.345-1.691-6.056c-2.04-11.181-2.964-24.818 12-45.38 5.386-.55 6.657-.672 11.747-1.256-12.914 15.542-24.267 31.26-21.375 52.823z" class="cls-2" transform="translate(-3158.552 -3141.25)"/>
                    <path id="패스_854" d="M3215.438 3186.669c-19.952 10.7-35.513 20.98-46.617 36.417 5.565-8.547 6.271-9.649 11.591-15.868 6.656-6.084 19.055-17.407 50.989-29.942-3.826 2-3.826 2-15.964 9.393z" class="cls-2" transform="translate(-3154.189 -3168.625)"/>
                    <path id="패스_855" d="M3188.622 3205.643c-16.224 14.057-22.844 23.092-27.213 37.152l.528-1.994c1.23-3.808 2.9-8.88 4.348-12.608 4.949-10.256 11.392-20.812 35.684-37.171-4.678 4.662-8.783 9.856-13.347 14.621z" class="cls-2" transform="translate(-3158.103 -3161.368)"/>
                    <path id="패스_856" d="M3221.481 3174.473c2.194-.72 5.1-1.687 7.348-2.231-2.221.627-5.154 1.531-7.348 2.231z" class="cls-2" transform="translate(-3126.387 -3171.282)"/>
                    <path id="패스_857" d="M3203.069 3190.938c6.873-5.637 7.757-6.362 13.425-9.921 5.777-2.608 14.5-6.544 22.056-8.775-5.04 2.225-16.357 7.622-35.481 18.7z" class="cls-2" transform="translate(-3136.108 -3171.282)"/>
                    <path id="패스_858" d="M3202.209 3180.881c-.9.083-1.14.11-1.474.157 11.054-4.359 20.992-7.195 39.047-8.8a173.177 173.177 0 0 0-18.312 2.877 142.18 142.18 0 0 0-17.477 5.089 14.142 14.142 0 0 1-1.785.672z" class="cls-2" transform="translate(-3137.34 -3171.282)"/>
                    <path id="패스_859" d="M3213.289 3176.806c-2.187.209-2.187.209-3.649.347a151.959 151.959 0 0 1 25.441-4.911 151.493 151.493 0 0 0-17.208 3.325c-1.373.358-3.181.975-4.584 1.239z" class="cls-2" transform="translate(-3132.639 -3171.282)"/>
                    <path id="패스_860" d="M3182.587 3192.312l4.841-4.141 3.488-2.687a4.427 4.427 0 0 1 .86-.147c-5.849 4.051-6.194 4.3-9.189 6.975z" class="cls-2" transform="translate(-3146.922 -3164.369)"/>
                    <path id="패스_861" d="M3212.095 3174.858l1.525-.385c3.226-.7 7.533-1.536 10.8-1.962 2.808-.149 6.553-.269 9.362-.269-7.623.223-13.645.377-21.69 2.616z" class="cls-2" transform="translate(-3131.342 -3171.282)"/>
                    <path id="패스_862" d="M3221.6 3173.555a88.45 88.45 0 0 0-14.066 3.352c1.461-.468 3.424-1.063 4.9-1.485 6.674-1.791 11.071-2.816 23.755-3.18-4.393.255-10.245.64-14.594 1.313z" class="cls-2" transform="translate(-3133.751 -3171.282)"/>
                    <path id="패스_863" d="M3223.168 3172.019c.6-.049 1.4-.136 2-.17l.245-.028a14.975 14.975 0 0 1 1.525.334c.179.133.2.147.658.242-3.315-.454-3.378-.466-4.429-.378z" class="cls-2" transform="translate(-3125.497 -3171.505)"/>
                    <path id="패스_864" d="M3220.6 3172.378l1.038-.135c.55-.071 1.3-.157 1.859-.216a26.983 26.983 0 0 1 5.8.34 42.192 42.192 0 0 0-8.693.011z" class="cls-2" transform="translate(-3126.852 -3171.408)"/>
                    <path id="패스_865" d="M3231.094 3171.621l.941-.007c.53 0 1.242.007 1.781.007-4.514.158-4.975.179-7.526.952a9.921 9.921 0 0 1 4.8-.952z" class="cls-2" transform="translate(-3123.848 -3171.614)"/>
                    <path id="패스_866" d="M3240.67 3172l.179.014c3.86.411 4.1.44 6.361.776-1.474-.214-2.947-.4-4.449-.55-3.31-.213-7.727-.37-11.04-.37-1.629.014-1.835.028-2.989.1a63.926 63.926 0 0 1 11.938.032z" class="cls-2" transform="translate(-3122.559 -3171.564)"/>
                </g>
            </g>
        </g>
    </g>
</svg>
