<svg xmlns="http://www.w3.org/2000/svg" width="215" height="214.72" viewBox="0 0 215 214.72">
    <defs>
        <style>
            .cls-1{isolation:isolate}.cls-2{fill:#5a32de}
        </style>
    </defs>
    <g id="그룹_344" transform="translate(-755.83 -945.38)">
        <g id="그룹_132" transform="translate(755.83 945.38)">
            <g id="그룹_131" class="cls-1">
                <g id="그룹_130" class="cls-1">
                    <g id="그룹_129">
                        <path id="패스_253" d="M835.056 1061.585a133.43 133.43 0 0 1-22.1 2.336h.055l-.086.005c8.97-.091 9.153-.1 17.49-1.334-.87.163-1.539.276-2.431.4 2.12-.4 4.969-.9 7.075-1.411l-.6.137c-.872.2-1.314.285-1.862.371.323-.09.323-.09 2.458-.508z" class="cls-2" transform="translate(-708.579 -849.206)"/>
                        <path id="패스_254" d="M816.4 1062.234a82.827 82.827 0 0 0 18.45-.649c-8.67 1.031-11.918 1.411-21.681.254.967.119 2.252.3 3.231.395z" class="cls-2" transform="translate(-708.374 -849.206)"/>
                        <path id="패스_255" d="M847.208 1071.177zm0 0l-.389-.353a3.55 3.55 0 0 0 .389.353zm-33.6-3.187l1.126.181c-.386-.064-.758-.128-1.14-.2l.015.016zm-14.992-16.763c-.132-.356-.263-.862-.378-1.232 2.838 8.573 5.613 12.969 15.35 17.974a216.149 216.149 0 0 0 30.637 3.2c-26.614-.656-42.306-10.79-45.608-19.943z" class="cls-2" transform="translate(-720.73 -858.798)"/>
                        <path id="패스_256" d="M853.548 1067.235h2.416c-10.523.6-17.755-.413-32.9-3.078-10.726-1.883-16.734-2.637-17.816-1.29.736 2.008 7.479 3.71 10.717 4.531a87.012 87.012 0 0 1-15.838-5.255c.82.368 1.267.563 2.3 1.02a73.186 73.186 0 0 1-14.764-8.405l.1.038-.036-.02c7.972 2.886 16.227 5.867 34.619 9.252a216.168 216.168 0 0 0 30.636 3.2l.565.007z" class="cls-2" transform="translate(-729.487 -854.856)"/>
                        <path id="패스_257" d="M847.135 1068.783v-.009l-.841-.464.013.013c.276.157.547.305.828.461zm6.344 14.672c-4.416-2.818-7.25-5.353-6.356-14.658-9.388-5.066-12.684-6.7-31.267-15.739l1.835.967c9.253 5.291 14.733 10.211 23.542 19.234 5.318 5.437 8.074 8.051 12.247 10.2zm-38.8-30.984v-.024c-21.454-10.514-28.107-14.184-37.26-19.535v.038l-.1-.06c.186 8.835.186 9.006 2.213 16.851-.188-.766-.382-1.535-.581-2.3 2.442 7.46 2.533 7.749 6.217 13.767-7.431-13.311 7.193-16.149 20.539-12.26a61.643 61.643 0 0 1 8.957 3.513.016.016 0 0 1 .015.009z" class="cls-2" transform="translate(-738.043 -872.955)"/>
                        <path id="패스_258" d="M851.063 1080.848c.068-.084.154-.194.217-.287a34.258 34.258 0 0 0-3.98 6.631l-.007-.006v.015c-2.341-2.734-4.362-5.1-17.086-12.269-9.388-5.066-12.684-6.7-31.267-15.739l-1.177-.578v-.033c1-7.992 1.855-14.9 10.58-33.1-14.058 33.725 27.007 58.773 40.913 52.959 4.384-1.835 8.254-5.766 10.823-8.365-3.12 3.5-6.342 7.118-9.019 10.776z" class="cls-2" transform="translate(-721.126 -879.089)"/>
                        <path id="패스_259" d="M874.077 1072c10.513-10.553 12.168-12.306 15.834-16.233-11.022 11.061-28.207 20.806-47.447 4.382a.029.029 0 0 1-.025.013c8.95 8.312 14.732 14.082 19.53 24l.031-.018c5.565-5.616 5.565-5.616 12.718-12.788-.146.141-.338.336-.484.482.046-.046-.111.11-.157.163zm-65.577-37.591l.857.585c-.289-.2-.561-.4-.843-.6v.011zm24.32-37.584c.367-.623.888-1.433 1.277-2.047-17.088 25.83-18.89 28.531-25.568 39.588 14.692 10.273 22.741 16.078 33.029 24.958-17.028-16.693-20.621-42.39-8.738-62.5z" class="cls-2" transform="translate(-712.239 -904.496)"/>
                        <path id="패스_260" d="M866.8 1054.329l-.025.022c-8.988 12.722-13.475 19.683-18.041 29.876 16.549-43.706-26.044-73.884-54.918-60.472-9.752 4.525-12.861 11.569-14.727 15.78a154.046 154.046 0 0 1 7.014-19.408c-.607 1.38-.786 1.745-1.446 3.081 3.866-8.765 4.679-10.584 10.366-21.405l.092.088.029-.055c10.794 8.1 10.794 8.1 37.72 26.718 14.692 10.273 22.741 16.078 33.029 24.958l.914.8-.007.015z" class="cls-2" transform="translate(-736.578 -898.683)"/>
                        <path id="패스_261" d="M892.438 1027.8l.006-.024-.981-1.031.033.039c.3.338.625.676.943 1.016zM865 1064.069c20.058-26.005 20.429-26.5 27.422-36.249a275.684 275.684 0 0 0-34.683-30l1.875 1.544c18.907 17.337 21.074 43.333 5.386 64.7zm-8.482-67.176l.011-.027c-12.958-9.235-16.767-11.746-37.351-25l-.029.046-.086-.062c-7.524 9.979-7.524 9.979-13.349 17.922.852-1.02 1.374-1.694 2.151-2.754-5.282 7.314-7.274 10.056-12.974 18.488 15.652-19.318 40.979-22.867 61.607-8.61.011-.007.011 0 .011 0z" class="cls-2" transform="translate(-723.504 -923.477)"/>
                        <path id="패스_262" d="M895.891 1049.676c.086-.141.2-.316.278-.455a154.992 154.992 0 0 1-10.291 14.48l-.006-.007-.033.042c-3.52-9.065-6.292-16.233-21.317-32.435a275.707 275.707 0 0 0-34.683-30l-1.241-.907.02-.024.011-.027c11.063-16.979 14.65-23.1 19.141-32.709-13.736 36.112 24.962 86.633 48.024 75.249 5.138-2.535 7.336-7.526 8.646-10.511a99.068 99.068 0 0 1-8.55 17.3z" class="cls-2" transform="translate(-695.605 -926.959)"/>
                        <path id="패스_263" d="M898.682 1018.073l-.8-2.853-1.1-3.26-.548-1.528v.031c.225.684.621 1.959-1.138 1.023-2.5-1.331-8-6.439-16.37-15.193l-.007.013c10.595 11.958 15.873 19.479 21.078 35.107v-.038l.015.013c.031-7.488.031-7.937-1.288-13.95.035.135.091.34.124.479-.025-.048.029.115.037.157zm-54.865-48.218l1.243.7c-.415-.243-.821-.481-1.243-.709v.013zm-5.052-17.907c-.245-.219-.566-.5-.806-.711 5.18 5.349 7.142 9.12 5.865 18.585 10.152 6.022 20.654 12.245 33.939 25.466-7.795-8.307-12.817-14.062-21.838-24.624-6.461-7.565-12.037-14.1-17.16-18.717z" class="cls-2" transform="translate(-687.858 -940.533)"/>
                        <path id="패스_264" d="M898.174 995.635v.022c-.992 7.692-1.936 14.961-11.587 32.625 19.047-39.268-30.624-75.342-59.9-64.263a31.416 31.416 0 0 0-12.238 8.747c3.763-5.406 4.894-7.042 7.928-12.086a15.078 15.078 0 0 1-1.128 1.694 56.267 56.267 0 0 0 5.072-10.346l.1.031v-.024c15.643 6.228 24.6 10.386 36.863 17.132 10.152 6.022 20.654 12.245 33.939 25.466l.954.983v.018z" class="cls-2" transform="translate(-707.315 -939.878)"/>
                        <path id="패스_265" d="M896.53 989.426c-2.012-5.839-3.462-10.057-11.119-17.171-3.138-2.559-7.375-5.909-10.67-8.263l-4.9-3.144a109.893 109.893 0 0 0-20.373-9.394l1.824.647c26.194 9.82 41.822 26.23 45.241 37.324zm-48.207-38.354c-12.768-3.811-18.2-4.807-30.627-5.638l-2.491-.049c4.622.393 4.894.413 7.532 1.473a6.523 6.523 0 0 0-.9-.408c2.966 1.515 3.074 1.572 4.313 3.878-.318-2.307.11-3.31 3.533-3.2 2.113.071 8.16.6 18.644 3.944z" class="cls-2" transform="translate(-706.693 -945.38)"/>
                        <path id="패스_266" d="M836.912 949.7l-1.135-.375-.007-.009c-1.619-.565-3.758-1.341-5.4-1.822l1.01.285c9.434 3.081 10.008 3.269 16.116 6.077 2.97 1.526 6.908 3.558 9.789 5.242a106.908 106.908 0 0 0-20.373-9.394z" class="cls-2" transform="translate(-694.14 -943.63)"/>
                        <path id="패스_267" d="M825.4 1063.524a5.38 5.38 0 0 0 .572-2.591 4.3 4.3 0 0 0-.875-1.685l-.007-.006v.015a7.447 7.447 0 0 0-.506 1.85 4.509 4.509 0 0 0 .428 2.065l.389.353z" class="cls-2" transform="translate(-698.927 -851.145)"/>
                        <path id="패스_268" d="M833.257 1059.841a77.5 77.5 0 0 1-8.224 4.315c2.4-1.192 5.379-2.675 10.595-5.678-.707.411-1.659.954-2.37 1.363z" class="cls-2" transform="translate(-698.556 -851.777)"/>
                        <path id="패스_269" d="M846.876 1064.3l-.289.388c.1-.135.188-.26.3-.4l-.007.011zm28-19.928c.439-.373 1.036-.863 1.479-1.23a294.208 294.208 0 0 1-29.443 21.138c-3.577 4.01-7.607 8.564-21.723 12.508 16.3-4.416 20.749-8.146 49.688-32.417z" class="cls-2" transform="translate(-698.431 -864.473)"/>
                        <path id="패스_270" d="M825.033 1076.407c20.9-6.5 26.384-16.037 22.279-18.856-3.3-2.264-12.837.207-18.744 8.144 2-2.615 4.284-5.567 8.944-10.684 4.759-5.119 5.37-5.773 10.774-11.317l.031-.018c2.884 8.109 3.381 12.936-1.285 20.155-3.577 4.01-7.607 8.564-21.723 12.508l-.276.068z" class="cls-2" transform="translate(-698.556 -864.028)"/>
                        <path id="패스_271" d="M863.331 1076.944l.011-.011.842-.693-.029.024c-.278.23-.543.462-.824.68zm-31.013 14.856c10.28-3.84 18.53-7.157 30.984-14.836 7.853-6.925 13.811-12.764 18.856-24.772l-.671 1.513c-3.692 7.462-15.913 26.12-49.169 38.095zm50.207-40.544l.015-.027c3.259-10.787 4.063-17.825.259-31.028l-.006-.007-.033.042c-5.79 7-6.528 7.9-12.561 14.495-6.707 7.064-7.1 7.482-15.834 16.233 13.592-13.579 29-16.829 29.4-6.207a19.036 19.036 0 0 1-1.236 6.492v.007z" class="cls-2" transform="translate(-692.527 -883.46)"/>
                        <path id="패스_272" d="M832.467 1091.035c8.606-2.873 17.505-5.854 30.711-16.061 6.3-5.545 13.411-11.838 18.856-24.772l.353-.923.015-.013.015-.027c8.471-8.766 14-14.939 19.468-26.636-17.523 38.859-41.447 54.719-51.665 61.5.084-.027.225-.055.327-.081l-2.63 1.351a81.915 81.915 0 0 1-15.449 5.66z" class="cls-2" transform="translate(-692.403 -881.468)"/>
                        <g id="그룹_128" transform="translate(181.739 90.842)">
                            <path id="패스_273" d="M879.668 1023.457c.61-8.228-1.786-10.554-6.558-6.384-1.506 1.33-4.085 4.114-7.692 9.887a99.527 99.527 0 0 0 8.55-17.3c2.319-7.694 2.455-8.157 3.1-14.537v-.038l.015.013c2.074 8.363 3.873 15.584 2.652 28.029l-.27 2.314c.06-.592.166-1.38.2-1.983z" class="cls-2" transform="translate(-846.871 -995.085)"/>
                            <path id="패스_274" d="M855.27 1049.122a65.736 65.736 0 0 0 5.2-5.132l-.843.912c-1.3 1.279-3 3.007-4.361 4.22z" class="cls-2" transform="translate(-855.27 -954.61)"/>
                        </g>
                        <path id="패스_275" d="M871.009 987.1c-.062-.256-.175-.6-.265-.855l.8 2.853c-.186-.819-.4-1.535-.539-2z" class="cls-2" transform="translate(-660.724 -911.558)"/>
                        <path id="패스_276" d="M781.2 962.269a111.18 111.18 0 0 1 16.443-10.419 106 106 0 0 0-14.831 9.188c-2.045 1.623-4.81 3.752-6.79 5.457 1.751-1.425 4.035-3.363 5.834-4.719-.221.164-.439.324-.656.493z" class="cls-2" transform="translate(-739.119 -940.025)"/>
                        <path id="패스_277" d="M828.51 1061.585l-.192.077c-1.789.674-2.314.863-3.677 1.289h.007c1.168-.4 2.716-.921 3.862-1.365zm0 0c-2.131.444-4.947 1.069-7.075 1.411a70.625 70.625 0 0 0 7.075-1.411zm-7.345 2.164c.9-.179 2.1-.4 2.983-.642a19.92 19.92 0 0 1-3.315.671c.1-.007.232-.02.333-.029z" class="cls-2" transform="translate(-702.033 -849.206)"/>
                        <path id="패스_278" d="M824.49 1062.956l.015-.005c1.161-.382 2.741-.863 3.854-1.365a14.453 14.453 0 0 1-5.386 1.928l-.225.033c-.517.06-1.217.137-1.734.2.9-.179 2.1-.4 2.983-.642l.482-.152z" class="cls-2" transform="translate(-701.882 -849.206)"/>
                        <path id="패스_279" d="M810.317 1064.053c8.888 1.667 9.058 1.7 17.9 2.173h.055l-.086.005a83.978 83.978 0 0 1-13.4-.841l-5.4-.992c.049.015.124.018.185.031-4.929-2.144-10.191-3.4-15.094-5.631 6.484 2.647 9.443 3.855 15.838 5.255z" class="cls-2" transform="translate(-723.843 -851.511)"/>
                        <path id="패스_280" d="M788.27 1054.619c-3.948-6.68-4.1-6.941-6.218-13.767 1.945 7.51 4.9 18.852-3.416 14.063a26.885 26.885 0 0 1-5.059-4l.068.069c5.4 4.732 10.49 9.2 25.669 15.284l.1.039-.036-.02c-4.951-4.207-7.681-6.528-11.112-11.666z" class="cls-2" transform="translate(-741.141 -866.365)"/>
                        <path id="패스_281" d="M766.346 1032.4v-.029l-.663-.841.016.022c.212.281.426.566.647.848zm10.827 35.149c-6.8-11.518-9.97-19.329-10.827-35.134-4.838-6.847-9.831-13.925-10.513-27.683l.049 1.592c1.193 18.344 9.946 43.525 21.29 61.226z" class="cls-2" transform="translate(-755.827 -896.259)"/>
                        <path id="패스_282" d="M798.344 1054.7c-2.067 8.634-2.482 10.836-3.134 19.106v.038l-.1-.06c-11.746-7.395-19.532-12.689-28.759-23.779-4.622-6.527-9.831-13.925-10.513-27.683l-.007-.592v-.981c.5-9.584 1.022-19.493 9.655-37.267-18.123 38.481-2.745 80.331 19.773 73.211 3.7-1.168 13.038-5.589 20.1-21.4a162.977 162.977 0 0 0-7.014 19.408z" class="cls-2" transform="translate(-755.83 -913.847)"/>
                        <path id="패스_283" d="M818.567 1016.185c5.943-8.756 6.581-9.666 12.974-18.488-13.8 18.673-40.76 28.814-54.829 13.908l-.015.011c5.784 6.258 10.332 11.205 28.933 25.665l.091.088.029-.055c3.926-6.916 7.018-12.388 12.815-21.129zM766.3 988.476l-.026.494c.014-.164.026-.334.026-.506v.013zm26.725-28.27l1.495-1.27c-11.668 10.01-18.5 16.65-28.195 29.5.342 6.886 1 11.647 9.73 22.37-10.273-14.586.753-36.494 16.97-50.6z" class="cls-2" transform="translate(-747.182 -934.161)"/>
                        <path id="패스_284" d="M779.881 1007.048l-.015.018c-8.952 14.97-13.592 23.891-17.416 40.942 8.089-42.9 7-70.6 6.969-70.771-.139-.082-.322-.2-.46-.278a5.949 5.949 0 0 0-.647.749l1.91-2.787c2.453-3.213 5.823-7.44 8.486-10.489-3.7 4.438-8.76 10.529-9.209 19.453.3 5.956.559 11.1 9.73 22.37l.664.769-.011.022z" class="cls-2" transform="translate(-750.35 -929.611)"/>
                        <path id="패스_285" d="M805.811 971.509l.007-.013-.583-.521.011.013c.183.183.371.355.565.521zm-27.544 31.674a363.5 363.5 0 0 1 27.518-31.656c-5.358-5.021-8.853-8.69-8.663-13.684l-.122.657c-2.418 13.112-5.865 27.36-18.731 44.687zm18.933-45.732l.025-.013c1.274-3.555 2.431-5.187 9.615-8.266-4.458 1.769-4.922 1.95-7.873 3.323l-3.182 1.572a121.921 121.921 0 0 0-16.443 10.419 87.038 87.038 0 0 1 14.435-9.156c3.7-1.744 3.933-1.285 3.674.609-.055.4-.154.939-.25 1.511z" class="cls-2" transform="translate(-737.261 -942.242)"/>
                        <path id="패스_286" d="M835.859 976.888c-4.79 6.623-4.883 6.749-11.461 15.5l-.029.046-.086-.062C808.59 982.188 803.8 978.8 797.25 973.285c-4.562-4.273-8.866-8.307-8.663-13.684l.06-.378.015-.015.026-.013c6.453-4.3 13.779-9.177 22.449-12.148-18.167 6.23-23.527 22.754-9.421 28.973 12.216 5.382 34.818.91 42.072-11.22-2.513 4.114-4.023 6.61-7.928 12.086z" class="cls-2" transform="translate(-728.725 -944)"/>
                        <path id="패스_287" d="M835.819 949.841c-1.46-2.475-1.524-2.562-4.313-3.878 2.692 1.018 1.892 2.166.393 2.846-3.105 1.4-12.225 2.235-21.957-.424h-.011c10.11 2.988 16.5 5.264 25.444 8.663l.1.031v-.024c.782-3.264 1.206-5.055.347-7.214zm-32.309-2.986a33.569 33.569 0 0 1 5.914 1.371 28.383 28.383 0 0 1-3.752-1.394 3.555 3.555 0 0 0-.614-.232c-.075-.024-.084-.024-1.548.256z" class="cls-2" transform="translate(-716.369 -944.897)"/>
                        <path id="패스_288" d="M813.627 947.977c-2.877 3.493-4.618 5.243-14.581 15.191 2.94-3.163 8.416-9.039 7.738-16.07-.031-.342-.046-.506.066-.578l.256-.049.1-.024c.956.086 1.524.172 5.914 1.371l.506.144v.011z" class="cls-2" transform="translate(-720.066 -944.494)"/>
                        <path id="패스_289" d="M808.119 946.063a2.534 2.534 0 0 0-.919-.192l-.225.037.1-.016c.775-.049.839.011 1.046.172z" class="cls-2" transform="translate(-713.501 -944.976)"/>
                    </g>
                </g>
            </g>
        </g>
    </g>
</svg>
