<svg xmlns="http://www.w3.org/2000/svg" width="256.978" height="222.433" viewBox="0 0 256.978 222.433">
    <defs>
        <style>
            .cls-1{fill:#5a32de}
        </style>
    </defs>
    <g id="그룹_354" transform="translate(-1041.83 -2367)">
        <g id="그룹_142" transform="translate(1041.83 2367)">
            <g id="그룹_141">
                <path id="패스_391" d="M1456.412 963.929c-40.3-20.29-66.623 6.031-46.331 46.326 10.849-3.582 24.425-5.69 40.771-5.555-.132-16.345 1.971-29.926 5.56-40.771z" class="cls-1" transform="translate(-1377.956 -931.801)"/>
                <path id="패스_392" d="M1410.08 1027.23c-20.285 40.3 6.031 66.616 46.331 46.329-3.589-10.849-5.692-24.428-5.56-40.766-16.351.124-29.922-1.979-40.771-5.563z" class="cls-1" transform="translate(-1377.955 -883.259)"/>
                <path id="패스_393" d="M1473.382 1073.559c40.3 20.287 66.625-6.031 46.326-46.329-10.846 3.584-24.422 5.687-40.768 5.563.132 16.338-1.978 29.917-5.558 40.766z" class="cls-1" transform="translate(-1329.414 -883.259)"/>
                <path id="패스_394" d="M1519.708 1010.255c20.3-40.294-6.028-66.616-46.326-46.326 3.58 10.846 5.69 24.427 5.558 40.771 16.34-.135 29.922 1.973 40.768 5.555z" class="cls-1" transform="translate(-1329.414 -931.801)"/>
                <path id="패스_395" d="M1510.953 988.472c-5.139 10.2-13.253 21.3-24.89 32.762 11.644 11.463 19.751 22.553 24.89 32.755 42.842-14.144 42.842-51.37 0-65.517z" class="cls-1" transform="translate(-1320.659 -910.019)"/>
                <path id="패스_396" d="M1434.627 1064.8c14.139 42.844 51.37 42.844 65.512 0-10.2-5.135-21.294-13.253-32.76-24.895-11.454 11.652-22.554 19.768-32.752 24.895z" class="cls-1" transform="translate(-1356.171 -874.505)"/>
                <path id="패스_397" d="M1500.139 974.189c-14.142-42.837-51.374-42.837-65.512 0 10.2 5.135 21.3 13.253 32.752 24.895 11.466-11.642 22.557-19.753 32.76-24.895z" class="cls-1" transform="translate(-1356.171 -942.061)"/>
                <path id="패스_398" d="M1420.34 988.472c-42.833 14.147-42.833 51.373 0 65.517 5.141-10.2 13.251-21.292 24.9-32.755-11.649-11.466-19.76-22.564-24.9-32.762z" class="cls-1" transform="translate(-1388.215 -910.019)"/>
            </g>
        </g>
        <g id="그룹_144" transform="translate(1245.305 2367)">
            <g id="그룹_143">
                <path id="패스_399" d="M1524.582 927.189c-9.693-4.88-16.025 1.452-11.144 11.144a30.634 30.634 0 0 1 9.806-1.337 30.662 30.662 0 0 1 1.338-9.807z" class="cls-1" transform="translate(-1505.711 -919.461)"/>
                <path id="패스_400" d="M1513.438 957.777c-4.88 9.694 1.45 16.024 11.144 11.143a30.654 30.654 0 0 1-1.337-9.805 30.711 30.711 0 0 1-9.807-1.338z" class="cls-1" transform="translate(-1505.711 -923.146)"/>
                <path id="패스_401" d="M1544.025 968.92c9.694 4.882 16.026-1.448 11.144-11.143a30.692 30.692 0 0 1-9.806 1.338 30.646 30.646 0 0 1-1.338 9.805z" class="cls-1" transform="translate(-1509.396 -923.146)"/>
                <path id="패스_402" d="M1555.169 938.332c4.883-9.692-1.449-16.023-11.144-11.144a30.655 30.655 0 0 1 1.338 9.807 30.624 30.624 0 0 1 9.806 1.337z" class="cls-1" transform="translate(-1509.396 -919.461)"/>
                <path id="패스_403" d="M1555.833 939.986a30.676 30.676 0 0 1-5.987 7.881 30.548 30.548 0 0 1 5.987 7.878c10.307-3.4 10.307-12.356 0-15.759z" class="cls-1" transform="translate(-1510.061 -921.115)"/>
                <path id="패스_404" d="M1526.236 969.584c3.4 10.308 12.357 10.308 15.758 0a30.7 30.7 0 0 1-7.878-5.987 30.605 30.605 0 0 1-7.88 5.987z" class="cls-1" transform="translate(-1507.365 -923.811)"/>
                <path id="패스_405" d="M1541.994 926.41c-3.4-10.3-12.356-10.3-15.758 0a30.709 30.709 0 0 1 7.88 5.988 30.76 30.76 0 0 1 7.878-5.988z" class="cls-1" transform="translate(-1507.365 -918.682)"/>
                <path id="패스_406" d="M1512.66 939.986c-10.3 3.4-10.3 12.359 0 15.76a30.634 30.634 0 0 1 5.99-7.878 30.731 30.731 0 0 1-5.99-7.882z" class="cls-1" transform="translate(-1504.932 -921.115)"/>
            </g>
        </g>
    </g>
</svg>
