<svg xmlns="http://www.w3.org/2000/svg" width="215" height="215.236" viewBox="0 0 215 215.236">
    <defs>
        <style>
            .cls-1{fill:#fe573d}
        </style>
    </defs>
    <g id="그룹_367">
        <g id="그룹_234">
            <path id="패스_615" d="M827.388 1384.337l-.057.016.574 3.775c.022.083.022.157.037.24h.007c6.385-1.873 6.888-2.091 15.4-5.911a67.764 67.764 0 0 0 3.03 10.617l-.046.031 1.208 3.191c.042.143.1.284.146.428h.018v.005c5.966-3.151 6.427-3.487 14.1-9.027a58.978 58.978 0 0 0 5.073 9.163l-.046.037 1.811 2.66c.079.117.15.225.229.35l.007-.007.011.007c5.328-4.362 5.721-4.777 12.231-11.9a58.68 58.68 0 0 0 6.676 7.077l-.029.049 2.3 2.04c.053.051.11.089.161.148h.007c4.2-5.374 4.477-5.866 9.062-14.159a44.4 44.4 0 0 0 7.154 4.759l-.033.046 2.362 1.25a1.656 1.656 0 0 0 .168.088c2.849-6.027 3-6.57 5.613-15.468a31.7 31.7 0 0 0 7.156 2.356l-.018.068 2.17.415c.088.024.185.038.275.06 1.5-6.363 1.551-6.892 2.25-15.923a22.416 22.416 0 0 0 6.643-.064v.079l2.077-.359a.472.472 0 0 0 .1-.016c.21-6.374.135-6.888-.944-15.612a16.234 16.234 0 0 0 5.59-2.437l.031.081 1.612-1.116c.033-.016.048-.035.079-.053-1.012-6.1-1.178-6.579-3.9-14.626a14.642 14.642 0 0 0 3.927-4.695l.042.1.959-1.819a.445.445 0 0 1 .064-.1h-.011l.011-.009c-2.227-5.723-7.007-13.336-7.371-13.435.106.031 2.007-7.622 2.007-7.622l.108-2.349a.507.507 0 0 1 .007-.106h-.007v-.008c-3.107-4.471-3.531-4.878-8.615-9.841a22.586 22.586 0 0 0-.9-7.306l.1.084-.728-2.554a.278.278 0 0 1-.018-.057v-.011c-3.626-3.16-3.851-3.279-9.523-6.455a28.933 28.933 0 0 0-3.3-7.521l.1.062-1.535-2.547a.153.153 0 0 0-.031-.06c-3.8-1.842-4.111-1.914-9.589-3.1a35.749 35.749 0 0 0-5.642-7.2l.126.02-2.346-2.335a.263.263 0 0 0-.06-.066l-.018-.009c-3.637-.522-4.444-.421-8.89.163a43.02 43.02 0 0 0-7.858-6.308l.108-.024-3.107-1.95c-.013-.026-.046-.029-.06-.049-3.259.746-3.409.84-7.575 3.262a49.8 49.8 0 0 0-9.878-4.807l.071-.06-3.769-1.345-.06-.026h-.022c-2.605 1.956-2.717 2.111-5.69 6.115a57.306 57.306 0 0 0-11.4-2.682l.038-.075-4.051-.533c-.062-.007-.119-.018-.179-.02-1.491 2.967-1.53 3.169-2.486 8.339a63.743 63.743 0 0 0-11.828-.368l.011-.08-4.1.287c-.068 0-.128.009-.2.009l-.007.011c-.114 3.633-.044 3.974.975 9.614a61.115 61.115 0 0 0-11.8 2.023l-.026-.075-4.087 1.135-.1.024c1.24 3.965 1.412 4.305 4.325 10.046a62.494 62.494 0 0 0-11.272 4.422l-.046-.068-3.791 1.945a.593.593 0 0 0-.119.059c2.541 3.965 2.834 4.3 7.505 9.715a62.29 62.29 0 0 0-10.185 6.762l-.064-.057-3.18 2.6c-.093.073-.168.143-.258.212v.011c3.789 3.685 4.168 3.965 10.46 8.692a61.838 61.838 0 0 0-8.511 8.983l-.079-.05-2.647 3.43c-.029.042-.075.09-.108.132v.009c4.942 3.147 5.406 3.365 13.125 7.092a71.639 71.639 0 0 0-6.272 10.787l-.06-.022-1.826 3.888c-.033.055-.046.108-.079.161v.007c5.818 2.106 6.336 2.218 15.03 4.08a71.349 71.349 0 0 0-3.914 11.5h-.079l-.94 3.8c-.035.139-.064.269-.1.406v.011c6.325.781 6.881.781 15.961.706a70.8 70.8 0 0 0-1.541 11.726l-.068.009-.188 3.985c0 .075-.015.143-.015.22v.009c6.519-.558 7.064-.679 16.062-2.653a69.676 69.676 0 0 0 .792 11.446zm-9.951-29.12v-.009c-6.279.483-6.826.458-15.863-.057 1.775-6.3 2-6.814 5.657-15.255-6.136-.889-6.636-1.036-15.134-3.487 1.747-3.262 4.289-7.5 6.254-10.635l2.554-3.522c-5.566-2.256-6.16-2.583-13.427-6.61 4.3-5.154 4.728-5.525 11.759-11.675-.106-.066-.2-.128-.307-.2l-2.719-1.83a92.2 92.2 0 0 1-7.9-6.378c5.306-3.986 5.781-4.246 13.943-8.579-.064-.075-.139-.134-.2-.212l-2.179-2.258a79.636 79.636 0 0 1-5.714-7.168c5.975-2.732 6.506-2.885 15.29-5.355v-.009c-.088-.154-.181-.305-.267-.45l-1.3-2.223h-.015a63.5 63.5 0 0 1-3.381-7.507c6.332-1.442 6.879-1.477 15.877-2.079v-.011c-.046-.154-.075-.287-.121-.424l-.593-2.276a42.941 42.941 0 0 1-.9-7.271c6.411-.144 6.936-.071 15.745 1.133a.655.655 0 0 0 .018-.185l.188-2.318h-.002a29.307 29.307 0 0 1 1.672-6.4c6.243 1.13 6.729 1.3 15 4.214.051-.094.093-.17.137-.26l1.007-1.8c.865-1.469 1.63-2.276 4.036-4.8 5.573 2.309 6.12 2.658 12.857 6.971h.007c2.607-2.184 2.786-2.258 7.251-4.146 4.5 3.2 4.7 3.41 10 8.877 3.339-1.041 3.639-1.048 8.769-1.136 3.343 3.765 3.474 3.994 6.947 9.931v.005c3.813.207 4.139.322 9.646 2.088 2.089 4.007 2.15 4.232 3.756 10.191v.013c4.012 1.553 4.23 1.694 9.786 5.448.822 3.956.812 4.182.525 9.752h.007c3.884 2.957 4.184 3.286 9.091 8.9-.457 3.668-2.969 9.684-2.969 9.684a59.141 59.141 0 0 1 7.933 12.6c-1.8 2.81-1.948 2.929-5.771 6.031v.011c.031.073.06.145.088.223l1.447 3.244c1.083 2.613 1.6 4.508 3.213 10.529-2.8 1.63-3 1.676-7.933 2.924v.009c.018.092.047.176.064.264l.761 3.6h.007c.558 2.88.679 4.911 1.061 11.332-3.462.386-3.795.344-9.243-.293v.156l.027 3.919c-.046 3.035-.331 5.1-1.264 11.653-3.839-.928-4.17-1.081-9.8-3.571-.015.068-.029.139-.04.2l-.794 3.9v.006c-.688 3.019-1.422 5.031-3.745 11.386-3.919-2.245-4.241-2.5-9.666-6.784h-.007c-.049.121-.1.243-.156.364l-1.6 3.513.007.018c-1.376 2.854-2.558 4.678-6.321 10.48-3.73-3.526-4.027-3.888-8.879-9.85v.007l-.007-.007c-.09.121-.183.243-.273.357l-2.415 3.057v.009c-2.04 2.487-3.619 4.021-8.661 8.87-3.03-4.695-3.231-5.136-6.673-12.582h-.015c-4.916 4.219-5.392 4.519-13.371 9.563-1.961-5.591-2.066-6.094-3.831-14.459v-.009c-5.628 3.073-6.157 3.275-14.88 6.555-.776-6.135-.776-7.379-.746-15.482-6.1 1.817-6.647 1.9-15.755 3.313.489-6.371.611-6.9 2.455-15.714z" class="cls-1" transform="translate(-733.793 -1229.628)"/>
            <path id="패스_616" d="M823.16 1328.713l-.086.037-1.244 3.57a.354.354 0 0 1-.053.132h.013c5.529-2.26 5.937-2.518 13-6.828a56.973 56.973 0 0 0-2.175 10.511l-.081.057-.41 3.712c0 .055-.022.112-.022.163 4.87-3.465 5.225-3.815 11.053-9.662a60.889 60.889 0 0 0 .276 10.7l-.075.077.424 3.536c.018.1.018.2.029.293 3.978-4.483 4.238-4.9 8.557-11.991a59.7 59.7 0 0 0 2.739 10.248l-.04.075 1.2 3.29c.026.09.057.172.09.269h.015c2.876-5.3 3.044-5.772 5.65-13.718a64.867 64.867 0 0 0 4.991 9.073l-.015.082 1.934 2.909a.641.641 0 0 1 .086.126c1.53-5.791 1.552-6.292 2.084-14.611a60.137 60.137 0 0 0 6.539 7.416v.073l2.377 2.278a.911.911 0 0 1 .091.1v-.009h.007c.1-5.9.022-6.389-1.381-14.516a50.555 50.555 0 0 0 7.6 5.392l.013.083 2.541 1.46c.078.046.139.089.229.137v-.007c-1.186-5.679-1.372-6.12-4.484-13.576a43.279 43.279 0 0 0 8.147 3.1l.029.072 2.737.721c.05.018.086.024.135.038l-.007-.009.007.009c-2.314-5.15-2.591-5.525-7.108-11.909a33.549 33.549 0 0 0 8.076.633l.069.07 2.644-.137h.09c-3.246-4.351-3.588-4.643-9.181-9.631a25.4 25.4 0 0 0 7.371-1.921l.079.051 2.223-.971c.044-.024.09-.038.15-.07-4.062-3.418-4.446-3.617-10.76-6.925 1.949-1.668 3.374-2.735 5.829-5.17l1.729-1.736c.037-.036.058-.071.1-.1-4.32-1.906-4.706-1.972-11.161-3.072a21.494 21.494 0 0 0 4.021-6.2l.092.006.99-2.32a.2.2 0 0 1 .029-.073v-.011c-4.278-.476-5.132-.351-10.648.467a23.573 23.573 0 0 0 1.879-7.472l.079-.024.207-2.677a.177.177 0 0 1 .018-.088l-.018.011v-.011c-3.9.856-4.1.964-9.347 3.681a25.9 25.9 0 0 0-.465-8.206l.086-.057-.607-2.81c-.018-.046-.018-.084-.033-.115v-.009c-3.248 2.047-3.4 2.214-7.386 6.484a30.1 30.1 0 0 0-2.909-8.35l.066-.084-1.488-2.83a.425.425 0 0 1-.035-.064c-2.335 3.066-2.485 3.394-4.869 8.793a33.581 33.581 0 0 0-5.37-7.854l.031-.113-2.314-2.523c-.011-.022-.029-.046-.044-.069v.005l-.011-.005c-1.25 3.888-1.286 4.263-1.947 10.507a39.461 39.461 0 0 0-7.591-6.66l-.013-.115-2.924-1.974c-.046-.027-.09-.062-.139-.1v.009l-.015-.009c.123 4.373.214 4.763 1.645 11.358a41.827 41.827 0 0 0-9.091-4.987l-.044-.114-3.363-1.33c-.049-.022-.11-.038-.17-.071 1.553 4.488 1.754 4.867 5.117 11.232a44.315 44.315 0 0 0-10.16-2.955l-.057-.108-3.745-.607a.285.285 0 0 1-.071-.015c2.836 4.241 3.143 4.581 8.178 10.256a47.869 47.869 0 0 0-10.656-.673l-.086-.083-3.805.218a.575.575 0 0 0-.093.007c3.978 3.687 4.371 3.961 10.786 8.552a44.664 44.664 0 0 0-10.573 1.789l-.119-.059-3.555 1.06c-.071.022-.134.033-.209.049l.015.006h-.015c4.918 2.88 5.361 3.07 12.851 6.261a44.149 44.149 0 0 0-9.852 4.322l-.124-.035-3.288 1.96a.56.56 0 0 0-.108.068c5.608 1.85 6.1 1.938 14.242 3.467a48.182 48.182 0 0 0-8.438 6.735l-.106-.011-2.71 2.713c-.02.022-.057.049-.093.082 5.933.511 6.426.472 14.76-.068a50.1 50.1 0 0 0-6.643 8.449l-.1.015-1.947 3.123c-.046.068-.09.137-.135.2v.011c5.9-.933 6.371-1.087 14.275-3.613a54.041 54.041 0 0 0-4.508 9.732zm-3.849-10.09c3.337-4.846 3.678-5.192 9.333-11-5.655.84-6.153.84-14.507.752 2.437-2.115 5.857-4.717 8.48-6.6l3.24-1.91c-5.681-.635-6.321-.807-14.254-2.843 5.211-2.732 5.679-2.88 13.522-5.207a.636.636 0 0 1-.135-.055l-3.4-1.232-.011.011a94.627 94.627 0 0 1-9.516-4.5c5.707-1.348 6.193-1.374 14.386-1.7h.011a.349.349 0 0 1-.1-.068l-3.017-1.928h-.018a96.606 96.606 0 0 1-8.065-6.261c5.86.016 6.329.106 14.355 1.663-.075-.082-.135-.144-.214-.223l-2.294-2.345h-.007a85.743 85.743 0 0 1-6.189-7.589c5.646 1.3 6.1 1.486 13.512 4.761a1.8 1.8 0 0 0-.161-.262l-1.612-2.7a74.847 74.847 0 0 1-3.941-8.4c5.156 2.444 5.538 2.728 11.934 7.463-.011-.046-.031-.1-.046-.151l-.862-2.988a58.412 58.412 0 0 1-1.4-8.566c4.415 3.423 4.6 3.652 9.724 9.644h.007v-.229l.064-2.841h-.011a48.459 48.459 0 0 1 1.251-8.026c3.273 4.142 3.451 4.539 6.625 11.146v-.005l.015.005c1.29-4.215 1.475-4.522 4.356-9.6 1.943 4.524 2.014 4.929 3.222 11.682 2.455-3.48 2.638-3.626 7.04-7.447.6 4.53.562 4.911-.132 11.311 3.438-2.479 3.645-2.569 9.19-4.746-.69 4.215-.779 4.439-3.306 10.152 4.186-1.292 4.415-1.3 10.7-1.6-1.886 3.6-2.047 3.78-6.149 8.3 4.6.059 4.991.168 11.42 1.908a35.3 35.3 0 0 1-8.436 6.428c4.662 1.639 5.037 1.881 11.144 5.75-3.837 1.416-4.219 1.462-10.487 2.276v.007c.057.035.09.057.15.09l2.662 1.864h.018c2.033 1.5 3.259 2.755 7.112 6.711-4.34.026-4.742-.044-11.344-1.224.04.046.075.084.123.13l2.265 2.541h.015c1.7 2 2.651 3.562 5.617 8.466-4.452-1.336-4.839-1.519-11.248-4.58a.566.566 0 0 0 .042.081l1.74 3.149h.015c1.244 2.408 1.852 4.193 3.727 9.779-4.259-2.618-4.609-2.906-10.385-7.668a.139.139 0 0 1 .018.084l1.019 3.529.011.017c.693 2.675.886 4.578 1.482 10.551-3.758-3.786-4.049-4.159-8.793-10.354v.009-.009a1 1 0 0 1 .011.176l.152 3.612.015.013c.033 2.792-.229 4.695-1.081 10.7-2.98-4.753-3.189-5.194-6.544-12.513h-.011c-.007.055-.024.108-.038.174l-.761 3.538v.02c-.65 2.7-1.391 4.49-3.7 10.118-1.842-5.454-1.932-5.935-3.423-13.974-2.408 5.149-2.7 5.553-7.54 12.32-.514-5.809-.446-6.965-.027-14.476h-.018v-.007c-3.538 4.4-3.91 4.73-10.191 10.167.844-5.818.982-6.283 3.326-14.091-4.517 3.4-4.949 3.63-12.343 7.434 2.141-5.482 2.384-5.89 6.49-12.886-5.235 2.202-5.73 2.321-13.824 4.271z" class="cls-1" transform="translate(-714.656 -1218.43)"/>
            <path id="패스_617" d="M878.673 1242.9h.015c3.559.212 3.87.322 9.058 2.042 4.5 3.143 4.706 3.357 10.021 8.65h.016c3.774 1.535 4.089 1.747 9.274 5.333 3.348 3.65 3.484 3.875 7 9.607h.018c3.694 2.878 3.987 3.194 8.737 8.61 2.115 3.9 2.175 4.115 3.8 9.876v.009c3.326 4.2 3.478 4.484 7.419 11.825.8 3.886.765 4.806.472 10.246l.382.975c2.461 5.538 2.6 6.052 4.916 14.7-.686 3.3-.772 3.465-3.108 7.492v.005a1.3 1.3 0 0 0 .035.172l.776 3.84.015-.016c.547 3.026.679 5.128 1.08 11.815-1.859 2.316-1.991 2.409-5.771 4.775v4.226l.017-.009c-.046 3.164-.335 5.3-1.264 12.123-2.755 1.182-2.937 1.2-7.7 1.776v.009c0 .048-.015.1-.015.139l-.822 4.118.015-.011c-.686 3.173-1.39 5.266-3.666 11.92-3.385-.057-3.7-.128-8.927-1.387v.009a.68.68 0 0 0-.06.143l-1.661 3.941h.013c-1.336 3.028-2.479 4.975-6.116 11.155-3.745-1.359-4.067-1.55-9.5-4.665-.075.108-.135.2-.2.313l-2.388 3.4v.009c-1.994 2.722-3.562 4.409-8.557 9.779-3.857-2.726-4.168-3.019-9.47-8-.119.106-.229.2-.34.311l-3.123 2.779.007.007c-2.6 2.24-4.521 3.562-10.61 7.752-3.427-4.052-3.674-4.466-7.858-11.2-5.864 3.533-6.411 3.762-15.5 7.681-2.545-5.161-2.7-5.631-5.425-13.632h-.018v-.007c-6.314 2.269-6.879 2.388-16.338 4.44-1.5-5.957-1.564-6.477-2.662-15.3h-.015v-.009c-6.506.953-7.082.969-16.512 1.143l-4.334-.19.349 4.217c6.614.322 7.187.276 16.631-.459a70.076 70.076 0 0 0 2.208 11.259l-.064.011 1.012 3.6a2.446 2.446 0 0 0 .068.236c6.768-.982 7.329-1.138 16.662-3.736a65.27 65.27 0 0 0 4.188 9.946l-.049.026 1.522 2.906a3.708 3.708 0 0 1 .2.39l.018.005c6.618-2.312 7.157-2.574 16.013-7.046a53.532 53.532 0 0 0 5.912 8.09l-.044.031 2.027 2.267.238.295v-.009l.015.009c6.246-3.652 6.715-4.032 14.787-10.313a49.243 49.243 0 0 0 7.1 5.673l-.049.042 2.333 1.535c.064.036.122.068.187.112v-.005c5.295-4.852 5.674-5.317 12.009-13.113a34.495 34.495 0 0 0 6.991 3.18l-.033.04 2.241.712a.766.766 0 0 1 .143.053v-.005c4.062-5.749 4.331-6.278 8.773-15.047a22.138 22.138 0 0 0 6.471.73l-.029.073 1.9-.1h.214v-.015c2.77-6.318 2.92-6.872 5.478-16.154a40.975 40.975 0 0 0 5.472-1.522l1.669-.889h.007c1.471-6.61 1.519-7.168 2.2-16.543a12.5 12.5 0 0 0 3.99-3.824v.139l1.03-1.562c.018-.013.018-.029.033-.044h.009c.108-.413.6-3.079-1.014-16.258a14.693 14.693 0 0 0 1.936-5.868l.044.244.256-2.179a.345.345 0 0 0 .018-.062c-1.158-6.543-1.755-7.973-4.649-16.465a62.6 62.6 0 0 0-.607-7.779l-.728-2.574v-.02c-2.3-5.485-2.653-6.021-6.812-12.623a29.358 29.358 0 0 0-3.634-7.88l.439.6-1.583-2.534v-.007h-.011v-.005c-3.044-4.314-3.445-4.708-8.348-9.516a37.724 37.724 0 0 0-6.146-7.492l.6.507-2.336-2.283-.123-.113c-3.438-3.037-3.851-3.275-9.029-6.255a46.363 46.363 0 0 0-8.209-6.415l.457.221-3.129-1.963v-.005H887v-.009c-3.606-1.788-4.02-1.89-9.077-3.017-2.845-1.6-6.759-3.516-9.728-4.889l-2.3-.243c5.513 2.364 5.928 2.62 12.778 6.972z" class="cls-1" transform="translate(-726.91 -1230.185)"/>
            <path id="패스_618" d="M829.03 1303.93l-.15.1-1.751 3.147a.252.252 0 0 0-.046.073c4.706-3.059 5.037-3.383 10.641-8.722a47.234 47.234 0 0 0-3.637 9.377l-.126.132-.942 3.509c0 .018-.011.042-.011.068 3.78-4.128 4.023-4.524 8.1-11.162a50.45 50.45 0 0 0-1.231 10.117l-.079.147-.075 3.588v.146c2.666-4.964 2.8-5.41 5.088-12.941a54.561 54.561 0 0 0 1.315 10.213l-.04.159.794 3.491a.7.7 0 0 1 .029.17l.017-.009v.009c1.409-5.527 1.432-6 1.784-13.971a59.768 59.768 0 0 0 3.8 9.616v.148l1.632 3.236a.422.422 0 0 1 .029.084h.007c-.007-5.692-.113-6.164-1.819-14.057a63.536 63.536 0 0 0 5.814 8.4l.06.145 2.261 2.735c.022.018.022.038.044.06v-.007l.013.007c-1.4-5.527-1.614-5.965-5.119-13.219a61.431 61.431 0 0 0 7.4 6.7l.071.122 2.673 2.022a.667.667 0 0 1 .121.093l-.007-.011.007.011c-2.576-5.006-2.883-5.379-7.891-11.567a54.607 54.607 0 0 0 8.477 4.611l.112.1 2.988 1.277a.826.826 0 0 0 .084.037c-3.562-4.2-3.926-4.486-10.079-9.238a46.708 46.708 0 0 0 8.972 2.21l.135.091 3.059.41a.383.383 0 0 1 .053.018h.022c-4.274-3.156-4.686-3.343-11.556-6.387a36.854 36.854 0 0 0 8.8-.349l.154.059 2.845-.494c.038-.009.079-.009.121-.018-4.841-1.976-6.382-2.45-13.182-3.2a39.029 39.029 0 0 0 8.731-3.346h.161l2.437-1.4a.416.416 0 0 0 .075-.055c-4.735-.4-5.147-.337-11.925.774a29.027 29.027 0 0 0 6.4-5.264l.146-.046 1.89-2.117a.066.066 0 0 0 .029-.04c-4.4 1.006-4.757 1.191-10.685 4.19a27.9 27.9 0 0 0 4.506-7.013l.135-.1 1.158-2.638a.236.236 0 0 0 .033-.057c-3.749 2.267-3.939 2.452-8.727 7.159a28.806 28.806 0 0 0 2.309-8.268l.11-.143.337-2.966a.217.217 0 0 0 .015-.1c-2.83 3.337-3.013 3.685-6.167 9.576a30.125 30.125 0 0 0-.1-8.961l.071-.181-.532-3.162v-.04c-1.722 4.157-1.8 4.557-3.152 11.322a31.849 31.849 0 0 0-2.636-9.018l.018-.208-1.431-3.067c0-.018-.013-.033-.013-.053-.445 4.719-.371 5.728.165 12.322a35.7 35.7 0 0 0-5.083-8.387l-.046-.209-2.219-2.69a.349.349 0 0 0-.068-.08c.993 4.867 1.154 5.293 3.776 12.385a38.31 38.31 0 0 0-7.079-7.152l-.093-.209-2.847-2.184c-.037-.009-.044-.035-.079-.049h-.015c2.377 4.682 2.637 5.062 7.068 11.5a39.939 39.939 0 0 0-8.623-5.446l-.157-.17-3.334-1.524a.214.214 0 0 0-.053-.031c3.544 4.151 3.9 4.466 9.808 9.821a39.613 39.613 0 0 0-9.655-3.361l-.2-.143-3.608-.726-.062-.009c4.539 3.334 4.947 3.562 11.982 7.476a41.658 41.658 0 0 0-10.141-.992l-.21-.092-3.612.137h-.119c5.238 2.282 5.714 2.421 13.433 4.609a37.789 37.789 0 0 0-9.959 1.564l-.216-.034-3.491 1.059-.064.011c5.657 1.063 6.129 1.072 14.093 1.343a37.61 37.61 0 0 0-9.1 4.144l-.2.011-3.076 1.925a.156.156 0 0 1-.055.031c5.675-.373 6.133-.487 13.79-2.305a40.387 40.387 0 0 0-7.675 6.312l-.181.059-2.448 2.582c-.029.027-.051.055-.079.082 5.346-1.795 5.752-2.014 12.591-5.728a43.146 43.146 0 0 0-5.833 8.084zm-.776-6.212c4.007-3.791 4.385-4.038 10.831-8.1-5.092 1.731-5.571 1.8-13.389 3.01 2.68-1.386 6.407-2.96 9.227-4.051l3.443-.938c-5.438.274-6.078.21-13.936-.648 5.414-1.268 5.875-1.275 13.755-1.4a.087.087 0 0 0-.029-.007l-3.573-.789h-.042a92.807 92.807 0 0 1-9.889-3.253c5.626.161 6.1.267 13.879 2.139a.193.193 0 0 1-.046-.015l-3.321-1.63-.028-.015a93.128 93.128 0 0 1-8.888-5.429c5.458 1.508 5.9 1.729 13.091 5.412l-.015-.005.015.005a.459.459 0 0 1-.1-.082l-2.8-2.3-.026-.009a96.686 96.686 0 0 1-7.361-7.234c4.98 2.706 5.348 3.032 11.51 8.25a.861.861 0 0 1-.079-.084l-2.177-2.861-.031-.026a88.83 88.83 0 0 1-5.353-8.55c4.2 3.732 4.484 4.118 9.223 10.531l-.018-.022-1.429-3.306-.026-.027A77.856 77.856 0 0 1 837.7 1267c3.16 4.5 3.337 4.927 6.321 12.123v-.068l-.481-3.184a67.333 67.333 0 0 1-.37-9.591c1.841 4.931 1.9 5.372 2.882 12.848.545-5.114.653-5.511 2.591-12.083.439 5 .379 5.43-.659 12.619 1.892-4.638 2.1-4.967 5.743-10.517-.915 4.713-1.083 5.1-3.978 11.5v.007c3.063-3.84 3.259-4 8.48-8.235-2.159 4.089-2.34 4.292-6.986 9.615l.013-.007-.013.007c4.051-2.785 4.437-2.929 10.663-5.366-3.266 3.205-3.617 3.418-9.5 7.071v-.009.009c4.772-1.515 5.189-1.546 12.11-2.018-4.137 2.08-4.406 2.238-11.234 4.038l-.351.068c5.143.055 5.826.192 12.944 1.947-4.753.585-5.189.565-12.536.13l.033.015 3.352 1.019.061.009c2.419.818 3.974 1.658 8.8 4.263-4.931-.845-5.377-.988-12.606-3.4a.368.368 0 0 0 .049.031l3.07 1.844.06.011c2.219 1.429 3.577 2.653 7.8 6.444-4.783-2.192-5.174-2.444-11.8-6.663.013.011.013.016.013.016l2.653 2.593.046.027c1.87 1.932 2.94 3.473 6.239 8.215-4.281-3.4-4.605-3.74-10.184-9.483l.013.028 2 3.141.047.047c1.383 2.322 2.071 4.074 4.215 9.5-3.469-4.407-3.723-4.814-7.871-11.735 0 .014.015.035.015.051l1.189 3.482.029.057c.811 2.591 1.05 4.441 1.826 10.206-2.421-5.171-2.571-5.628-4.964-13.294v.031l.267 3.645.022.055c.121 2.662-.108 4.51-.807 10.222-1.112-5.564-1.134-6.036-1.509-13.984-.885 5.385-1.065 5.818-3.941 13.171.3-5.633.4-6.091 2.02-13.722-2.223 4.885-2.492 5.256-7.1 11.576 1.658-5.324 1.872-5.732 5.342-12.577-3.4 4.075-3.76 4.367-9.821 9.271 2.916-4.695 3.22-5.031 8.33-10.657-4.377 2.993-4.819 3.179-11.973 6.359z" class="cls-1" transform="translate(-704.17 -1210.214)"/>
            <path id="패스_619" d="M817.02 1351.407l-.079.016-.719 3.861a.629.629 0 0 1-.024.174v.009c6.146-1.425 6.64-1.615 14.829-4.79a69.818 69.818 0 0 0-.682 11.2l-.06.033.1 3.806c0 .077.011.146.011.217 5.738-2.711 6.177-3 13.5-7.9a65.611 65.611 0 0 0 1.707 10.864l-.042.038.836 3.4c.027.13.06.256.09.4 5.088-3.873 5.452-4.259 11.589-10.674a59.858 59.858 0 0 0 4.005 9.884l-.048.048 1.544 3c.055.109.108.219.176.335 4.2-4.909 4.492-5.368 9.177-13.028a62.651 62.651 0 0 0 5.957 8.217l-.033.057 2.155 2.475c.042.06.09.117.132.177v-.007l.015.007c2.926-5.677 3.094-6.189 5.725-14.655a54.348 54.348 0 0 0 6.982 6.182v.062l2.411 1.778a.651.651 0 0 1 .145.108v-.007c1.522-6.085 1.55-6.607 2.194-15.279a44.536 44.536 0 0 0 7.522 3.928v.057l2.388.931a2.225 2.225 0 0 0 .267.124v-.011h.011c.183-6.131.108-6.638-1.083-15.048a31.725 31.725 0 0 0 7.523 1.529l.016.07 2.435.166a.9.9 0 0 0 .117.016c-1.047-5.879-1.215-6.336-4.034-14.057a23.667 23.667 0 0 0 6.947-.928l.024.057 2.152-.644a.753.753 0 0 0 .108-.027v-.005c-2.163-5.335-2.406-5.73-6.621-12.394a17.823 17.823 0 0 0 5.738-3.379l.051.068 1.593-1.422c.05-.038.075-.069.124-.1v-.009c-3.187-4.676-3.915-5.648-9.565-10.449 1.789-2.622 2.913-3.61 4.294-6.555l.944-2.022a1.087 1.087 0 0 1 .057-.132v-.018c-3.787-3.258-4.137-3.445-10.063-6.614a19.713 19.713 0 0 0 1.57-6.892l.079.031.117-2.488c.011-.024.011-.046.022-.058h-.011v-.009c-4.027-1.879-4.256-1.927-10.273-3.116a23.954 23.954 0 0 0-.745-7.619h.073l-.681-2.647c-.011-.024-.013-.051-.031-.088-3.932-.523-4.682-.415-9.638.234a29.551 29.551 0 0 0-3.154-7.827l.086-.025-1.5-2.613a.4.4 0 0 1-.06-.11c-3.517.759-3.7.847-8.316 3.337a34.932 34.932 0 0 0-5.514-7.452l.071-.058-2.355-2.43c-.018-.018-.027-.042-.046-.053-2.863 1.921-3 2.082-6.376 6.094a39.4 39.4 0 0 0-7.781-6.431l.046-.077-3.108-1.971a.252.252 0 0 1-.06-.048h-.007c-1.987 2.968-2.109 3.282-3.935 8.435a47.306 47.306 0 0 0-9.708-4.733l.016-.084-3.555-1.263c-.064-.024-.117-.048-.176-.071v.009l-.007-.009c-.706 3.74-.668 4.578-.457 10.019a49.734 49.734 0 0 0-10.69-2.7l-.015-.08-3.785-.529c-.068-.009-.128-.018-.207-.033v.009h-.011c.73 4.135.851 4.5 3.063 10.611a54.727 54.727 0 0 0-11.2-.439l-.029-.082-3.963.273a.554.554 0 0 0-.121.009h-.011c2.069 4.188 2.313 4.528 6.34 10.346a52.747 52.747 0 0 0-11.184 1.948l-.057-.069-3.875 1.11c-.035.009-.075.022-.075.022l-.027.018c3.3 3.9 3.656 4.206 9.291 9.316a52.529 52.529 0 0 0-10.592 4.393l-.068-.053-3.427 1.875c-.077.04-.161.086-.243.135 4.413 3.359 4.837 3.6 11.845 7.642a52.772 52.772 0 0 0-9.351 6.823l-.093-.046-3 2.755c-.044.037-.075.072-.126.11 5.364 2.561 5.853 2.724 13.931 5.416a59.73 59.73 0 0 0-7.483 8.958l-.075-.015-2.287 3.358c-.047.049-.071.1-.108.143v.007c5.985 1.347 6.5 1.378 15.184 2.079a61.663 61.663 0 0 0-5.375 10.191h-.068l-1.436 3.506c-.049.114-.1.221-.157.346h.011v.005c6.232-.066 6.751-.139 15.413-1.442a64.858 64.858 0 0 0-3.063 10.957zm-6.7-13.42c2.587-5.7 2.861-6.133 7.6-13.418-6.007-.042-6.528-.119-15.1-1.431 2.117-2.75 5.143-6.25 7.479-8.815l2.942-2.788c-5.714-1.482-6.358-1.744-14.084-4.839 4.836-4.043 5.282-4.305 12.858-8.661-.075-.033-.15-.073-.225-.109l-3.138-1.6a99.149 99.149 0 0 1-8.833-5.538c5.6-2.746 6.092-2.891 14.417-5.3a1.774 1.774 0 0 0-.181-.141l-2.605-2.137a87.3 87.3 0 0 1-7-6.848c6.028-1.409 6.543-1.44 15.105-1.947h.011c-.1-.134-.2-.245-.293-.368l-1.787-2.309a72.563 72.563 0 0 1-4.85-7.677c6.111-.106 6.612-.026 14.988 1.288h-.015.015c-.06-.141-.122-.262-.183-.4l-1.083-2.477a59.067 59.067 0 0 1-2.432-7.97c5.906 1.151 6.363 1.33 14.125 4.314 0-.068-.011-.121-.011-.19l-.293-2.384a40.894 40.894 0 0 1 .139-7.887c5.421 2.291 5.833 2.562 12.622 7a2.044 2.044 0 0 0 .075-.3l.563-2.294-.016-.007a36.1 36.1 0 0 1 2.726-6.5c4.526 3.262 4.739 3.489 9.977 9.188l.015-.009v.009c1.994-3.236 2.148-3.383 5.939-6.952 3.312 3.928 3.5 4.292 6.79 10.441h.015c2.94-2.274 3.134-2.344 8.057-4.307 2.04 4.217 2.13 4.592 3.531 10.8 3.7-1.127 3.912-1.134 9.609-1.286.743 4.19.728 4.419.285 10.363 4.177.156 4.4.227 10.434 2.033-.521 3.86-.6 4.06-2.8 9.2v.006c4.32 1.559 4.552 1.712 10.423 5.566a26.564 26.564 0 0 1-5.86 8.3 68.228 68.228 0 0 1 9.79 9.344c-2.861 2.177-3.054 2.248-8.239 4.263v.011c.053.064.1.114.139.177l2.066 2.6h.009c1.581 2.095 2.463 3.71 5.218 8.808-3.623.874-3.97.874-9.774.911h-.018a2.329 2.329 0 0 1 .126.229l1.508 3.109c1.143 2.5 1.683 4.334 3.381 10.119-4.034-.479-4.4-.6-10.43-2.446a.549.549 0 0 0 .028.115l.869 3.606.018.011c.593 2.77.747 4.726 1.219 10.923-4.139-1.786-4.49-2.007-10.3-5.677a.778.778 0 0 0 .007.132l.073 3.8h.013c-.013 2.905-.293 4.894-1.2 11.182-3.914-3.052-4.219-3.363-9.4-8.687v.008l-.009-.008c-.022.1-.037.2-.055.295l-.772 3.6v.013c-.686 2.878-1.433 4.777-3.809 10.789-3.442-4.21-3.683-4.61-7.875-11.356h-.022c-.051.106-.093.212-.143.318l-1.645 3.3v.011c-1.385 2.642-2.587 4.331-6.338 9.66-2.5-5.152-2.646-5.626-5.172-13.5h-.018c-3.743 4.753-4.14 5.114-10.7 11.111-1.261-5.8-1.308-6.308-2-14.732v-.007c-4.687 3.791-5.148 4.056-12.818 8.475.026-6.093.1-6.592 1.27-15.069-5.41 2.637-5.915 2.792-14.329 5.438 1.325-6.036 1.5-6.526 4.516-14.606h-.011c-5.866 1.344-6.402 1.392-15.124 2.111z" class="cls-1" transform="translate(-724.64 -1224.961)"/>
            <path id="패스_620" d="M877.917 1289.64a47.082 47.082 0 0 1-.547 5.589v.061l.047 4.338.007-.066c-.015 3.319-.28 5.527-1.133 12.652-.8 2.865-.9 2.993-3.3 6.36a.633.633 0 0 0-.026.123l-.792 4.285.016-.015c-.671 3.291-1.354 5.462-3.59 12.372l-1.738 4.34 1.079-1.378c2.726-6.548 2.872-7.126 5.364-16.755a31.045 31.045 0 0 0 2.179-5.11l-.053.282.079-.37.975-5 .661-4.486c.315-2.776.494-6.508.666-9.3l.15-2.194.015-1.134z" class="cls-1" transform="translate(-662.976 -1185.631)"/>
            <path id="패스_621" d="M935.039 1407.444h-.018a.033.033 0 0 1-.013.024l-3.22 3.553.022-.007c-2.459 2.629-4.3 4.2-10.171 9.219-2.755.549-2.947.538-7.661.071l-.011.009a1.8 1.8 0 0 0-.154.114l-3.795 2.785.013.005c-2.977 2.109-5.125 3.308-11.98 7.108-3.493-.757-3.8-.906-9.153-3.332h-.013c-.093.048-.2.1-.291.137l-4.259 1.912.011.011c-3.375 1.456-5.728 2.192-13.168 4.519-3.659-2.232-3.959-2.5-8.945-7.007l-.009-.005c-6.987 1.753-7.606 1.817-17.718 3.008-3.3-3.615-3.542-3.987-7.726-10.238h-.015v-.009c-6.885.412-7.461.373-17.131-.269-2.712-4.786-2.894-5.251-5.968-12.932l-.016-.011c-6.53-.827-7.066-.953-15.941-3.239-1.894-5.75-2-6.274-3.7-15.094l-.011-.009c-5.928-1.945-6.393-2.167-14.117-5.866-.873-6.523-.873-7.1-.959-16.77-5.061-2.94-5.425-3.227-11.62-8.14.293-3.97.789-9.258 1.35-13.2l.9-4.752-2.519-2.516c-1.852-2.058-4.188-4.938-5.89-7.139 1.8-7.1 2.027-7.681 5.943-17.383a1.045 1.045 0 0 0-.139-.21l-1.447-2.28a49.848 49.848 0 0 1-3.24-6.821c3.18-6.6 3.518-7.124 9.291-15.819v-.009l-.049-.165-.648-2.157-.007.011a30.034 30.034 0 0 1-.8-6.069c4.391-5.895 4.834-6.343 12.163-13.782 0-.088.018-.155.018-.236l.121-1.762-.018.015a17.792 17.792 0 0 1 1.438-4.893c5.441-4.984 5.957-5.339 14.578-11.27a.969.969 0 0 1 .047-.09l.853-1.411-.039.024c.648-.977 1.286-1.5 3.341-3.18l-4.585 3.072a24.629 24.629 0 0 0-2.741 2.767 77.174 77.174 0 0 0-10.762 8.926l.17-.276-3.462 3.421a.029.029 0 0 1-.011.022c-1.372 2.109-1.4 2.261-2.256 6.257a77.441 77.441 0 0 0-8.755 10.6v-.157l-2.741 3.988-.015.024c-.241 2.92-.181 3.2.734 7.973a76.94 76.94 0 0 0-6.565 11.984l-.037-.115-1.875 4.29a1.084 1.084 0 0 0-.049.134v.009l-.018.006c-.026.642.64 2.75 4.038 9.12a75.41 75.41 0 0 0-4.052 13.021l-.075-.1-.994 4.6c0 .042-.011.077-.011.108v.009c2.47 3.886 2.658 4.1 7.607 9.715-1.339 10.271-1.429 10.882-1.46 17.947h.007c3.88 3.625 4.29 3.893 10.941 8.436a76.782 76.782 0 0 0 1.039 12.377l-.064-.044.657 3.916.044.284v.013c5.039 2.893 5.525 3.092 13.579 6.354a68.437 68.437 0 0 0 3.026 11.033l-.071-.022 1.279 3.5a.88.88 0 0 0 .064.154v.009c5.954 1.989 6.5 2.1 15.588 3.892a60.106 60.106 0 0 0 4.627 9.336l-.075-.009 1.751 2.843a1.363 1.363 0 0 0 .079.137c6.636.933 7.22.94 17.006 1.05a47.308 47.308 0 0 0 5.829 7.295l-.071.015 1.961 1.98a2.1 2.1 0 0 1 .2.212h.011c7.082-.3 7.686-.413 17.8-2.177a33.869 33.869 0 0 0 6.671 4.874l-.093.02 2.188 1.211c.057.027.1.061.159.093h.007c7.3-1.709 7.909-1.937 18.051-5.756a25.682 25.682 0 0 0 6.806 2.117l-.106.042 2.144.32c.015.007.031.007.053.016h.011c6.872-3.143 7.423-3.493 16.452-9.265a13.78 13.78 0 0 0 5.654-.458l-.165.123 1.676-.51h.026c6.04-4.384 6.49-4.827 14.119-12.172a24.649 24.649 0 0 0 4.155-2.691l3.1-3.39c-1.875 1.656-2.022 1.711-5.721 3.035z" class="cls-1" transform="translate(-752.88 -1225.24)"/>
            <path id="패스_622" d="M948.134 1386.274v.005c-.018.024-.018.048-.037.075l-1.639 4.184.011-.009c-1.308 3.162-2.42 5.193-5.983 11.666-2.726.822-2.909.822-7.569.834v.005h-.017c-.015.033-.048.077-.071.121l-2.442 3.793.018.011c-1.921 2.889-3.443 4.693-8.272 10.429-3.377-.421-3.689-.534-8.852-2.367h-.007c-.079.086-.154.15-.229.234l-3.1 3.156.015.006c-2.538 2.475-4.435 3.956-10.464 8.661-3.793-1.8-4.117-2.033-9.58-5.822h-.016c-.134.073-.243.159-.366.236l-3.731 2.4.011.005c-3.052 1.894-5.238 2.953-12.132 6.3-3.641-3.244-3.912-3.582-8.632-9.347-6.579 2.711-7.165 2.867-16.964 5.5-3-4.506-3.209-4.947-6.76-12.24l-.011-.009c-6.748 1.369-7.329 1.418-17.11 2.146-2.157-5.5-2.287-6.007-4.42-14.461h-.02c-6.669.073-7.232 0-16.6-1.056-1.144-6.257-1.171-6.808-1.718-16.036v-.011c-6.332-1.18-6.837-1.335-15.4-4.087.035-6.753.11-7.331 1.35-17h.003l.007-.013c-5.672-2.358-6.115-2.618-13.437-6.9.854-3.892 2.077-9.062 3.167-12.891l1.54-4.524-3.044-2.289c-2.349-1.958-5.353-4.7-7.562-6.8 2.786-6.727 3.1-7.258 8.315-16.1l-.011-.011h.011c-.089-.1-.165-.176-.247-.271l-1.941-2.2h-.016a69.211 69.211 0 0 1-5.046-7.037c4.095-5.948 4.506-6.4 11.395-13.9v-.007l-1.321-2.508c-.862-2.016-1.934-4.737-2.605-6.824 5.174-5 5.661-5.357 13.854-11.334l.007-.005c-.035-.148-.057-.282-.082-.417l-.335-1.67a30.628 30.628 0 0 1-.258-6.409c6.014-3.9 6.564-4.157 15.712-8.414v-.007c.015-.084.027-.163.046-.252l.333-1.76c.307-1.451.717-2.258 2.089-4.951 6.64-2.675 7.232-2.81 17.01-5.218h.015c.015-.024.033-.042.048-.068l1.143-1.422h-.026c.922-1.06 1.7-1.544 4.3-3.2 7.066-1.319 7.677-1.346 17.767-1.775h.007a.45.45 0 0 1 .086-.037l1.89-.715h-.079c1.387-.472 2.437-.565 5.878-.865l-5.7.13a41.8 41.8 0 0 0-4.792.849 73.475 73.475 0 0 0-13.68 1.852l.434-.185-4.672 1.052h-.011l-.007.005c-2.741 1.039-2.854 1.145-5.935 3.906a74.321 74.321 0 0 0-12.694 4.355l.1-.126-4.278 1.912a.5.5 0 0 1-.082.037v.006h-.011c-1.658 2.126-1.718 2.289-3.057 6.336a74.975 74.975 0 0 0-11.558 6.682l.015-.112-3.839 2.7a.192.192 0 0 1-.06.046v.005h-.015c-.489 2.951-.424 3.627 0 8.065a76.3 76.3 0 0 0-10.076 8.771l-.018-.093-3.242 3.374-.068.069-.011.007c1.326 4.965 1.431 5.362 3.216 9.1a74.014 74.014 0 0 0-8.193 10.608l-.044-.079-2.437 3.822c-.049.068-.093.135-.139.205v.014c2.1 3.793 2.347 4.117 6.546 9.51a75.456 75.456 0 0 0-5.868 12.126l-.049-.064-1.648 4.36a1.016 1.016 0 0 0-.064.141v.009c3.505 3.857 3.749 4.058 9.991 9.311-2.774 9.979-2.944 10.568-3.985 17.658v.007c4.783 3.266 5.247 3.5 12.948 7.324a85.882 85.882 0 0 0-.7 12.639l-.064-.022.11 4.023v.375h.007v.007c5.763 2.283 6.283 2.415 15.087 4.666.315 3.544.94 8.262 1.473 11.8l.86 4.027c6.444 1.182 7.013 1.211 16.488 1.744a68.135 68.135 0 0 0 3.513 10.56h-.079l1.413 3.3a2 2 0 0 1 .079.2c6.857-.046 7.45-.126 17.217-1.412a58.513 58.513 0 0 0 5.152 8.85l-.064.009 1.784 2.512c.079.108.135.2.218.313h.011c7.007-1.356 7.582-1.546 17.281-4.755a44.952 44.952 0 0 0 6.449 6.667l-.053.031 2.13 1.769c.079.071.154.139.247.216l.015-.011v.011c6.91-2.765 7.461-3.074 16.748-8.268a38.139 38.139 0 0 0 7.139 4.021l-.06.044 2.283.95c.055.024.1.046.154.069 6.2-4.113 6.673-4.526 14.5-11.5a23.593 23.593 0 0 0 6.486 1.449l-.06.059 2.011.119a.336.336 0 0 0 .1.009c5.132-5.2 5.5-5.692 11.627-13.945a14 14 0 0 0 5.469-.957l-.071.1 1.568-.639a.314.314 0 0 0 .09-.029l.018-.009c.322-.287 2.25-2.406 8.572-15.691a30.211 30.211 0 0 0 3.959-2.971l1.738-4.34c-1.872 1.941-2.03 2.021-5.738 3.787z" class="cls-1" transform="translate(-748.25 -1232.792)"/>
            <path id="패스_623" d="M884.082 1416h-.013c-.062.026-.123.033-.2.058l-4.631 1.277h.029c-3.6.938-6.069 1.288-13.5 2.344-3.581-1.014-3.782-1.127-8.9-4.12h-.011c-7.079.657-7.875.62-17.537.157-3.52-2.446-3.613-2.538-8.427-7.542h-.015v-.009c-6.671-.615-7.382-.781-16.216-2.88-3.209-3.721-3.377-3.983-7.36-10.59h-.001v-.007c-6.054-1.709-6.68-1.991-14.355-5.437-2.677-4.883-2.79-5.2-5.707-13.278v-.011c-5.214-2.618-5.714-2.989-11.956-7.492-1.866-5.91-1.927-6.277-3.423-15.6v-.011c-4.16-3.359-4.525-3.795-9.057-9.086-.375-3.822-.6-8.943-.706-12.787l.2-4.742c-2.852-3.906-3.044-4.354-5.593-9.832.606-7.119.734-7.723 3.077-17.762v-.009c-.015-.046-.029-.088-.042-.135l-.823-2.234a28.108 28.108 0 0 1-1.111-6.327c2.009-6.91 2.25-7.474 6.528-16.94v-2.02l-.011.024c.044-1.453.318-2.318 1.184-5.041l-2.084 4.534a33.169 33.169 0 0 0-1.125 4.828 73.154 73.154 0 0 0-4.446 12.9l.015-.358-1.114 4.493v.038c-.348 2.5.031 4.131 1.008 8.48a71.091 71.091 0 0 0-1.822 13.241l-.066-.2-.2 4.559v.055c1.193 3.86 1.323 4.086 4.6 9.841a72.43 72.43 0 0 0 .821 12.974l-.093-.139.672 4.254c.007.027.007.05.015.073 2.662 3.926 2.969 4.232 8.1 9.362a62.216 62.216 0 0 0 2.977 11.4l-.112-.088 1.308 3.586c.018.04.033.084.048.126v.009c3.941 3.487 4.338 3.747 11.117 7.988a53.312 53.312 0 0 0 4.594 9.582l-.121-.068 1.811 2.948a.508.508 0 0 0 .048.068c5.048 2.858 5.374 2.978 13.651 6.118a41.963 41.963 0 0 0 5.763 7.516l-.121-.041 2.108 2.176c.018.013.031.036.057.057 5.968 1.99 6.347 2.058 15.694 3.725a31.678 31.678 0 0 0 6.5 5.205l-.176-.02 2.219 1.323c.033.027.057.04.09.068h.018c6.7.893 7.093.887 17.238.786a21.742 21.742 0 0 0 6.813 2.644l-.256.025 2.223.448c.035 0 .046.013.046.013h.031c7.22-.434 7.644-.52 18.239-2.693 2.62.364 2.834.375 6.7-.194l4.128-1.155c-3.099.445-3.203.417-8.339-.455z" class="cls-1" transform="translate(-755.222 -1205.266)"/>
            <path id="패스_624" d="M835.225 1236.478l.086-.09-4.431.234-.121.009c-1.191.538-2.058 2.229-2.788 3.31a26.2 26.2 0 0 0-1.541 3.01 67.367 67.367 0 0 0-12.5 1.987l.033-.092-4.31 1.1a.834.834 0 0 1-.114.029v.011c-.915 2.967-.933 3.174-1.087 8.206a69.419 69.419 0 0 0-11.927 4.408l-.007-.082-4.031 1.934a.709.709 0 0 0-.115.046v.005c.39 3.559.49 3.882 2.208 9.307a69.406 69.406 0 0 0-10.91 6.707l-.027-.078-3.6 2.7-.1.079c2.605 5.381 2.82 5.823 5.478 9.657a70.291 70.291 0 0 0-9.4 8.848l-.055-.066-2.887 3.293c-.064.073-.124.13-.185.2v.011h-.015c3.03 3.844 3.348 4.157 8.709 9.349-2.366 3.112-5.3 7.43-7.412 10.709l-2.287 4.122v.005c4.32 3.6 4.6 3.776 11.806 8.422-4.009 9.234-4.252 9.783-6.232 16.585 5.417 2.755 5.92 2.927 14.3 5.855a78.546 78.546 0 0 0-2.362 12.322l-.06-.022-.428 3.989a2.524 2.524 0 0 1-.062.421h.018v.009c6.186 1.575 6.74 1.63 15.863 2.754a139.107 139.107 0 0 0 .289 16.238l3.985-4.027c-.326-6.446-.247-7.749.364-16.229h-.007c-6.442-.36-6.974-.463-15.969-2.135.922-6.676 1.08-7.223 3.566-16.474-6.021-1.676-6.508-1.881-14.577-5.339 1.33-3.648 3.213-8.467 4.8-12.015l2.08-4.1-3.441-1.974c-2.7-1.731-6.224-4.188-8.826-6.083 3.622-6.058 4-6.523 10.244-14.183-.092-.075-.167-.146-.26-.227l-2.419-2.106a80.156 80.156 0 0 1-6.594-6.857c4.8-5.059 5.26-5.428 12.943-11.47l-1.89-2.554c-1.336-2.111-3.076-4.973-4.245-7.179 5.692-3.939 6.228-4.193 14.888-8.5l.011-.009c-.069-.148-.133-.287-.19-.428l-.851-2.139a43.99 43.99 0 0 1-1.833-7.007c6.307-2.721 6.857-2.865 16.128-5.337v-.007h.013a3.375 3.375 0 0 1-.031-.359l-.135-2.06h-.007a29.8 29.8 0 0 1 .618-6.277c6.667-1.418 7.236-1.458 16.734-2.047v-.009h.007a.527.527 0 0 1 .05-.132l.666-1.91h-.007c.563-1.47 1.143-2.273 3.066-4.944 6.791-.081 7.346 0 16.73 1.29v-.007h.015c.042-.051.093-.089.146-.146l1.444-1.293h-.037c1.195-1.008 2.113-1.451 5.174-2.924 6.365 1.253 7.037 1.5 15.18 4.492l.011.007c3.081-1.067 3.374-1.074 8.2-1.211l2.3.243-3.809-1.414c-3.483-.479-4.23-.36-8.414.282a58.8 58.8 0 0 0-11.622-2.96l.187-.064-4.31-.653-.031-.007c-2.04.145-5.256 2.274-7.172 3.548a70.337 70.337 0 0 0-12.669-.507z" class="cls-1" transform="translate(-741.773 -1232.259)"/>
            <path id="패스_625" d="M824.433 1386.023c-6.063-1.685-6.685-1.979-14.375-5.41-3.577-2.508-3.67-2.6-8.541-7.684l-.007-.005c-5.2-2.6-5.718-2.969-11.96-7.447-3.3-3.787-3.379-3.919-7.536-10.741v-.007c-4.17-3.288-4.539-3.709-9.152-8.881-2.723-4.987-2.845-5.308-5.8-13.563v-.011c-2.955-3.751-3.2-4.2-5.979-9.735-.979-3.463-2.018-8.152-2.733-11.684l-.578-4.45c-1.308-3.1-1.323-3.213-2.347-8.691l.754 5.754c.243 1.447.8 3.328 1.169 4.746.694 3.6 1.846 8.33 2.832 11.92l-.075-.205.123.41 1.7 4.812.073.177a83.035 83.035 0 0 0 4.459 8.266 55.4 55.4 0 0 0 4.953 10.306l-.412-.549 1.884 3.072.018.013v.007c2.728 3.855 3.028 4.148 8.224 9.2a44.378 44.378 0 0 0 6.224 8l-.457-.4 2.219 2.267.007.009v.009c3.959 3.484 4.365 3.736 11.146 7.961a34.208 34.208 0 0 0 7.079 5.657l-.64-.347 1.658 1.039.007.009h.011l1.868 1.074c4.138 2.267 4.3 2.338 12.518 5.428l3.985 1.177-2.309-1.5z" class="cls-1" transform="translate(-755.424 -1178.933)"/>
        </g>
    </g>
</svg>
