<svg xmlns="http://www.w3.org/2000/svg" id="그룹_371" width="215" height="215.224" viewBox="0 0 215 215.224">
    <defs>
        <style>
            .cls-1{fill:#5a32de}
        </style>
    </defs>
    <g id="그룹_293">
        <path id="패스_752" d="M1681.074 1233.067l-.326.016c-2.271.254-5.332.534-7.592.867-.1.009-.163.009-.2.016l2.8-.375c2.88-.276 6.734-.622 9.628-.759l-4.313.234z" class="cls-1" transform="translate(-1581.62 -1232.775)"/>
        <path id="패스_753" d="M1683.426 1233.328c-.922.037-1.859.06-2.8.093a3 3 0 0 1-.09-.485 7.622 7.622 0 0 0-.783-.1c2.895.084 2.895.084 3.674.494z" class="cls-1" transform="translate(-1575.985 -1232.775)"/>
        <path id="패스_754" d="M1682.621 1232.826l.229.009c1.4.121 3.281.187 4.657.4-.3 0-.608.013-.941.026-.17 0-.342.011-.527.011a23.452 23.452 0 0 0-6.287-.417l2.869-.033z" class="cls-1" transform="translate(-1575.985 -1232.801)"/>
        <path id="패스_755" d="M1679.638 1232.858l.208-.025-.208.025z" class="cls-1" transform="translate(-1576.079 -1232.775)"/>
        <path id="패스_756" d="M1670.183 1234.327l.115-.025 4.749-.824.032-.012-4.9.861z" class="cls-1" transform="translate(-1583.925 -1232.25)"/>
        <path id="패스_757" d="M1628.143 1289.486l.836-1.8c4.67-8.907 4.67-8.907 8.272-14.389l3.607-4.966c4.874-5.818 13.926-16.647 35.016-27.644-6 4.854-6.355 5.146-9.317 8.562-17.165 11.566-29.576 22.339-38.414 40.24z" class="cls-1" transform="translate(-1618.808 -1226.26)"/>
        <path id="패스_758" d="M1637.606 1268.775l.165-.805c-5.26 8.514-5.557 9.03-8.106 14.435l-.094.873c-1.006 2.468-2.408 5.751-3.3 8.26-.655.058-1.125.1-1.4.143l.483-1.436c-.093.011-.183.022-.251.035 3.164-8.413 6.172-16.353 19.033-30.469-2 2.666-4.646 6.219-6.529 8.966z" class="cls-1" transform="translate(-1621.525 -1210.391)"/>
        <path id="패스_759" d="M1644.223 1256.172l2.179-1.768c8.878-6.439 8.878-6.439 13.787-9.227l5.283-2.765c9.063-4.106 11.758-5.151 22.442-7.972-8.558 2.507-9.066 2.673-13.793 4.774-8.765 3.614-17.809 7.35-29.9 16.958z" class="cls-1" transform="translate(-1605.466 -1231.442)"/>
        <path id="패스_760" d="M1667.672 1258.088l.344.893c-4.018.15-7.874.311-11.476.446-.181-10.413 3.945-22.817 37.84-26.343l.326-.016 4.313-.234c-9.43.587-38.14 2.362-29.362 25.176-.668.024-1.319.042-1.984.079z" class="cls-1" transform="translate(-1595.251 -1232.775)"/>
        <path id="패스_761" d="M1677.563 1238.661a11.325 11.325 0 0 1-1.01-3.175 1.93 1.93 0 0 1 .525-1.14c.964-1.168 2.776-1.3 5.328-1.513a3.022 3.022 0 0 0-1.586.666 5.218 5.218 0 0 0 .439 1.079c-1.883 2.124-1.883 2.124-3.7 4.082z" class="cls-1" transform="translate(-1578.64 -1232.775)"/>
        <path id="패스_762" d="M1671.1 1253.008c-2.673-5.281-9.788-19.3 18.166-20.175-6.15.439-16.407 1.171-10.525 11.923-4.024 4.324-4.99 5.345-7.641 8.252z" class="cls-1" transform="translate(-1585.498 -1232.775)"/>
        <path id="패스_763" d="M1651.795 1254.969l-.275.919c-.814.031-1.6.066-2.355.115-.644.022-1.259.051-1.833.077l3.3-4.4c5.253-5.495 5.46-5.714 9.317-8.562 2.608-1.7 6.128-3.875 8.858-5.358-7.462 4.474-12.576 8.086-15.624 17.14-.461.038-.933.049-1.391.073z" class="cls-1" transform="translate(-1602.886 -1228.69)"/>
        <path id="패스_764" d="M1671.959 1274.464c-2.823-7.023-2.985-7.447-4.084-11.268 21.732-18.332 30.749-26.724 25.966-30.052.926-.035 1.824-.058 2.695-.077 12.779 4.035 3.213 15.5-24.577 41.4z" class="cls-1" transform="translate(-1585.84 -1232.581)"/>
        <path id="패스_765" d="M1707.761 1303.651c-6.565.205-13.255.426-19.966.651l1.286-1.46c-1.1.035-2.2.082-3.316.108 28.1-31.7 40.333-50.3 29.176-63.932a148.275 148.275 0 0 1 13.644 7.85c7.1 14.71 2.238 27.983-20.825 56.783z" class="cls-1" transform="translate(-1570.995 -1227.643)"/>
        <path id="패스_766" d="M1724.2 1265.542l-.944-.785c-.205 8.357-.214 8.675-1.076 14.064l.918.851c-.507 2.436-1.1 5.711-1.713 8.132q-3.763.1-7.859.214l-1.275.035.975-1.435c-1.006.035-2.018.06-3.026.093 7-10.611 11.383-17.911 13.2-29.8.3 2.58.686 6.022.8 8.627z" class="cls-1" transform="translate(-1550.718 -1212.794)"/>
        <path id="패스_767" d="M1680.747 1300.623c-4.785-8.294-5.288-9.165-7.743-13.793 23.247-23.35 45.212-45.4 26.938-53.111a98.111 98.111 0 0 1 12.51 3.863c12.986 11.535 1.286 28.038-31.7 63.041z" class="cls-1" transform="translate(-1581.584 -1232.04)"/>
        <path id="패스_768" d="M1674.8 1242.987c5.839-6.276 7.365-7.926 8.816-9.767.573-.022 1.147-.047 1.72-.066-.644 1.8-2.181 3.383-10.536 9.833z" class="cls-1" transform="translate(-1580.097 -1232.509)"/>
        <path id="패스_769" d="M1749.1 1255.177l1.136.885a7.628 7.628 0 0 0-1.437-.06c-28.665-18.644-53.63-22.523-65.954-23.178l-.229-.009-2.869.033c37.06-.172 62.9 17.522 67.7 21.066l1.665 1.263z" class="cls-1" transform="translate(-1575.985 -1232.79)"/>
        <path id="패스_770" d="M1679.752 1232.838a117.343 117.343 0 0 1 19.344 1.081c4.478.825 10.423 2.1 14.825 3.244 3.694 1.251 8.631 2.972 12.254 4.45-16.589-6.585-29.179-8.958-46.423-8.776z" class="cls-1" transform="translate(-1575.985 -1232.78)"/>
        <path id="패스_771" d="M1728.16 1252.174l1.424.873c-1.045.024-2.216.048-3.479.071l-6.067-4.106c-8.291-5.061-8.616-5.27-13.644-7.85-3.074-1.473-7.18-3.391-10.326-4.73a181.759 181.759 0 0 1 33.069 15.729c-.322 0-.644.013-.977.013z" class="cls-1" transform="translate(-1562.447 -1229.788)"/>
        <path id="패스_772" d="M1625.83 1277.878c-.7 2.587-1.629 6.045-2.119 8.68.618-3 1.387-7.045 2.141-10.029.015-.022.071-.035.21-.053.068-.013.157-.024.251-.035l-.483 1.436z" class="cls-1" transform="translate(-1622.486 -1196.59)"/>
        <path id="패스_773" d="M1649.545 1360.214c-2.124-2.384-5-5.564-7.01-8.056-2.465-3.405-5.692-8-7.93-11.551-4.348-8.2-10.924-20.609-5.7-41.861 3.749 9.583 3.9 9.952 6.909 15.581-2.827 16.6-1.451 28.826 13.731 45.889z" class="cls-1" transform="translate(-1619.776 -1178.083)"/>
        <path id="패스_774" d="M1641.246 1333.4l-.79-.7c4.838 7.078 5.024 7.359 8.627 11.2l.8.6c1.7 1.614 3.929 3.8 5.714 5.323-.425.037-.736.072-.918.1l-1.054-.871c-.071 0-.139.009-.161.009-7.623-6.8-12.876-12.139-16.488-23.857 1.228 2.492 2.858 5.808 4.267 8.207z" class="cls-1" transform="translate(-1611.476 -1156.14)"/>
        <path id="패스_775" d="M1627.911 1332.96c-.964-3.508-2.258-8.177-3.016-11.747-.629-4.018-1.424-9.387-1.813-13.423-.128-8.238-.23-14.742 4.176-26.5.082 9.445.091 10.011.975 15.935-3.477 13.268-4.282 21.16-.322 35.732z" class="cls-1" transform="translate(-1623.042 -1192.565)"/>
        <path id="패스_776" d="M1679.619 1346.552l1.478 1.354c-5.947.227-11.61.458-16.911.664-27.69-27.152-37.982-46.494-36.7-68.993l.094-.873c4.532-8.929 4.7-9.273 8.106-14.435l-.165.805c-1.125 10.326-3.764 34.491 47.045 81.361-.986.037-1.972.07-2.948.117z" class="cls-1" transform="translate(-1619.44 -1206.69)"/>
        <path id="패스_777" d="M1693.211 1320.169c-27.639-28.162-48.385-51.325-43.232-71.875l.275-.919c.457-.024.93-.035 1.391-.073 2.867-.121 6.055-.26 9.5-.4 1.718 16.313 13.88 30.78 40.5 57.019-4.748 9.056-5.734 10.942-8.433 16.243z" class="cls-1" transform="translate(-1601.344 -1221.097)"/>
        <path id="패스_778" d="M1662.965 1247.674l-.344-.893c.664-.037 1.316-.055 1.983-.079 2.088-.082 4.21-.159 6.4-.244.357 1.685.794 3.945 1.226 5.625a85.577 85.577 0 0 0 4.084 11.268c1.116 2.422 2.594 5.643 3.775 8.027-6.3-6.917-13.449-14.759-17.128-23.7z" class="cls-1" transform="translate(-1590.2 -1221.469)"/>
        <path id="패스_779" d="M1688.308 1349.656c-50.829-48.7-54.293-70.614-50.461-87.044 6.929-7.482 7.2-7.767 11.818-11.945-6.269 20.854 5.347 41.741 45.943 82.724-4.41 9.542-4.97 10.753-7.3 16.265z" class="cls-1" transform="translate(-1611.691 -1217.976)"/>
        <path id="패스_780" d="M1645.3 1325.066l1.272 1.363c-1.2.05-2.359.11-3.473.148-.944.049-1.848.1-2.695.145l-3.923-6.73c-4.607-9.255-4.882-9.808-6.909-15.581-1.125-3.725-2.536-8.711-3.4-12.5 4.51 11.582 8.077 18.625 21.214 33.049-.712.037-1.413.066-2.088.1z" class="cls-1" transform="translate(-1620.442 -1183.75)"/>
        <path id="패스_781" d="M1749.031 1274.582c-21.928 30.755-49.943 56.316-73.169 85.941-5.55-7.546-6.7-9.118-9.981-13.729 19.688-25.213 42.041-48.156 62.186-72.988 6.476-.2 12.82-.393 18.913-.565 1.008-.033 2.02-.059 3.027-.093l-.975 1.435z" class="cls-1" transform="translate(-1587.495 -1199.324)"/>
        <path id="패스_782" d="M1700.542 1371.305c-4.271.133-8.627.269-12.991.417l.986-.939c-.732.02-1.469.044-2.2.066 17.646-16.88 36.731-32.206 53.948-49.545a165.962 165.962 0 0 0 21.185-26.045c2.673 9.6 2.824 10.173 3.693 15.822-24.349 32.332-64.371 60.124-64.62 60.223z" class="cls-1" transform="translate(-1570.522 -1180.975)"/>
        <path id="패스_783" d="M1727.28 1330.8l-.135-.726c-7.14 7.507-7.266 7.656-11.694 11.829l.079.633c-1.9 1.72-4.452 4.038-6.4 5.725-1.629.046-3.327.1-5.114.136l-.829.037 1.387-.963c-.664.024-1.339.031-2.009.055 13.449-9.513 20.881-15.119 32.174-25.276-2.212 2.58-5.16 6.026-7.458 8.551z" class="cls-1" transform="translate(-1557.057 -1158.58)"/>
        <path id="패스_784" d="M1684.057 1380.62c-4.628-6.5-4.628-6.5-8.055-11.18 25.849-31.031 58.128-56.5 79.309-91.582 5.435 9.238 5.875 9.99 8.631 15.8-21.244 33.94-53.929 57.372-79.885 86.961z" class="cls-1" transform="translate(-1579.097 -1195.414)"/>
        <path id="패스_785" d="M1700.971 1275.359c-23.75 26.53-23.75 26.53-31.084 35.166 6.483-13.409 7.7-15.789 18.466-36.151 3.519-.119 7.068-.245 10.589-.368 1.111-.026 2.212-.073 3.316-.108l-1.286 1.46z" class="cls-1" transform="translate(-1584.171 -1198.7)"/>
        <path id="패스_786" d="M1756.637 1344.69l-.368 1.447a12.894 12.894 0 0 0-2.117-.093c.607-24.636-9.956-44.9-36.484-69.93l-.918-.851c1.076-8.622 1.147-9.138 1.076-14.064l.944.785c13.214 11.564 48.3 42.268 38.07 82.065l-.172.664a.121.121 0 0 0-.031-.024z" class="cls-1" transform="translate(-1545.285 -1209.237)"/>
        <path id="패스_787" d="M1715.03 1245.933l-1.423-.873c.333 0 .655-.013.977-.013 1.883-.027 3.352-.041 4.421-.041 7.189 5.056 12.862 9.047 20.206 17.882l.743.931c5.839 8.046 5.839 8.046 9.213 13.791l3.239 6.186c-4.168-7.689-11.912-22-37.375-37.865z" class="cls-1" transform="translate(-1547.893 -1222.673)"/>
        <path id="패스_788" d="M1718.791 1245.921l-1.137-.885h.011l1.144.9-.018-.012z" class="cls-1" transform="translate(-1544.535 -1222.649)"/>
        <path id="패스_789" d="M1718.463 1259.532c-2.194-7.008-2.32-7.424-4.41-11.293 11.751 8.034 39.289 26.85 45.969 56.033l.468 2.271c1.572 10.084 2.007 12.793 2.007 17.406l.025 6.185c-.254-8.492-.622-20.127-10.8-36.433-9.507-15.236-24.713-27.571-29.144-30.989-1.222-.955-3.22-1.894-4.114-3.18z" class="cls-1" transform="translate(-1547.523 -1219.992)"/>
        <path id="패스_790" d="M1738.838 1322.138l.262 1.422c-1.537.024-3.259.055-5.129.1l-.746-6.883c-1.79-9.511-1.859-9.89-3.693-15.822-1.332-3.8-3.169-8.836-4.706-12.562 7.438 11.094 12.53 19.438 15.467 33.717-.481.013-.964.013-1.455.026z" class="cls-1" transform="translate(-1538.584 -1186.671)"/>
        <path id="패스_791" d="M1647.271 1339.094c2.388 1.773 5.621 4.093 8.124 5.713l-4.5-2.917-4.983-3.6c-.026-.024.026-.031.139-.055.022 0 .09-.009.161-.009l1.054.871z" class="cls-1" transform="translate(-1604.066 -1145.326)"/>
        <path id="패스_792" d="M1697.867 1352.385c-10.785.046-19.322-.251-31.152-4.406 9.041 2.362 9.581 2.5 15.021 3.359 7.48 1.047 7.619 1.058 16.131 1.047z" class="cls-1" transform="translate(-1586.803 -1137.231)"/>
        <path id="패스_793" d="M1705.984 1358.247c-3.72-.194-8.723-.469-12.443-.873-11.127-1.881-11.127-1.881-16.684-3.513l-2.823-.871c-9.866-3.566-15.28-6.024-23.185-11.992 8.594 4.81 8.917 5.006 14.351 7.405 9.182 4.839 20.482 9.376 40.784 9.844z" class="cls-1" transform="translate(-1599.967 -1143.023)"/>
        <path id="패스_794" d="M1715.089 1367.3l.829.137c-.631.024-1.242.048-1.812.072a158.28 158.28 0 0 1-65.8-26.416l-.8-.6c-5.586-6.456-5.923-6.847-8.627-11.2l.79.7c35.444 28.729 75.374 37.208 75.763 37.28-.112.011-.229.011-.344.022z" class="cls-1" transform="translate(-1609.9 -1152.737)"/>
        <path id="패스_795" d="M1715.364 1371.951c-17.4-12.852-35.605-24.614-52.7-37.9a234.309 234.309 0 0 1-24.762-22.329l-1.272-1.363c.675-.035 1.376-.064 2.088-.1 4.3-.2 9.1-.392 14.265-.609 20.607 19.436 43.9 35.616 65.4 53.951-2.185 5.334-2.32 5.656-3.021 8.355z" class="cls-1" transform="translate(-1611.769 -1169.039)"/>
        <path id="패스_796" d="M1657.408 1310.812l-1.478-1.354c.975-.047 1.961-.081 2.948-.117 3.142-.126 6.355-.238 9.614-.368 1.7 2.433 3.923 5.683 5.647 8.093 5.875 8.172 5.875 8.172 9.981 13.729 1.823 2.494 4.267 5.809 6.1 8.3-21.11-17.864-24.92-21.1-32.815-28.285z" class="cls-1" transform="translate(-1595.752 -1169.597)"/>
        <path id="패스_797" d="M1718.848 1377.972c-8.627-3.38-53.125-21.6-81.732-49.074-2.362-8.183-2.511-8.675-3.153-14 21.295 22.294 40.619 33.757 82.98 58.871.735 2.895.756 3.063 1.9 4.2z" class="cls-1" transform="translate(-1613.979 -1164.679)"/>
        <path id="패스_798" d="M1692.93 1353.789l1.31.125c-.117 0-.242.009-.372.009-.093.015-.181.015-.274.026l-6.629-.783c-8.938-1.663-9.478-1.756-15.021-3.359-3.491-1.149-8.113-2.735-11.533-4.027a139.008 139.008 0 0 0 32.768 8c-.09 0-.157.013-.249.013z" class="cls-1" transform="translate(-1592.033 -1139.057)"/>
        <path id="패스_799" d="M1720.2 1337c-34.537 23.542-34.537 23.542-35.445 25.039.1.09.24.263.379.263l-1.043-.046c-6.24-1.667 2.029-9.308 22.936-25.785 4.3-.135 8.512-.262 12.55-.379.67-.024 1.345-.031 2.009-.055l-1.387.963z" class="cls-1" transform="translate(-1574.07 -1147.143)"/>
        <path id="패스_800" d="M1683.74 1353.3c6.287-.586 12.208-1.433 25.935-6.417-6.291 2.984-6.543 3.1-10.971 4.3a85.966 85.966 0 0 1-14.964 2.12z" class="cls-1" transform="translate(-1572.676 -1138.143)"/>
        <path id="패스_801" d="M1683.74 1359.832c3.546-.922 19.871-8.675 39.77-20.828-2.867 5.18-3.029 5.487-5.568 8.181-20.153 9.868-29.726 12.336-34.2 12.647z" class="cls-1" transform="translate(-1572.676 -1144.678)"/>
        <path id="패스_802" d="M1693.388 1337.474c-8.031 7.9-11.769 12.038-14.087 17.154.435-5.052 1.068-7.894 5.85-17.784 2.344-.084 4.682-.161 7.023-.243.732-.022 1.469-.046 2.2-.066l-.986.938z" class="cls-1" transform="translate(-1576.359 -1146.727)"/>
        <path id="패스_803" d="M1691.318 1369.052l-1.493.212s-.089-.006-.229-.006c25.909-4.556 37.589-14.175 36.694-30.271l-.079-.633c7.01-6.8 7.584-7.365 11.694-11.829l.135.726c3.01 29.551-27.975 38.873-46.723 41.812v-.011z" class="cls-1" transform="translate(-1567.817 -1155.033)"/>
        <path id="패스_804" d="M1738.923 1308.3l-.262-1.422c.49-.013.974-.013 1.455-.026 2.819-.035 5.039-.064 6.64-.064-.7 8.234-1.133 13.685-7.211 25.134-1.426 2.307-3.259 5.418-4.776 7.667-2.787 3.786-6.664 8.7-9.731 12.27 6.2-7.333 17.716-20.982 13.884-43.559z" class="cls-1" transform="translate(-1538.407 -1171.41)"/>
        <path id="패스_805" d="M1738.52 1308.276l.368-1.447.042.024-.758 2.664-.031.112.379-1.352z" class="cls-1" transform="translate(-1527.536 -1171.375)"/>
        <path id="패스_806" d="M1737.918 1326.01c6.108-8.316 6.6-9 9.892-14.325 2.231 10.126 6.836 31.219-22.4 51.987-2.481 1.559-5.751 3.7-8.309 5.16-4.267 2.2-10.1 4.926-14.528 6.794 10.536-4.373 42.628-17.681 35.342-49.616z" class="cls-1" transform="translate(-1557.047 -1167.346)"/>
        <path id="패스_807" d="M1690.618 1354.3l-1.263.212c-.159 0-.342 0-.549.013l5.692-1.211c7.09-2.269 7.365-2.357 10.971-4.3a79.092 79.092 0 0 0 6.629-4.706c-4.245 4.216-8.263 7.405-21.3 9.989z" class="cls-1" transform="translate(-1568.472 -1140.277)"/>
        <path id="패스_808" d="M1688.35 1350.617c-2.662-.025-6.2-.125-8.856-.3l-1.31-.125c.092 0 .159-.013.249-.013.529-.024 1.105-.048 1.738-.072 5.678.553 5.793.564 8.179.507z" class="cls-1" transform="translate(-1577.286 -1135.462)"/>
        <path id="패스_809" d="M1686.4 1350.688c-1.526-.068-3.533-.251-5.046-.459l-.829-.137c.115-.011.232-.011.344-.022.393-.013.783-.024 1.171-.046.99.2 2.305.514 3.317.619l1.043.046z" class="cls-1" transform="translate(-1575.34 -1135.534)"/>
        <path id="패스_810" d="M1684.947 1350.387l-2.662.046 2.662-.046z" class="cls-1" transform="translate(-1573.883 -1135.233)"/>
        <path id="패스_811" d="M1683.74 1350.907c2.948-.2 6.884-.542 9.82-.922l1.262-.212h.185c.344-.013.607-.013.8-.013-7.87 1-7.87 1-12.069 1.147z" class="cls-1" transform="translate(-1572.676 -1135.753)"/>
        <path id="패스_812" d="M1683.74 1350.9c3.281-.2 7.663-.554 10.944-.922l1.493-.212v.011h-.026c-3.716.41-8.695.926-12.411 1.123z" class="cls-1" transform="translate(-1572.676 -1135.747)"/>
        <path id="패스_813" d="M1683.74 1350.449l2.434-.138-2.434.138z" class="cls-1" transform="translate(-1572.676 -1135.295)"/>
    </g>
</svg>
