<svg xmlns="http://www.w3.org/2000/svg" width="215" height="214.724" viewBox="0 0 215 214.724">
    <defs>
        <style>
            .cls-1{isolation:isolate}.cls-2{fill:#fe573d}
        </style>
    </defs>
    <g id="그룹_366">
        <g id="그룹_232">
            <g id="그룹_231" class="cls-1">
                <g id="그룹_230" class="cls-1">
                    <g id="그룹_229">
                        <path id="패스_578" d="M619.3 1349.073a133.644 133.644 0 0 1-22.105 2.336h.057l-.09.009c8.974-.1 9.156-.1 17.494-1.338-.874.165-1.539.274-2.431.408 2.12-.408 4.969-.9 7.075-1.415l-.6.139c-.87.2-1.314.287-1.862.373.32-.093.32-.093 2.458-.512z" class="cls-2" transform="translate(-492.823 -1136.694)"/>
                        <path id="패스_579" d="M600.641 1349.724a82.709 82.709 0 0 0 18.454-.651c-8.674 1.033-11.918 1.415-21.685.258.97.117 2.257.3 3.231.393z" class="cls-2" transform="translate(-492.618 -1136.694)"/>
                        <path id="패스_580" d="M631.451 1358.666zm0 0l-.387-.353a3.252 3.252 0 0 0 .387.353zm-33.6-3.187l1.128.183c-.386-.064-.757-.133-1.139-.2l.011.015zm-14.992-16.763c-.13-.356-.265-.855-.38-1.232 2.842 8.571 5.613 12.969 15.35 17.973a215.17 215.17 0 0 0 30.642 3.2c-26.616-.652-42.308-10.79-45.612-19.943z" class="cls-2" transform="translate(-504.974 -1146.286)"/>
                        <path id="패스_581" d="M637.79 1354.723h2.416c-10.525.6-17.757-.413-32.907-3.076-10.724-1.882-16.732-2.639-17.814-1.292.74 2.013 7.479 3.708 10.717 4.529a87.071 87.071 0 0 1-15.838-5.251c.82.368 1.263.565 2.3 1.018a73.031 73.031 0 0 1-14.764-8.4l.1.04-.038-.026c7.974 2.887 16.226 5.872 34.617 9.251a215.182 215.182 0 0 0 30.642 3.2l.563.007z" class="cls-2" transform="translate(-513.729 -1142.343)"/>
                        <path id="패스_582" d="M631.38 1356.275v-.011l-.846-.464.018.014c.27.157.545.3.828.461zm6.342 14.667c-4.416-2.813-7.252-5.355-6.36-14.657-9.385-5.065-12.68-6.693-31.263-15.734l1.831.963c9.253 5.287 14.732 10.209 23.542 19.238 5.322 5.435 8.074 8.045 12.251 10.191zm-38.793-30.98v-.022c-21.458-10.516-28.114-14.19-37.263-19.536v.035l-.1-.06c.188 8.835.188 9.01 2.215 16.852-.192-.768-.382-1.535-.581-2.3 2.438 7.457 2.531 7.745 6.214 13.768-7.427-13.314 7.194-16.153 20.541-12.262a62 62 0 0 1 8.959 3.513s.007 0 .018.011z" class="cls-2" transform="translate(-522.286 -1160.443)"/>
                        <path id="패스_583" d="M635.307 1368.336c.068-.082.15-.2.214-.29a34.4 34.4 0 0 0-3.977 6.636l-.007-.011v.018c-2.341-2.734-4.361-5.1-17.09-12.272-9.385-5.064-12.68-6.693-31.263-15.734L582 1346.1l.011-.011v-.022c1-8 1.851-14.9 10.577-33.1-14.056 33.721 27.007 58.769 40.911 52.954 4.386-1.831 8.255-5.761 10.822-8.359-3.116 3.494-6.338 7.118-9.016 10.774z" class="cls-2" transform="translate(-505.37 -1166.575)"/>
                        <path id="패스_584" d="M658.317 1359.49c10.516-10.553 12.168-12.309 15.838-16.235-11.022 11.061-28.206 20.807-47.447 4.383a.028.028 0 0 1-.024.011c8.948 8.314 14.731 14.086 19.528 24l.033-.022c5.565-5.618 5.565-5.618 12.719-12.786-.146.135-.347.336-.49.482a1.526 1.526 0 0 0-.157.161zm-65.577-37.6l.857.59c-.289-.2-.561-.4-.842-.6v.007zm24.324-37.576c.364-.629.885-1.438 1.277-2.049-17.088 25.828-18.89 28.527-25.569 39.586 14.692 10.273 22.737 16.078 33.029 24.958-17.026-16.692-20.625-42.392-8.738-62.5z" class="cls-2" transform="translate(-496.482 -1191.983)"/>
                        <path id="패스_585" d="M651.045 1341.82l-.024.018c-8.988 12.726-13.479 19.687-18.042 29.882 16.549-43.706-26.047-73.887-54.92-60.476-9.752 4.525-12.859 11.573-14.725 15.78a153.223 153.223 0 0 1 7.015-19.411c-.607 1.382-.786 1.751-1.449 3.085 3.869-8.767 4.682-10.588 10.37-21.407l.093.09.031-.053c10.79 8.1 10.79 8.1 37.717 26.718 14.692 10.273 22.737 16.078 33.029 24.958l.914.8-.007.015z" class="cls-2" transform="translate(-520.82 -1186.172)"/>
                        <path id="패스_586" d="M676.679 1315.286l.007-.022-.981-1.031.031.037c.3.338.625.674.943 1.016zm-27.44 36.271c20.062-26.005 20.433-26.5 27.425-36.249a276.229 276.229 0 0 0-34.681-30l1.87 1.55c18.912 17.333 21.078 43.333 5.386 64.7zm-8.48-67.176l.009-.027c-12.956-9.235-16.765-11.741-37.348-25l-.033.042-.082-.064c-7.524 9.981-7.524 9.981-13.353 17.924.857-1.022 1.378-1.692 2.153-2.752-5.28 7.314-7.272 10.052-12.976 18.487 15.652-19.318 40.979-22.867 61.608-8.614.011-.007.011 0 .011 0z" class="cls-2" transform="translate(-507.747 -1210.965)"/>
                        <path id="패스_587" d="M680.131 1337.163c.086-.141.2-.314.283-.453a155.616 155.616 0 0 1-10.3 14.482l-.007-.005-.029.037c-3.52-9.06-6.3-16.224-21.317-32.433a276.22 276.22 0 0 0-34.681-30l-1.246-.9.022-.026.009-.027c11.066-16.978 14.65-23.1 19.144-32.709-13.738 36.114 24.962 86.63 48.025 75.251 5.138-2.535 7.336-7.525 8.647-10.509a98.668 98.668 0 0 1-8.553 17.295z" class="cls-2" transform="translate(-479.849 -1214.447)"/>
                        <path id="패스_588" d="M682.929 1305.566l-.808-2.857-1.1-3.262-.554-1.528.007.029c.221.686.621 1.959-1.142 1.027-2.491-1.331-8-6.439-16.367-15.195l-.007.014c10.595 11.962 15.871 19.479 21.078 35.111v-.044l.015.011c.033-7.486.033-7.936-1.292-13.947.038.139.1.336.124.479-.024-.049.029.115.044.161zm-54.873-48.222l1.243.7c-.415-.243-.821-.479-1.243-.707v.011zm-5.048-17.909c-.245-.218-.57-.5-.81-.709 5.18 5.346 7.142 9.12 5.865 18.587 10.152 6.02 20.658 12.247 33.941 25.464-7.8-8.306-12.815-14.063-21.837-24.627-6.461-7.559-12.04-14.091-17.16-18.715z" class="cls-2" transform="translate(-472.101 -1228.02)"/>
                        <path id="패스_589" d="M682.416 1283.122v.026c-.992 7.692-1.935 14.959-11.591 32.621 19.051-39.265-30.624-75.339-59.9-64.263a31.432 31.432 0 0 0-12.238 8.745c3.763-5.4 4.891-7.038 7.928-12.086a14.352 14.352 0 0 1-1.131 1.7 55.608 55.608 0 0 0 5.07-10.348l.1.027v-.02a289.758 289.758 0 0 1 36.86 17.134c10.152 6.02 20.658 12.247 33.941 25.464l.956.985v.015z" class="cls-2" transform="translate(-491.557 -1227.365)"/>
                        <path id="패스_590" d="M680.769 1276.917c-2.012-5.841-3.462-10.063-11.116-17.178-3.138-2.555-7.375-5.9-10.67-8.259l-4.907-3.145a109.543 109.543 0 0 0-20.373-9.389l1.828.647c26.2 9.816 41.818 26.229 45.237 37.324zm-48.207-38.356c-12.768-3.807-18.2-4.8-30.626-5.635l-2.493-.055c4.62.4 4.894.415 7.53 1.475a5.853 5.853 0 0 0-.9-.407c2.966 1.513 3.078 1.575 4.317 3.88-.322-2.3.11-3.315 3.533-3.2 2.115.072 8.157.6 18.644 3.944z" class="cls-2" transform="translate(-490.935 -1232.868)"/>
                        <path id="패스_591" d="M621.15 1237.2l-1.128-.378-.015-.008c-1.619-.57-3.758-1.342-5.4-1.824l1.007.287c9.438 3.079 10.01 3.266 16.116 6.078 2.97 1.525 6.912 3.555 9.789 5.237a107.031 107.031 0 0 0-20.373-9.389z" class="cls-2" transform="translate(-478.382 -1231.118)"/>
                        <path id="패스_592" d="M609.646 1351.013a5.451 5.451 0 0 0 .572-2.592 4.294 4.294 0 0 0-.875-1.681l-.007-.011v.018a7.61 7.61 0 0 0-.506 1.846 4.427 4.427 0 0 0 .43 2.067l.387.353z" class="cls-2" transform="translate(-483.169 -1138.634)"/>
                        <path id="패스_593" d="M617.5 1347.328a78 78 0 0 1-8.228 4.315c2.4-1.188 5.381-2.674 10.595-5.675-.706.405-1.66.952-2.367 1.36z" class="cls-2" transform="translate(-482.798 -1139.264)"/>
                        <path id="패스_594" d="M631.116 1351.783l-.289.389c.1-.131.192-.258.3-.4l-.007.007zm28-19.929c.439-.367 1.04-.857 1.482-1.228a294.669 294.669 0 0 1-29.441 21.138c-3.579 4.013-7.612 8.561-21.729 12.508 16.3-4.416 20.753-8.146 49.688-32.419z" class="cls-2" transform="translate(-482.674 -1151.961)"/>
                        <path id="패스_595" d="M609.275 1363.9c20.9-6.5 26.384-16.038 22.279-18.858-3.3-2.259-12.837.21-18.748 8.146 2-2.614 4.288-5.565 8.944-10.681 4.759-5.123 5.373-5.776 10.777-11.319l.033-.022c2.88 8.107 3.376 12.932-1.285 20.153-3.579 4.013-7.612 8.561-21.729 12.508l-.272.068z" class="cls-2" transform="translate(-482.798 -1151.516)"/>
                        <path id="패스_596" d="M647.574 1364.432l.011-.011.839-.694-.027.024c-.276.229-.543.46-.823.682zm-31.015 14.857c10.284-3.836 18.532-7.157 30.984-14.839 7.857-6.921 13.81-12.757 18.857-24.77l-.671 1.515c-3.692 7.466-15.917 26.117-49.17 38.093zm50.2-40.542l.022-.029c3.251-10.787 4.059-17.823.254-31.026l-.007-.005-.029.036c-5.79 7-6.532 7.9-12.561 14.5-6.711 7.064-7.1 7.481-15.838 16.235 13.6-13.583 29-16.827 29.4-6.2a18.914 18.914 0 0 1-1.239 6.49v.007z" class="cls-2" transform="translate(-476.769 -1170.947)"/>
                        <path id="패스_597" d="M616.707 1378.527c8.61-2.877 17.505-5.854 30.713-16.067 6.3-5.547 13.413-11.832 18.858-24.77l.353-.925.011-.009.022-.029c8.464-8.767 13.992-14.939 19.464-26.636-17.521 38.861-41.445 54.721-51.669 61.5.09-.027.229-.057.329-.079l-2.628 1.345a81.854 81.854 0 0 1-15.453 5.666z" class="cls-2" transform="translate(-476.647 -1168.956)"/>
                        <g id="그룹_228" transform="translate(181.739 90.842)">
                            <path id="패스_598" d="M663.912 1310.949c.61-8.228-1.786-10.56-6.561-6.388-1.5 1.333-4.076 4.12-7.692 9.886a99.448 99.448 0 0 0 8.553-17.295c2.316-7.7 2.46-8.161 3.1-14.535v-.044l.015.011c2.071 8.363 3.873 15.584 2.652 28.036l-.271 2.31c.057-.594.168-1.382.2-1.981z" class="cls-2" transform="translate(-631.115 -1282.573)"/>
                            <path id="패스_599" d="M639.512 1336.61a66.224 66.224 0 0 0 5.2-5.132l-.842.914c-1.292 1.277-3 3-4.357 4.218z" class="cls-2" transform="translate(-639.512 -1242.098)"/>
                        </g>
                        <path id="패스_600" d="M655.251 1274.589c-.06-.252-.179-.6-.265-.853l.808 2.856c-.19-.824-.4-1.539-.543-2z" class="cls-2" transform="translate(-444.966 -1199.046)"/>
                        <path id="패스_601" d="M565.44 1249.758a110.708 110.708 0 0 1 16.445-10.419 105.958 105.958 0 0 0-14.831 9.187c-2.047 1.625-4.812 3.752-6.79 5.455 1.745-1.425 4.034-3.359 5.828-4.715-.218.163-.439.324-.652.492z" class="cls-2" transform="translate(-523.361 -1227.513)"/>
                        <path id="패스_602" d="M612.752 1349.073l-.192.079c-1.789.674-2.314.861-3.677 1.289h.007c1.168-.4 2.716-.925 3.862-1.367zm0 0c-2.131.442-4.947 1.067-7.075 1.415a70.511 70.511 0 0 0 7.075-1.415zm-7.349 2.164c.9-.176 2.105-.4 2.992-.64a20.008 20.008 0 0 1-3.321.669c.1-.007.228-.015.329-.029z" class="cls-2" transform="translate(-486.275 -1136.694)"/>
                        <path id="패스_603" d="M608.734 1350.444h.015c1.161-.386 2.738-.863 3.854-1.367a14.488 14.488 0 0 1-5.386 1.932l-.225.029c-.514.064-1.221.139-1.738.2.9-.176 2.105-.4 2.992-.64l.477-.154z" class="cls-2" transform="translate(-486.126 -1136.694)"/>
                        <path id="패스_604" d="M594.559 1351.539c8.888 1.667 9.06 1.7 17.9 2.175h.057l-.09.009a84.624 84.624 0 0 1-13.393-.844l-5.4-.989c.046.013.124.013.185.028-4.929-2.146-10.191-3.4-15.094-5.629 6.486 2.645 9.442 3.856 15.838 5.251z" class="cls-2" transform="translate(-508.085 -1138.999)"/>
                        <path id="패스_605" d="M572.509 1342.109c-3.948-6.682-4.1-6.943-6.214-13.768 1.945 7.51 4.9 18.854-3.419 14.064a26.9 26.9 0 0 1-5.055-4l.068.064c5.4 4.734 10.492 9.206 25.669 15.288l.1.04-.038-.026c-4.951-4.205-7.68-6.525-11.114-11.662z" class="cls-2" transform="translate(-525.383 -1153.852)"/>
                        <path id="패스_606" d="M550.585 1319.884v-.024l-.66-.843.018.022c.21.278.424.567.641.844zm10.827 35.15c-6.8-11.52-9.966-19.325-10.827-35.132-4.836-6.847-9.831-13.925-10.509-27.678l.051 1.584c1.192 18.344 9.944 43.527 21.285 61.225z" class="cls-2" transform="translate(-540.069 -1183.744)"/>
                        <path id="패스_607" d="M582.586 1342.187c-2.067 8.639-2.484 10.834-3.134 19.11v.035l-.1-.06c-11.741-7.393-19.53-12.687-28.761-23.777-4.622-6.525-9.831-13.925-10.509-27.678l-.007-.6v-.983c.5-9.58 1.022-19.494 9.653-37.265-18.123 38.483-2.747 80.33 19.775 73.211 3.69-1.166 13.036-5.585 20.1-21.4a163.389 163.389 0 0 0-7.015 19.411z" class="cls-2" transform="translate(-540.072 -1201.335)"/>
                        <path id="패스_608" d="M602.806 1303.674c5.947-8.756 6.581-9.667 12.976-18.486-13.8 18.673-40.758 28.813-54.827 13.906l-.013.011c5.779 6.254 10.326 11.2 28.931 25.662l.093.089.031-.053c3.922-6.916 7.014-12.388 12.808-21.129zm-52.263-27.71l-.022.5c.015-.163.022-.334.022-.506v.011zm26.725-28.272c.453-.378 1.047-.881 1.5-1.266-11.668 10.011-18.5 16.648-28.195 29.5.342 6.89 1 11.649 9.727 22.372-10.273-14.587.757-36.5 16.97-50.6z" class="cls-2" transform="translate(-531.424 -1221.648)"/>
                        <path id="패스_609" d="M564.123 1294.538l-.013.018c-8.954 14.968-13.594 23.891-17.417 40.943 8.086-42.9 7-70.6 6.969-70.773-.143-.079-.322-.194-.457-.276a5.85 5.85 0 0 0-.651.748l1.91-2.785c2.453-3.213 5.823-7.442 8.486-10.49-3.7 4.441-8.76 10.531-9.209 19.453.292 5.958.559 11.1 9.727 22.372l.663.771-.007.02z" class="cls-2" transform="translate(-534.592 -1217.099)"/>
                        <path id="패스_610" d="M590.047 1259l.011-.014-.581-.517.009.015c.183.181.373.353.561.517zm-27.535 31.677a362.944 362.944 0 0 1 27.517-31.655c-5.36-5.022-8.855-8.689-8.667-13.691l-.124.662c-2.42 13.111-5.869 27.36-18.726 44.684zm18.925-45.731l.026-.016c1.27-3.553 2.427-5.183 9.615-8.265-4.461 1.767-4.922 1.952-7.874 3.326l-3.18 1.568a121.545 121.545 0 0 0-16.445 10.419 86.711 86.711 0 0 1 14.435-9.156c3.708-1.749 3.933-1.281 3.67.607-.053.4-.15.943-.247 1.513z" class="cls-2" transform="translate(-521.5 -1229.729)"/>
                        <path id="패스_611" d="M620.1 1264.374c-4.79 6.629-4.882 6.755-11.461 15.5l-.033.042-.082-.064c-15.694-10.176-20.491-13.561-27.029-19.078-4.565-4.273-8.873-8.31-8.667-13.691l.06-.375.015-.011.026-.016c6.45-4.3 13.775-9.175 22.445-12.148-18.161 6.232-23.527 22.756-9.416 28.975 12.21 5.382 34.815.91 42.07-11.223-2.517 4.116-4.026 6.61-7.928 12.086z" class="cls-2" transform="translate(-512.967 -1231.488)"/>
                        <path id="패스_612" d="M620.063 1237.332c-1.46-2.473-1.524-2.566-4.317-3.88 2.692 1.014 1.893 2.164.4 2.842-3.105 1.4-12.225 2.237-21.959-.422h-.007c10.109 2.992 16.5 5.269 25.437 8.665l.1.027v-.02c.782-3.264 1.206-5.055.347-7.212zm-32.312-2.988c1.018.1 1.7.216 5.914 1.375a29.085 29.085 0 0 1-3.75-1.4 3.953 3.953 0 0 0-.614-.236 6.457 6.457 0 0 0-1.55.259z" class="cls-2" transform="translate(-500.612 -1232.385)"/>
                        <path id="패스_613" d="M597.873 1235.464c-2.88 3.491-4.62 5.249-14.586 15.193 2.941-3.163 8.422-9.037 7.744-16.074-.037-.34-.048-.5.06-.575l.256-.049.1-.022c.956.086 1.524.172 5.914 1.375l.512.144v.005z" class="cls-2" transform="translate(-504.309 -1231.981)"/>
                        <path id="패스_614" d="M592.363 1233.552a2.6 2.6 0 0 0-.921-.194l-.225.037.1-.018c.777-.046.839.015 1.049.175z" class="cls-2" transform="translate(-497.743 -1232.463)"/>
                    </g>
                </g>
            </g>
        </g>
    </g>
</svg>
