<svg xmlns="http://www.w3.org/2000/svg" id="그룹_370" width="210.88" height="211.974" viewBox="0 0 210.88 211.974">
    <defs>
        <style>
            .cls-1{fill:#fe573d}
        </style>
    </defs>
    <g id="그룹_245" transform="translate(106.429 65.994)">
        <g id="그룹_244">
            <path id="패스_717" d="M1461.854 1299.418c7.385 4.881 13.731 2.409 14.177-5.532.428-7.678-4.782-17.641-11.759-22.678z" class="cls-1" transform="translate(-1461.854 -1271.208)"/>
        </g>
    </g>
    <g id="그룹_247" transform="translate(132.943 91.429)">
        <g id="그룹_246">
            <path id="패스_718" d="M1488.8 1313.685c6.4 4.232 11.9 2.088 12.281-4.788s-4.454-15.872-10.808-20.078-11.852-2.064-12.283 4.792 4.415 15.839 10.81 20.074z" class="cls-1" transform="translate(-1477.966 -1286.665)"/>
        </g>
    </g>
    <g id="그룹_249" transform="translate(169.354 115.518)">
        <g id="그룹_248">
            <path id="패스_719" d="M1510.923 1328.328c6.4 4.233 11.894 2.1 12.278-4.79s-4.45-15.87-10.8-20.081-11.85-2.064-12.277 4.792 4.402 15.845 10.799 20.079z" class="cls-1" transform="translate(-1500.093 -1301.303)"/>
        </g>
    </g>
    <g id="그룹_251" transform="translate(206.769 141.013)">
        <g id="그룹_250">
            <path id="패스_720" d="M1526.077 1316.8c-1.832 1.042-3.034 3.159-3.22 6.219a21.509 21.509 0 0 0 2.957 11.229z" class="cls-1" transform="translate(-1522.829 -1316.796)"/>
        </g>
    </g>
    <g id="그룹_253" transform="translate(119.413 36.059)">
        <g id="그룹_252">
            <path id="패스_721" d="M1480.572 1280.036c6.4 4.24 11.9 2.1 12.284-4.789s-4.453-15.873-10.8-20.078-11.853-2.06-12.281 4.792 4.404 15.839 10.797 20.075z" class="cls-1" transform="translate(-1469.744 -1253.017)"/>
        </g>
    </g>
    <g id="그룹_255" transform="translate(137.261 14.894)">
        <g id="그룹_254">
            <path id="패스_722" d="M1490.784 1254.567c4.168 2.761 7.96 2.816 10.2.607a6 6 0 0 0 .8-.989l-21.2-14.03c.175.647.421 1.223.655 1.871a26.428 26.428 0 0 0 9.545 12.541z" class="cls-1" transform="translate(-1480.59 -1240.155)"/>
        </g>
    </g>
    <g id="그룹_257" transform="translate(174.808 39.746)">
        <g id="그룹_256">
            <path id="패스_723" d="M1513.565 1269.646c4.723 3.122 8.948 2.773 11-.385l-21.157-14a26.523 26.523 0 0 0 10.157 14.385z" class="cls-1" transform="translate(-1503.407 -1255.257)"/>
        </g>
    </g>
    <g id="그룹_259" transform="translate(157.328 61.151)">
        <g id="그룹_258">
            <path id="패스_724" d="M1503.615 1295.287c6.4 4.24 11.9 2.093 12.286-4.792s-4.455-15.867-10.807-20.078-11.851-2.06-12.283 4.8 4.412 15.838 10.804 20.07z" class="cls-1" transform="translate(-1492.785 -1268.265)"/>
        </g>
    </g>
    <g id="그룹_261" transform="translate(195.499 86.414)">
        <g id="그룹_260">
            <path id="패스_725" d="M1526.812 1310.636a13.585 13.585 0 0 0 4.175 1.922l.375-24.282a21.7 21.7 0 0 0-3.071-2.5c-6.36-4.211-11.858-2.063-12.284 4.789s4.409 15.835 10.805 20.071z" class="cls-1" transform="translate(-1515.98 -1283.617)"/>
        </g>
    </g>
    <g id="그룹_263" transform="translate(114.119)">
        <g id="그룹_262">
            <path id="패스_726" d="M1466.527 1238.346c3.318.8 6.1-.142 7.728-2.569l-7.091-4.673z" class="cls-1" transform="translate(-1466.527 -1231.104)"/>
        </g>
    </g>
    <g id="그룹_265" transform="translate(135.622 140.986)">
        <g id="그룹_264">
            <path id="패스_727" d="M1500.308 1331.549a29.574 29.574 0 0 0-10.031-12.362c-4.181-2.77-8.083-3.053-10.683-1.349z" class="cls-1" transform="translate(-1479.594 -1316.779)"/>
        </g>
    </g>
    <g id="그룹_280">
        <g id="그룹_266" transform="translate(74.732 113.245)">
            <path id="패스_728" d="M1442.592 1318.257c.632-7.961 5.75-16 11.158-17.918s9.243 3 8.565 11z" class="cls-1" transform="translate(-1442.592 -1299.922)"/>
        </g>
        <g id="그룹_267" transform="translate(39.747 126.571)">
            <path id="패스_729" d="M1421.332 1325.621c.6-7.653 5.314-15.356 10.507-17.2s8.879 2.886 8.225 10.57z" class="cls-1" transform="translate(-1421.332 -1308.02)"/>
        </g>
        <g id="그룹_268" transform="translate(8.131 138.372)">
            <path id="패스_730" d="M1402.119 1332.154c.586-7.372 5.121-14.794 10.129-16.577s8.557 2.782 7.925 10.194z" class="cls-1" transform="translate(-1402.119 -1315.191)"/>
        </g>
        <g id="그룹_269" transform="translate(95.47 66.145)">
            <path id="패스_731" d="M1455.263 1289.62c.627-7.958 5.529-15.98 10.938-17.9a6.438 6.438 0 0 1 2.449-.415l-2.449 28.077a9.791 9.791 0 0 1-2.378 1.247c-5.355 1.883-9.194-3.044-8.56-11.009z" class="cls-1" transform="translate(-1455.194 -1271.3)"/>
        </g>
        <g id="그룹_270" transform="translate(60.265 80.426)">
            <path id="패스_732" d="M1433.865 1297.574c.6-7.644 5.309-15.35 10.509-17.195s8.878 2.886 8.226 10.574-5.358 15.388-10.507 17.2-8.833-2.927-8.228-10.579z" class="cls-1" transform="translate(-1433.8 -1279.978)"/>
        </g>
        <g id="그룹_271" transform="translate(28.421 92.574)">
            <path id="패스_733" d="M1414.51 1304.324c.584-7.37 5.121-14.794 10.135-16.578s8.555 2.783 7.92 10.194-5.16 14.833-10.122 16.571-8.507-2.811-7.933-10.187z" class="cls-1" transform="translate(-1414.449 -1287.36)"/>
        </g>
        <g id="그룹_272" transform="translate(0 106.26)">
            <path id="패스_734" d="M1401.06 1297.252a9.539 9.539 0 0 1 2.25-1.19c5.008-1.781 8.552 2.784 7.924 10.2s-5.162 14.83-10.125 16.572a5.3 5.3 0 0 1-3.93-.006z" class="cls-1" transform="translate(-1397.178 -1295.677)"/>
        </g>
        <g id="그룹_273" transform="translate(103.089)">
            <path id="패스_735" d="M1470.859 1238.333a10.747 10.747 0 0 1-3.373 2.022c-3.438 1.211-6.257-.393-7.662-3.806l11.667-5.445z" class="cls-1" transform="translate(-1459.824 -1231.104)"/>
        </g>
        <g id="그룹_274" transform="translate(66.613 14.455)">
            <path id="패스_736" d="M1454.9 1239.888c-1.72 5.916-5.529 11.065-9.62 12.5-3.53 1.238-6.377-.6-7.617-4.348z" class="cls-1" transform="translate(-1437.658 -1239.888)"/>
        </g>
        <g id="그룹_275" transform="translate(33.267 30.618)">
            <path id="패스_737" d="M1433.542 1249.71c-1.761 5.338-5.259 9.887-9.006 11.2-3.227 1.134-5.86-.4-7.142-3.652z" class="cls-1" transform="translate(-1417.394 -1249.71)"/>
        </g>
        <g id="그룹_276" transform="translate(12.026 45.617)">
            <path id="패스_738" d="M1405.557 1260.838l4.242-2.013a21.827 21.827 0 0 1-5.313 8.794z" class="cls-1" transform="translate(-1404.486 -1258.825)"/>
        </g>
        <g id="그룹_277" transform="translate(79.936 29.927)">
            <path id="패스_739" d="M1445.819 1266.96c.609-7.678 5.33-15.407 10.55-17.269s8.909 2.9 8.254 10.619-5.378 15.453-10.545 17.272-8.867-2.941-8.259-10.622z" class="cls-1" transform="translate(-1445.754 -1249.291)"/>
        </g>
        <g id="그룹_278" transform="translate(43.517 48.168)">
            <path id="패스_740" d="M1423.685 1277.352c.584-7.379 5.128-14.807 10.139-16.591s8.562 2.784 7.933 10.2-5.172 14.845-10.135 16.591-8.522-2.819-7.937-10.2z" class="cls-1" transform="translate(-1423.623 -1260.375)"/>
        </g>
        <g id="그룹_279" transform="translate(11.085 61.773)">
            <path id="패스_741" d="M1403.975 1285c.563-7.109 4.943-14.264 9.768-15.99s8.256 2.687 7.642 9.832-4.971 14.3-9.76 15.987-8.215-2.713-7.65-9.829z" class="cls-1" transform="translate(-1403.914 -1268.643)"/>
        </g>
    </g>
    <g id="그룹_291" transform="translate(8.175 124.659)">
        <g id="그룹_281" transform="translate(66.557)">
            <path id="패스_742" d="M1462.284 1306.858c7.352 4.841 8.9 10.308 3.451 12.213s-15.8-.462-23.143-5.292z" class="cls-1" transform="translate(-1442.592 -1306.858)"/>
        </g>
        <g id="그룹_282" transform="translate(31.572 12.882)">
            <path id="패스_743" d="M1440.063 1314.686c7.011 4.619 8.646 9.893 3.452 11.713s-15.187-.475-22.184-5.081z" class="cls-1" transform="translate(-1421.332 -1314.686)"/>
        </g>
        <g id="그룹_283" transform="translate(0 24.292)">
            <path id="패스_744" d="M1420.155 1321.62c6.673 4.39 7.925 9.424 2.987 11.151s-14.34-.418-21-4.8z" class="cls-1" transform="translate(-1402.146 -1321.62)"/>
        </g>
        <g id="그룹_284" transform="translate(142.608 48.634)">
            <path id="패스_745" d="M1492.048 1337.081c5.432-1.925 15.794.448 23.142 5.291s8.9 10.308 3.458 12.21-15.808-.459-23.144-5.291-8.883-10.291-3.456-12.21z" class="cls-1" transform="translate(-1488.808 -1336.412)"/>
        </g>
        <g id="그룹_285" transform="translate(105.741 60.5)">
            <path id="패스_746" d="M1469.5 1344.258c5.173-1.828 15.055.428 22.07 5.045s8.486 9.836 3.293 11.654-15.078-.443-22.072-5.052-8.472-9.819-3.291-11.647z" class="cls-1" transform="translate(-1466.404 -1343.623)"/>
        </g>
        <g id="그룹_286" transform="translate(71.404 70.231)">
            <path id="패스_747" d="M1448.481 1350.139c4.922-1.738 14.325.411 20.994 4.8s8.067 9.353 3.128 11.079-14.34-.415-21-4.8-8.049-9.336-3.122-11.079z" class="cls-1" transform="translate(-1445.537 -1349.537)"/>
        </g>
        <g id="그룹_287" transform="translate(114.743 16.872)">
            <path id="패스_748" d="M1475.118 1317.743c2.426-.854 5.794-.8 9.479-.1l20.403 13.503c.122 1.771-.974 3.291-3.288 4.1-5.442 1.9-15.811-.466-23.147-5.291s-8.877-10.297-3.447-12.212z" class="cls-1" transform="translate(-1471.874 -1317.111)"/>
        </g>
        <g id="그룹_288" transform="translate(79.852 30.011)">
            <path id="패스_749" d="M1453.764 1325.73c5.177-1.828 15.063.428 22.074 5.05s8.488 9.829 3.3 11.644-15.08-.444-22.08-5.045-8.471-9.819-3.294-11.649z" class="cls-1" transform="translate(-1450.671 -1325.095)"/>
        </g>
        <g id="그룹_289" transform="translate(48.484 41.708)">
            <path id="패스_750" d="M1434.552 1332.808c4.922-1.741 14.321.4 20.991 4.8s8.071 9.35 3.131 11.083-14.338-.421-20.991-4.8-8.057-9.347-3.131-11.083z" class="cls-1" transform="translate(-1431.609 -1332.204)"/>
        </g>
        <g id="그룹_290" transform="translate(18.768 53.658)">
            <path id="패스_751" d="M1415.611 1340c4.358-1.542 12.669.367 18.573 4.249s7.135 8.271 2.766 9.8a11.038 11.038 0 0 1-3.512.53l-19.888-13.2a4.3 4.3 0 0 1 2.061-1.379z" class="cls-1" transform="translate(-1413.551 -1339.465)"/>
        </g>
    </g>
</svg>
