<svg xmlns="http://www.w3.org/2000/svg" width="257.94" height="251.023" viewBox="0 0 257.94 251.023">
    <defs>
        <style>
            .cls-1{fill:#5a32de}
        </style>
    </defs>
    <g id="그룹_411" transform="translate(-372.976 -535.678)">
        <g id="그룹_391" transform="translate(442.93 637.685)">
            <g id="그룹_383" transform="translate(91.822 43.054)">
                <path id="패스_888" d="M503.493 677.968a3.733 3.733 0 0 1-3.87 1.131c-1.152-.48-1.27-1.779-.267-2.9l28.4-31.934a3.473 3.473 0 0 1 3.793-1.05c1.1.539 1.184 1.88.195 3z" class="cls-1" transform="translate(-459.867 -616.809)"/>
                <path id="패스_889" d="M527.619 644.329a3.384 3.384 0 0 1-3.758 1.007c-1.087-.546-1.162-1.9-.161-3.021l14.011-15.732 3.814 2.066z" class="cls-1" transform="translate(-445.378 -626.583)"/>
                <path id="패스_890" d="M479.359 705.1a4.091 4.091 0 0 1-3.977 1.266c-1.2-.413-1.374-1.668-.377-2.783l28.4-31.932a3.8 3.8 0 0 1 3.9-1.173c1.154.474 1.288 1.755.3 2.871z" class="cls-1" transform="translate(-474.356 -600.538)"/>
            </g>
            <g id="그룹_384" transform="translate(77.711 37.544)">
                <path id="패스_891" d="M485.715 686.236a3.916 3.916 0 0 1-3.946 1.222c-1.167-.45-1.3-1.752-.284-2.89l28.877-32.461a3.658 3.658 0 0 1 3.868-1.138c1.119.512 1.211 1.85.206 2.981z" class="cls-1" transform="translate(-456.404 -606.661)"/>
                <path id="패스_892" d="M510.252 658.567a3.574 3.574 0 0 1-3.839 1.106c-1.109-.527-1.189-1.877-.174-3.022l28.693-32.258a3.321 3.321 0 0 1 3.758-1.01c1.064.576 1.1 1.969.1 3.107z" class="cls-1" transform="translate(-441.675 -623.13)"/>
                <path id="패스_893" d="M465.513 696.228l14.475-16.281a4 4 0 0 1 3.98-1.253c1.179.445 1.321 1.727.314 2.858l-14.4 16.187z" class="cls-1" transform="translate(-465.513 -590.12)"/>
            </g>
            <g id="그룹_385" transform="translate(65.94 30.544)">
                <path id="패스_894" d="M488.119 671.818a3.813 3.813 0 0 1-3.933 1.211c-1.146-.482-1.24-1.822-.209-2.979l29.336-32.994a3.563 3.563 0 0 1 3.859-1.115c1.1.539 1.152 1.912.129 3.064z" class="cls-1" transform="translate(-443.169 -608.626)"/>
                <path id="패스_895" d="M513.052 637.069a3.472 3.472 0 0 1-3.822 1.092c-1.087-.552-1.136-1.939-.1-3.1l14.513-16.32 3.85 2.1z" class="cls-1" transform="translate(-428.202 -618.743)"/>
                <path id="패스_896" d="M463.178 699.866a4.171 4.171 0 0 1-4.034 1.331c-1.206-.415-1.35-1.693-.321-2.848l29.339-32.99a3.893 3.893 0 0 1 3.961-1.243c1.162.471 1.265 1.789.247 2.939z" class="cls-1" transform="translate(-458.136 -591.813)"/>
            </g>
            <g id="그룹_386" transform="translate(51.809 25.098)">
                <path id="패스_897" d="M470.009 680.463a3.972 3.972 0 0 1-4 1.293c-1.171-.452-1.277-1.776-.23-2.954l29.813-33.523a3.732 3.732 0 0 1 3.929-1.2c1.119.517 1.186 1.883.144 3.048z" class="cls-1" transform="translate(-439.883 -598.322)"/>
                <path id="패스_898" d="M495.349 651.89a3.657 3.657 0 0 1-3.9 1.17c-1.1-.527-1.162-1.905-.117-3.083l29.635-33.321c1.047-1.175 2.756-1.661 3.815-1.079 1.066.582 1.08 2 .041 3.174z" class="cls-1" transform="translate(-424.675 -615.331)"/>
                <path id="패스_899" d="M449.281 690.835l14.949-16.8a4.074 4.074 0 0 1 4.036-1.328c1.179.447 1.3 1.755.254 2.923l-14.87 16.719z" class="cls-1" transform="translate(-449.281 -581.238)"/>
            </g>
            <g id="그룹_387" transform="translate(40.055 18.065)">
                <path id="패스_900" d="M472.736 665.677a3.874 3.874 0 0 1-3.986 1.272c-1.146-.487-1.214-1.845-.147-3.035l30.276-34.056a3.64 3.64 0 0 1 3.914-1.191c1.1.543 1.127 1.947.072 3.136z" class="cls-1" transform="translate(-426.468 -600.476)"/>
                <path id="패스_901" d="M498.483 629.8c-1.063 1.19-2.8 1.711-3.886 1.159-1.084-.554-1.1-1.972-.042-3.163l15.021-16.877 3.815 2.1z" class="cls-1" transform="translate(-411.021 -610.923)"/>
                <path id="패스_902" d="M447 694.634a4.268 4.268 0 0 1-4.1 1.4c-1.206-.415-1.321-1.722-.258-2.919l30.284-34.055a3.981 3.981 0 0 1 4.02-1.3c1.157.474 1.241 1.821.176 3z" class="cls-1" transform="translate(-441.915 -583.121)"/>
            </g>
            <g id="그룹_388" transform="translate(25.91 12.657)">
                <path id="패스_903" d="M454.3 674.694a4.085 4.085 0 0 1-4.064 1.368c-1.167-.461-1.241-1.819-.166-3.032l30.753-34.58a3.813 3.813 0 0 1 3.989-1.272c1.122.512 1.157 1.909.085 3.116z" class="cls-1" transform="translate(-423.364 -589.985)"/>
                <path id="패스_904" d="M480.447 645.213c-1.072 1.2-2.845 1.754-3.956 1.23-1.112-.523-1.133-1.932-.056-3.152L507 608.918c1.077-1.214 2.816-1.723 3.878-1.146 1.063.579 1.05 2.031-.021 3.238z" class="cls-1" transform="translate(-407.678 -607.534)"/>
                <path id="패스_905" d="M433.051 685.448l15.415-17.338a4.173 4.173 0 0 1 4.1-1.4c1.179.448 1.269 1.789.2 2.992l-15.343 17.255z" class="cls-1" transform="translate(-433.051 -572.362)"/>
            </g>
            <g id="그룹_389" transform="translate(14.175 5.564)">
                <path id="패스_906" d="M457.363 659.534c-1.09 1.224-2.9 1.826-4.05 1.342-1.144-.485-1.182-1.875-.086-3.107l31.218-35.116c1.095-1.233 2.872-1.8 3.973-1.253 1.1.536 1.1 1.964.013 3.2z" class="cls-1" transform="translate(-409.772 -592.303)"/>
                <path id="패스_907" d="M483.912 622.556c-1.095 1.226-2.855 1.768-3.941 1.219-1.09-.549-1.079-2 .016-3.227l15.52-17.459 3.835 2.1z" class="cls-1" transform="translate(-393.847 -603.089)"/>
                <path id="패스_908" d="M430.819 689.4a4.343 4.343 0 0 1-4.159 1.462c-1.2-.417-1.291-1.75-.2-2.992l31.222-35.106c1.093-1.23 2.922-1.848 4.074-1.374 1.16.468 1.214 1.842.121 3.073z" class="cls-1" transform="translate(-425.697 -574.407)"/>
            </g>
            <g id="그룹_390">
                <path id="패스_909" d="M438.6 668.931c-1.107 1.243-2.954 1.881-4.123 1.43-1.176-.464-1.224-1.848-.105-3.1l31.69-35.639c1.107-1.253 2.925-1.851 4.045-1.34 1.119.511 1.13 1.936.026 3.182z" class="cls-1" transform="translate(-406.836 -581.435)"/>
                <path id="패스_910" d="M465.542 638.6c-1.1 1.246-2.9 1.832-4.008 1.312-1.117-.527-1.117-1.966 0-3.219l31.69-35.646c1.112-1.253 2.877-1.8 3.938-1.213 1.058.583 1.028 2.057-.081 3.3z" class="cls-1" transform="translate(-390.671 -599.602)"/>
                <path id="패스_911" d="M416.814 680.066l15.9-17.874c1.109-1.253 2.971-1.909 4.159-1.465 1.178.445 1.235 1.819.128 3.064l-15.807 17.78z" class="cls-1" transform="translate(-416.814 -563.27)"/>
            </g>
        </g>
        <g id="그룹_400" transform="translate(470.298 537.449)">
            <g id="그룹_392">
                <path id="패스_912" d="M467.408 580.149a14.168 14.168 0 0 0 3.385 2.962c1.109.654 1.4.386.637-.587l-21.58-27.872a14.983 14.983 0 0 0-3.417-3.008c-1.125-.677-1.423-.437-.669.539z" class="cls-1" transform="translate(-427.182 -528.166)"/>
                <path id="패스_913" d="M444.606 550.545a15.032 15.032 0 0 0 3.421 3.024c1.131.685 1.431.452.681-.527l-10.633-13.73-4.112-2.524z" class="cls-1" transform="translate(-433.964 -536.788)"/>
                <path id="패스_914" d="M485.947 604.106a13.3 13.3 0 0 0 3.353 2.906c1.087.619 1.361.33.6-.649L468.318 578.5a14.034 14.034 0 0 0-3.381-2.949c-1.106-.651-1.388-.38-.63.6z" class="cls-1" transform="translate(-416.141 -513.906)"/>
            </g>
            <g id="그룹_393" transform="translate(13.129 8.292)">
                <path id="패스_915" d="M482.395 594.218a13.784 13.784 0 0 0 3.359 2.92c1.1.643 1.388.376.637-.589l-21.42-27.608a14.521 14.521 0 0 0-3.4-2.966c-1.115-.664-1.409-.421-.657.546z" class="cls-1" transform="translate(-431.283 -527.915)"/>
                <path id="패스_916" d="M463.941 570.423a14.638 14.638 0 0 0 3.4 2.982c1.12.673 1.425.436.673-.533l-21.279-27.445a15.223 15.223 0 0 0-3.428-3.021l-.018-.016c-1.138-.7-1.436-.471-.681.5z" class="cls-1" transform="translate(-442.191 -541.984)"/>
                <path id="패스_917" d="M499.5 613.4l-16.2-20.847a13.93 13.93 0 0 0-3.353-2.9c-1.1-.635-1.383-.357-.627.614l16.344 21.033z" class="cls-1" transform="translate(-420.325 -513.79)"/>
            </g>
            <g id="그룹_394" transform="translate(24.436 15.019)">
                <path id="패스_918" d="M482.249 588.769a14.087 14.087 0 0 0 3.37 2.936c1.107.648 1.406.4.659-.555l-21.26-27.342a14.611 14.611 0 0 0-3.394-2.971c-1.123-.685-1.438-.455-.686.506z" class="cls-1" transform="translate(-442.574 -537.715)"/>
                <path id="패스_919" d="M459.817 559.754a14.973 14.973 0 0 0 3.4 2.992c1.13.686 1.444.468.7-.495l-10.494-13.489-4.141-2.563z" class="cls-1" transform="translate(-449.277 -546.2)"/>
                <path id="패스_920" d="M500.51 612.28a13.372 13.372 0 0 0 3.334 2.864c1.09.627 1.369.353.621-.608l-21.255-27.343a13.921 13.921 0 0 0-3.357-2.9c-1.112-.648-1.4-.4-.651.562z" class="cls-1" transform="translate(-431.698 -523.723)"/>
            </g>
            <g id="그룹_395" transform="translate(37.653 23.431)">
                <path id="패스_921" d="M497.123 602.661a13.977 13.977 0 0 0 3.338 2.885c1.107.64 1.4.389.659-.56l-21.1-27.075a14.443 14.443 0 0 0-3.37-2.933c-1.12-.667-1.427-.44-.681.517z" class="cls-1" transform="translate(-446.833 -537.696)"/>
                <path id="패스_922" d="M478.935 579.3a14.448 14.448 0 0 0 3.377 2.943c1.125.677 1.436.455.693-.5l-20.917-26.86a15.218 15.218 0 0 0-3.407-2.992c-1.143-.7-1.463-.5-.721.453z" class="cls-1" transform="translate(-457.56 -551.472)"/>
                <path id="패스_923" d="M513.445 620.806l-15.372-19.735a13.867 13.867 0 0 0-3.329-2.874c-1.1-.629-1.39-.37-.646.581l15.531 19.931z" class="cls-1" transform="translate(-436.038 -523.839)"/>
            </g>
            <g id="그룹_396" transform="translate(48.913 30.064)">
                <path id="패스_924" d="M497.094 597.4a14.193 14.193 0 0 0 3.35 2.9c1.109.654 1.412.423.685-.52l-20.941-26.807a14.917 14.917 0 0 0-3.373-2.943c-1.125-.683-1.444-.468-.707.477z" class="cls-1" transform="translate(-458.007 -547.29)"/>
                <path id="패스_925" d="M475.006 568.954a15.181 15.181 0 0 0 3.383 2.962c1.133.683 1.457.48.72-.461l-10.349-13.263-4.144-2.564z" class="cls-1" transform="translate(-464.616 -555.628)"/>
                <path id="패스_926" d="M515.08 620.459a13.423 13.423 0 0 0 3.31 2.829c1.091.624 1.375.365.643-.576L498.1 595.9a13.954 13.954 0 0 0-3.34-2.882c-1.1-.643-1.4-.409-.67.542z" class="cls-1" transform="translate(-447.297 -533.569)"/>
            </g>
            <g id="그룹_397" transform="translate(62.097 38.464)">
                <path id="패스_927" d="M511.854 611.092a13.711 13.711 0 0 0 3.321 2.858c1.1.643 1.406.415.675-.523l-20.77-26.552a14.345 14.345 0 0 0-3.346-2.891c-1.12-.673-1.439-.458-.7.48z" class="cls-1" transform="translate(-462.3 -547.37)"/>
                <path id="패스_928" d="M493.959 588.209a14.8 14.8 0 0 0 3.354 2.911c1.127.67 1.444.464.716-.471l-20.638-26.376a15.348 15.348 0 0 0-3.386-2.958c-1.141-.7-1.471-.514-.737.421z" class="cls-1" transform="translate(-472.878 -560.892)"/>
                <path id="패스_929" d="M527.438 628.2l-14.587-18.608a13.732 13.732 0 0 0-3.308-2.836c-1.1-.635-1.4-.389-.667.536l14.711 18.808z" class="cls-1" transform="translate(-451.672 -533.782)"/>
            </g>
            <g id="그룹_398" transform="translate(73.376 45.102)">
                <path id="패스_930" d="M511.941 606.026a14 14 0 0 0 3.321 2.858c1.109.654 1.425.444.7-.48l-20.609-26.285a14.688 14.688 0 0 0-3.353-2.906c-1.128-.681-1.452-.488-.729.437z" class="cls-1" transform="translate(-473.426 -556.858)"/>
                <path id="패스_931" d="M490.205 578.161a14.83 14.83 0 0 0 3.364 2.925c1.135.686 1.463.5.739-.429l-10.221-13.044-4.141-2.561z" class="cls-1" transform="translate(-479.946 -565.052)"/>
                <path id="패스_932" d="M529.647 628.634a13.407 13.407 0 0 0 3.284 2.8c1.093.616 1.39.377.665-.542l-20.609-26.28a13.9 13.9 0 0 0-3.313-2.858c-1.109-.648-1.417-.418-.693.509z" class="cls-1" transform="translate(-462.881 -543.408)"/>
            </g>
            <g id="그룹_399" transform="translate(86.606 53.563)">
                <path id="패스_933" d="M526.587 619.536a13.517 13.517 0 0 0 3.3 2.825c1.1.637 1.412.415.7-.493l-20.45-26.02a14.51 14.51 0 0 0-3.329-2.868c-1.119-.667-1.443-.464-.728.448z" class="cls-1" transform="translate(-477.834 -557.109)"/>
                <path id="패스_934" d="M508.955 597.079a14.59 14.59 0 0 0 3.341 2.893c1.125.667 1.455.477.732-.436L492.739 573.7a15.253 15.253 0 0 0-3.361-2.92c-1.144-.7-1.484-.53-.763.383z" class="cls-1" transform="translate(-488.237 -570.354)"/>
                <path id="패스_935" d="M541.383 635.61l-13.757-17.5a13.6 13.6 0 0 0-3.287-2.809c-1.1-.632-1.407-.4-.691.511l13.9 17.71z" class="cls-1" transform="translate(-467.371 -543.791)"/>
            </g>
        </g>
        <g id="그룹_410" transform="translate(372.976 535.678)">
            <g id="그룹_401" transform="translate(50.373 79.367)">
                <path id="패스_936" d="M435.738 643.852c-1.128 1.23-2.63 1.292-3.362.145a3.845 3.845 0 0 1 .72-4.3l31.993-34.923c1.127-1.221 2.668-1.321 3.45-.214a3.584 3.584 0 0 1-.629 4.226z" class="cls-1" transform="translate(-388.191 -574.47)"/>
                <path id="패스_937" d="M463.371 606.849c-1.127 1.23-2.69 1.339-3.48.249a3.533 3.533 0 0 1 .6-4.2l16.02-17.485 3 3.855z" class="cls-1" transform="translate(-371.841 -585.415)"/>
                <path id="패스_938" d="M408.106 673.956c-1.138 1.238-2.579 1.254-3.238.045a4.15 4.15 0 0 1 .839-4.4l31.993-34.922c1.127-1.227 2.614-1.278 3.326-.115a3.879 3.879 0 0 1-.75 4.323z" class="cls-1" transform="translate(-404.543 -556.635)"/>
            </g>
            <g id="그룹_402" transform="translate(42.433 69.047)">
                <path id="패스_939" d="M419.645 648.179c-1.107 1.206-2.579 1.243-3.273.072a3.951 3.951 0 0 1 .731-4.32l31.471-34.475c1.106-1.208 2.612-1.273 3.364-.145a3.689 3.689 0 0 1-.646 4.242z" class="cls-1" transform="translate(-389.773 -561.338)"/>
                <path id="패스_940" d="M446.833 618.443c-1.115 1.219-2.63 1.3-3.4.18a3.617 3.617 0 0 1 .614-4.213l31.471-34.471c1.1-1.213 2.663-1.331 3.482-.259a3.388 3.388 0 0 1-.53 4.139z" class="cls-1" transform="translate(-373.691 -578.947)"/>
                <path id="패스_941" d="M399.567 656.274l15.779-17.287c1.1-1.216 2.555-1.232 3.238-.054a3.978 3.978 0 0 1-.769 4.345l-15.862 17.363z" class="cls-1" transform="translate(-399.567 -543.73)"/>
            </g>
            <g id="그룹_403" transform="translate(58.254 94.842)">
                <path id="패스_942" d="M430.029 665.96c-1.133 1.234-2.639 1.272-3.349.073a4.046 4.046 0 0 1 .748-4.422l32.205-35.277c1.131-1.238 2.673-1.3 3.444-.15a3.779 3.779 0 0 1-.662 4.342z" class="cls-1" transform="translate(-399.459 -577.092)"/>
                <path id="패스_943" d="M457.853 635.527c-1.143 1.251-2.694 1.336-3.479.188A3.708 3.708 0 0 1 455 631.4l32.205-35.274c1.131-1.24 2.726-1.36 3.567-.265a3.474 3.474 0 0 1-.543 4.235z" class="cls-1" transform="translate(-383.002 -595.113)"/>
                <path id="패스_944" d="M409.482 674.244l16.147-17.692c1.13-1.243 2.614-1.259 3.313-.053a4.067 4.067 0 0 1-.787 4.444l-16.23 17.77z" class="cls-1" transform="translate(-409.482 -559.073)"/>
            </g>
            <g id="그룹_404" transform="translate(36.216 56.369)">
                <path id="패스_945" d="M425.909 628.05c-1.091 1.2-2.563 1.248-3.292.091a3.769 3.769 0 0 1 .656-4.242l30.942-34.037c1.087-1.194 2.6-1.265 3.383-.166a3.555 3.555 0 0 1-.563 4.179z" class="cls-1" transform="translate(-379.855 -560.331)"/>
                <path id="패스_946" d="M452.646 591.99c-1.093 1.2-2.622 1.288-3.413.2a3.489 3.489 0 0 1 .531-4.147L465.26 571l2.986 3.855z" class="cls-1" transform="translate(-364.041 -571.003)"/>
                <path id="패스_947" d="M399.178 657.4c-1.091 1.2-2.512 1.2-3.172-.011a4.089 4.089 0 0 1 .777-4.352l30.945-34.031c1.087-1.194 2.542-1.222 3.254-.059a3.827 3.827 0 0 1-.681 4.273z" class="cls-1" transform="translate(-395.671 -542.948)"/>
            </g>
            <g id="그룹_405" transform="translate(28.285 46.033)">
                <path id="패스_948" d="M410.19 632.067c-1.072 1.186-2.513 1.194-3.208.013a3.866 3.866 0 0 1 .665-4.254l30.418-33.59c1.072-1.182 2.55-1.222 3.3-.091a3.623 3.623 0 0 1-.579 4.186z" class="cls-1" transform="translate(-381.227 -547.37)"/>
                <path id="패스_949" d="M436.476 603.1c-1.076 1.184-2.566 1.232-3.332.12a3.576 3.576 0 0 1 .546-4.155l30.42-33.589c1.071-1.181 2.6-1.269 3.418-.193a3.353 3.353 0 0 1-.456 4.084z" class="cls-1" transform="translate(-365.68 -564.525)"/>
                <path id="패스_950" d="M390.7 639.844L405.955 623c1.069-1.179 2.489-1.176 3.174.01a3.921 3.921 0 0 1-.7 4.281l-15.335 16.921z" class="cls-1" transform="translate(-390.701 -530.213)"/>
            </g>
            <g id="그룹_406" transform="translate(22.065 33.368)">
                <path id="패스_951" d="M416.082 612.256c-1.058 1.163-2.5 1.187-3.222.029a3.724 3.724 0 0 1 .584-4.189l29.89-33.144c1.05-1.159 2.536-1.216 3.314-.109a3.484 3.484 0 0 1-.5 4.114z" class="cls-1" transform="translate(-371.525 -546.188)"/>
                <path id="패스_952" d="M441.922 577.141c-1.06 1.165-2.558 1.224-3.348.131a3.428 3.428 0 0 1 .464-4.09l14.97-16.593 2.984 3.852z" class="cls-1" transform="translate(-356.249 -556.589)"/>
                <path id="패스_953" d="M390.248 640.849c-1.05 1.165-2.443 1.133-3.1-.07a4.047 4.047 0 0 1 .712-4.294l29.885-33.145c1.053-1.17 2.481-1.163 3.2 0a3.785 3.785 0 0 1-.618 4.219z" class="cls-1" transform="translate(-386.803 -529.259)"/>
            </g>
            <g id="그룹_407" transform="translate(14.145 23.016)">
                <path id="패스_954" d="M400.733 615.959c-1.037 1.149-2.442 1.131-3.141-.035a3.828 3.828 0 0 1 .6-4.21l29.368-32.7c1.031-1.149 2.475-1.171 3.235-.033a3.588 3.588 0 0 1-.512 4.127z" class="cls-1" transform="translate(-372.688 -533.399)"/>
                <path id="패스_955" d="M426.12 587.749c-1.037 1.147-2.5 1.179-3.263.059a3.511 3.511 0 0 1 .48-4.1l29.367-32.7a2.11 2.11 0 0 1 3.356-.141 3.313 3.313 0 0 1-.4 4.026z" class="cls-1" transform="translate(-357.678 -550.102)"/>
                <path id="패스_956" d="M381.84 623.418l14.724-16.4c1.031-1.151 2.422-1.125 3.11.062a3.9 3.9 0 0 1-.634 4.232l-14.813 16.473z" class="cls-1" transform="translate(-381.84 -516.695)"/>
            </g>
            <g id="그룹_408" transform="translate(7.906 10.358)">
                <path id="패스_957" d="M406.256 596.456c-1.016 1.141-2.43 1.128-3.161-.022a3.678 3.678 0 0 1 .522-4.133l28.842-32.26a1.991 1.991 0 0 1 3.249-.051 3.443 3.443 0 0 1-.431 4.061z" class="cls-1" transform="translate(-363.189 -532.037)"/>
                <path id="패스_958" d="M431.2 562.28a2.028 2.028 0 0 1-3.282.081 3.386 3.386 0 0 1 .4-4.036l14.443-16.157 2.986 3.865z" class="cls-1" transform="translate(-348.449 -542.169)"/>
                <path id="패스_959" d="M381.324 624.285c-1.021 1.146-2.376 1.087-3.042-.123a3.981 3.981 0 0 1 .645-4.232l28.842-32.261c1.01-1.128 2.408-1.109 3.128.051a3.726 3.726 0 0 1-.555 4.157z" class="cls-1" transform="translate(-377.93 -515.559)"/>
            </g>
            <g id="그룹_409">
                <path id="패스_960" d="M391.273 599.844c-1 1.122-2.368 1.076-3.072-.089a3.775 3.775 0 0 1 .536-4.149l28.321-31.816a1.9 1.9 0 0 1 3.161.016 3.543 3.543 0 0 1-.447 4.077z" class="cls-1" transform="translate(-364.144 -519.427)"/>
                <path id="패스_961" d="M415.764 572.393a1.941 1.941 0 0 1-3.2.013 3.482 3.482 0 0 1 .413-4.052l28.323-31.811a2.055 2.055 0 0 1 3.286-.085 3.264 3.264 0 0 1-.322 3.967z" class="cls-1" transform="translate(-349.671 -535.678)"/>
                <path id="패스_962" d="M372.976 606.993l14.2-15.958c.986-1.112 2.354-1.06 3.038.125a3.843 3.843 0 0 1-.568 4.178l-14.28 16.024z" class="cls-1" transform="translate(-372.976 -503.176)"/>
            </g>
        </g>
    </g>
</svg>
