<svg xmlns="http://www.w3.org/2000/svg" width="215" height="213.405" viewBox="0 0 215 213.405">
    <defs>
        <style>
            .cls-1{fill:#fe573d}
        </style>
    </defs>
    <g id="그룹_122" transform="translate(-323.838 -947.285)">
        <g id="그룹_121" transform="translate(323.838 947.285)">
            <path id="패스_180" d="M336.1 1042.028a29.476 29.476 0 0 0 7.31 1.5c-.674-1.388-1.309-2.788-1.916-4.185a29.67 29.67 0 0 1-7.306-1.456 106.2 106.2 0 0 1-5.392-16.11 13.74 13.74 0 0 1-1.492-.609 102.833 102.833 0 0 0 5.394 16.091 10.785 10.785 0 0 1-4.131-3.174c.58 1.383 1.218 2.791 1.894 4.158a10.935 10.935 0 0 0 4.116 3.174c.266.549.531 1.08.8 1.613a100.332 100.332 0 0 0 7.834 13 15.146 15.146 0 0 0 1.512.622 101.789 101.789 0 0 1-7.841-13c-.25-.542-.535-1.082-.782-1.624z" class="cls-1" transform="translate(-321.023 -884.444)"/>
            <path id="패스_181" d="M347.064 1028.907c1.026-.194 2.023-.4 3.05-.622a154.316 154.316 0 0 1-2.489-16.617c3.553-.767 7.277-1.684 11.142-2.8-.246-1.445-.459-2.893-.656-4.332-3.777 1.08-7.4 2-10.859 2.732a143 143 0 0 1-.188-16.3c-.816.172-1.633.328-2.412.475a144.069 144.069 0 0 0-.111 16.374c-3.368.631-6.545 1.089-9.508 1.35 0 1.483 0 2.954.036 4.446a97.9 97.9 0 0 0 9.757-1.385 150.575 150.575 0 0 0 2.238 16.679z" class="cls-1" transform="translate(-314.742 -910.104)"/>
            <path id="패스_182" d="M341.122 1039.356c.618 1.419 1.28 2.8 1.934 4.163a110.422 110.422 0 0 0 11.439-1.611c.286.531.531 1.062.816 1.591a126.482 126.482 0 0 0 7.489 13.008c1.062-.2 2.16-.42 3.243-.659a139.263 139.263 0 0 1-7.466-13c-.266-.531-.531-1.062-.779-1.613 4.149-.885 8.51-1.994 13.052-3.288-.676-1.385-1.349-2.757-1.985-4.162-4.506 1.292-8.869 2.412-13.056 3.291a164.526 164.526 0 0 1-6.175-16.068c-1.078.219-2.141.448-3.192.636a146.881 146.881 0 0 0 6.106 16.1c-4.048.756-7.877 1.31-11.426 1.612z" class="cls-1" transform="translate(-309.795 -884.575)"/>
            <path id="패스_183" d="M328.772 1029.042a108.73 108.73 0 0 1-.109-16.675 24.386 24.386 0 0 0 6.24 1.247q.057-2.216.2-4.459a23.479 23.479 0 0 1-6.054-1.22 114.5 114.5 0 0 1 2.98-16.373c-.388-.154-.763-.323-1.1-.475a112.136 112.136 0 0 0-3.156 16.336 9.1 9.1 0 0 1-3.422-2.628c-.2 1.434-.371 2.891-.516 4.325a9.19 9.19 0 0 0 3.525 2.713 112.576 112.576 0 0 0 0 16.641 14.642 14.642 0 0 0 1.412.568z" class="cls-1" transform="translate(-323.838 -910.004)"/>
            <path id="패스_184" d="M383.406 1054.65c-4.007 1.155-7.912 2.106-11.6 2.907a98.683 98.683 0 0 1-10.2-10.2q-1.566.343-3.1.64a94.49 94.49 0 0 0 10.395 10.168 102.069 102.069 0 0 1-10.183 1.43c1.031.809 2.061 1.55 3.1 2.275a95.746 95.746 0 0 0 9.953-1.4 78.008 78.008 0 0 0 11.209 7.2c.852-.156 1.707-.332 2.554-.515a79.908 79.908 0 0 1-10.922-7.259c3.636-.774 7.446-1.729 11.388-2.848-.872-.783-1.74-1.582-2.594-2.398z" class="cls-1" transform="translate(-294.413 -862.316)"/>
            <path id="패스_185" d="M358.988 961.981c-.411.159-.779.315-1.169.5a107.065 107.065 0 0 0 .888 11.045c-2.2.921-4.4 1.758-6.53 2.539-.067 1.1-.105 2.237-.123 3.382 2.324-.816 4.7-1.711 7.076-2.713.642 4.08 1.423 8.392 2.38 12.9.818-.31 1.631-.649 2.445-1.008-1.135-4.433-2.092-8.689-2.871-12.693 2.394-1.04 4.825-2.132 7.275-3.306-.411-.973-.817-1.934-1.176-2.867-2.233 1.071-4.466 2.09-6.7 3.027-.683-3.866-1.213-7.493-1.495-10.806z" class="cls-1" transform="translate(-299.946 -935.345)"/>
            <path id="패스_186" d="M413.221 1055.684c-2.8 1.35-2.925 1.388-8.271 3.723a35.942 35.942 0 0 1-5.423-4.179c-.886.375-1.778.743-2.659 1.1a33.213 33.213 0 0 0 5.921 4.011c-2.693 1.1-5.39 2.148-8.02 3.083.674.2 1.334.339 1.992.468 2.445-.87 4.963-1.843 7.518-2.9a11.055 11.055 0 0 0 4.964.966c.464-.192.959-.415 1.463-.607a10.052 10.052 0 0 1-4.408-1.2c2.63-1.12 2.7-1.156 7.7-3.478-.246-.308-.51-.628-.777-.987z" class="cls-1" transform="translate(-263.737 -855.922)"/>
            <path id="패스_187" d="M405.2 1061.584c-2.148-2.552-4.4-5.43-6.719-8.66 4.323-1.862 8.722-3.844 13.088-5.945-.495-.9-1.028-1.825-1.561-2.777q-6.71 3.244-13.407 6.079c-2.347-3.4-4.8-7.129-7.275-11.152l-3.781 1.6c2.536 3.986 5.055 7.674 7.506 11.049-4.4 1.825-8.8 3.513-13.092 5.039.743.854 1.523 1.684 2.269 2.485 4.187-1.5 8.464-3.147 12.773-4.937 2.441 3.19 4.828 6.03 7.094 8.511 1.026-.42 2.053-.876 3.105-1.292z" class="cls-1" transform="translate(-276.156 -869.002)"/>
            <path id="패스_188" d="M365.646 1061.845c-1.138-.736-2.237-1.5-3.335-2.277a26.618 26.618 0 0 1-6.5-1.314 92.931 92.931 0 0 1-12.2-10.141 14.04 14.04 0 0 1-1.455-.589 95.725 95.725 0 0 0 12.311 10.166 10.29 10.29 0 0 1-1.7-.957l3.939 2.568a10.244 10.244 0 0 0 1.278.722 93.566 93.566 0 0 0 9.753 5.343l4.738 2.126c.194.074.426.17.656.261a93.642 93.642 0 0 1-13.839-7.194 25.782 25.782 0 0 0 6.354 1.286z" class="cls-1" transform="translate(-308.274 -862.181)"/>
            <path id="패스_189" d="M380.226 960.526c1.169.451 2.307.928 3.478 1.443 1.738-1.4 3.3-2.793 4.723-4.12a117.57 117.57 0 0 1 14.33 5.624c.495-.44.941-.881 1.385-1.35a119.551 119.551 0 0 0-14.654-5.322 40.645 40.645 0 0 0 3.4-3.779c-1.381-.263-2.782-.513-4.181-.741a37.522 37.522 0 0 1-3.125 3.46 99.353 99.353 0 0 0-14.759-2.514c-.178.21-.428.422-.636.631a98.445 98.445 0 0 1 14.4 2.86c-1.313 1.238-2.764 2.496-4.361 3.808z" class="cls-1" transform="translate(-284.432 -943.226)"/>
            <path id="패스_190" d="M427.276 1008.591c-.711-1.361-1.419-2.713-2.166-4.078-.566.43-1.185.85-1.809 1.265q-5.8 3.991-11.919 7.8-4.046-7.664-8.479-15.089c-1.222.761-2.449 1.523-3.692 2.264q4.317 7.485 8.376 15.156c-4.859 2.942-5.037 3.045-14.614 8.383.671 1.367 1.378 2.732 2.09 4.12 4.966-2.7 9.865-5.5 14.656-8.414.279.535.527 1.064.794 1.613 2.324 4.595 4.488 9.082 6.438 13.427 1.276-.76 2.521-1.519 3.763-2.3-1.932-4.366-4.082-8.85-6.385-13.469-.286-.531-.535-1.062-.817-1.61 4.082-2.534 8.089-5.131 11.919-7.808.638-.405 1.239-.851 1.845-1.26z" class="cls-1" transform="translate(-265.056 -903.723)"/>
            <path id="패스_191" d="M388.8 952.826c1.493.147 2.945.286 4.4.479a12.19 12.19 0 0 0 1.1-2.94 113.475 113.475 0 0 1 16.572 2.461c.067-.3.105-.605.141-.9a113.378 113.378 0 0 0-16.608-2.273 4.974 4.974 0 0 0-.315-2.34q-2.235-.057-4.473 0a4.281 4.281 0 0 1 .323 2.144 112.25 112.25 0 0 0-16.925.906c-.038.145-.038.279-.067.444a112.188 112.188 0 0 1 16.887-.7 10.145 10.145 0 0 1-1.035 2.719z" class="cls-1" transform="translate(-282.04 -947.285)"/>
            <path id="패스_192" d="M380.3 998.859c4.225-2.284 8.414-4.676 12.494-7.145 3.121 4.441 6.21 9.043 9.224 13.786 1.2-.734 2.358-1.439 3.529-2.166-3.107-4.685-6.3-9.247-9.494-13.6q5.223-3.246 10.146-6.677c.535-.368 1.066-.723 1.561-1.082-.952-1.1-1.91-2.166-2.867-3.246-.5.353-1 .7-1.53 1.051-3.21 2.213-6.525 4.379-9.9 6.487q-4.848-6.411-9.757-12.22c-.921.573-1.841 1.138-2.768 1.707q4.682 5.935 9.371 12.45c-3.978 2.412-8.055 4.743-12.175 6.969.709 1.219 1.422 2.448 2.166 3.686z" class="cls-1" transform="translate(-277.726 -924.546)"/>
            <path id="패스_193" d="M337.3 979.627c.865-1.149 1.753-2.3 2.677-3.44a6.472 6.472 0 0 1 .424-2.469 92.173 92.173 0 0 1 11.317-11.133c.069-.176.143-.344.192-.5a91.561 91.561 0 0 0-11.225 10.9 19.063 19.063 0 0 1 1.736-3.014c-.852.982-1.682 1.934-2.481 2.929a19.515 19.515 0 0 0-1.88 3.243 87.488 87.488 0 0 0-8.408 12.8 7.975 7.975 0 0 0-.391.988 94.134 94.134 0 0 1 8.5-13 7.206 7.206 0 0 0-.461 2.696z" class="cls-1" transform="translate(-319.433 -935.257)"/>
            <path id="패스_194" d="M400.907 1025.558c-.712-1.365-1.388-2.751-2.079-4.14q-7.555 3.651-15.064 6.855-3.779-7.83-7.306-15.713c-1.271.549-2.586 1.091-3.862 1.624 2.266 5.293 4.682 10.542 7.2 15.758-4.968 2.037-9.9 3.935-14.707 5.642.654 1.392 1.332 2.761 2.006 4.146 4.823-1.724 9.757-3.6 14.723-5.662.285.536.529 1.068.819 1.6 2.338 4.611 4.64 9.019 6.984 13.182 1.3-.551 2.626-1.1 3.937-1.673-2.3-4.145-4.606-8.548-6.953-13.171-.268-.547-.531-1.062-.818-1.6 5.026-2.134 10.077-4.438 15.12-6.848z" class="cls-1" transform="translate(-288.751 -891.753)"/>
            <path id="패스_195" d="M339.518 981.814a14.174 14.174 0 0 0 3.514.7c.672-1.292 1.416-2.557 2.124-3.815a13.91 13.91 0 0 1-3.23-.647 109.27 109.27 0 0 1 10.364-13.273c-.14-.056-.3-.122-.462-.176a112.406 112.406 0 0 0-10.574 13.163 4.716 4.716 0 0 1-1.845-1.4c-.888 1.189-1.775 2.393-2.626 3.616a5.532 5.532 0 0 0 1.99 1.533 114.613 114.613 0 0 0-7.859 14.792c.3.138.62.257.942.384a118.636 118.636 0 0 1 7.662-14.877z" class="cls-1" transform="translate(-318.089 -933.214)"/>
            <path id="패스_196" d="M342.216 978.691c-.585 1.263-1.173 2.539-1.72 3.812a50.039 50.039 0 0 0 5.494-.779 123.022 123.022 0 0 0-3.754 14.834c.638-.127 1.31-.248 1.988-.412a120.409 120.409 0 0 1 3.368-14.741c1.985-.442 4.114-.955 6.279-1.6.212-1.2.459-2.409.694-3.576-2.012.56-3.962 1.062-5.8 1.446 1.631-4.769 1.631-4.769 5.515-13.124-.339.078-.656.129-.977.185a98.942 98.942 0 0 0-6 13.244c-1.803.32-3.512.569-5.087.711z" class="cls-1" transform="translate(-310.303 -933.255)"/>
            <path id="패스_197" d="M362.728 985.845q1.966 7.294 4.475 14.948-6.229 2.539-12.244 4.709c.315 1.376.656 2.8 1.01 4.2q6.2-2.215 12.544-4.828c1.736 5.128 3.618 10.359 5.6 15.613 1.247-.522 2.449-1.018 3.69-1.546-2.075-5.231-4.044-10.415-5.892-15.5 4.4-1.88 4.58-1.961 12.88-5.818-.6-1.311-1.207-2.621-1.774-3.9-4.288 2.063-4.468 2.137-12.521 5.679q-2.659-7.558-4.863-14.779c-.954.424-1.946.827-2.905 1.222z" class="cls-1" transform="translate(-297.405 -915.531)"/>
            <path id="패스_198" d="M401.838 1061.764a24.3 24.3 0 0 1-2.552-.283c-2.46.7-4.839 1.33-7.109 1.785a52.42 52.42 0 0 1-11.335-2.246c-.747.156-1.49.322-2.2.46a57.033 57.033 0 0 0 11.741 2.166 62.079 62.079 0 0 1-6.244.89c1.171.042 2.34.082 3.511.082 1.827-.16 3.8-.442 5.856-.834a52.015 52.015 0 0 0 10.337-.865l.52-.109 1.7-.361a46.715 46.715 0 0 1-10.89 1c2.127-.467 4.369-1.012 6.665-1.685z" class="cls-1" transform="translate(-277.315 -851.214)"/>
            <path id="패스_199" d="M439.4 993.019q-1.06-2.025-2.233-4.027a91.794 91.794 0 0 1-7.023 7.807 139.482 139.482 0 0 0-9.4-14.4c-.709.707-1.414 1.41-2.2 2.144a137.171 137.171 0 0 1 9.367 14.44c-2.927 2.74-6.2 5.6-9.784 8.528.741 1.346 1.452 2.693 2.155 4.064 3.694-3 3.8-3.108 9.815-8.559.261.531.547 1.053.8 1.586a125.165 125.165 0 0 1 5.994 13.8c.787-.741 1.528-1.448 2.238-2.182a129.25 129.25 0 0 0-6-13.8c-.25-.531-.5-1.06-.8-1.577a90.705 90.705 0 0 0 7.071-7.824z" class="cls-1" transform="translate(-243.542 -917.415)"/>
            <path id="패스_200" d="M436.145 1009.709c-.712.692-1.419 1.389-2.146 2.092a93.684 93.684 0 0 1 1.918 14.48c-2.572 2.447-5.521 4.981-8.713 7.591.129 1.2.212 2.38.3 3.558 3.141-2.545 6-5.032 8.53-7.448a77.69 77.69 0 0 1-.993 13.411c.605-.569 1.173-1.136 1.76-1.7a80.935 80.935 0 0 0 1.185-13.6 78.31 78.31 0 0 0 6.135-6.788c.054-1.3.074-2.594.074-3.926a85.373 85.373 0 0 1-6.28 6.953 97.484 97.484 0 0 0-1.77-14.623z" class="cls-1" transform="translate(-236.165 -894.214)"/>
            <path id="패스_201" d="M425.1 987.516c.707-.669 1.419-1.329 2.1-2a149.578 149.578 0 0 0-12.349-11.473 80.584 80.584 0 0 0 6.03-6.659q-1.805-1.349-3.616-2.6a85.833 85.833 0 0 1-5.854 6.5 140.622 140.622 0 0 0-13.59-9.311c-.527.531-1.1 1.046-1.649 1.595a146.446 146.446 0 0 1 13.36 9.523c-2.411 2.289-5.144 4.669-8.142 7.1 1.078.993 2.146 2 3.179 3.007 3.079-2.492 5.885-4.919 8.367-7.281a157.158 157.158 0 0 1 12.164 11.599z" class="cls-1" transform="translate(-262.386 -935.36)"/>
            <path id="패스_202" d="M434.029 1033.451c-.183-1.1-.359-2.215-.569-3.355-.535.375-1.1.76-1.635 1.119-3.438 2.374-6.991 4.7-10.625 6.954-1.153-4.029-2.538-8.3-4.165-12.771-1.211.743-2.414 1.488-3.621 2.233 1.7 4.417 3.161 8.638 4.435 12.631-4.294 2.557-8.655 5.051-13.056 7.446l1.243 2.965c4.294-2.344 8.546-4.773 12.718-7.3 1.116 3.823 2 7.428 2.621 10.748 1.015-.605 1.968-1.211 2.965-1.834a105.85 105.85 0 0 0-2.269-10.958c3.544-2.2 7.023-4.466 10.359-6.783.531-.346 1.064-.746 1.599-1.095z" class="cls-1" transform="translate(-255.09 -880.956)"/>
            <path id="패스_203" d="M435.3 1035.968a56.91 56.91 0 0 1-5.41 10.886c-1.631 1.559-1.706 1.613-5.358 4.671-.426.8-.926 1.577-1.421 2.336 1.878-1.533 1.95-1.579 5-4.366a53.629 53.629 0 0 1-5.354 6.347l1.629-1.642a53.878 53.878 0 0 0 4.859-5.8c1.4-1.4 2.588-2.735 3.62-3.993.707-.99 1.419-1.979 2.11-3a51.554 51.554 0 0 1-3.848 4.258 62.265 62.265 0 0 0 5.675-11.152c-.489.474-.985.958-1.502 1.455z" class="cls-1" transform="translate(-239.773 -872.755)"/>
            <path id="패스_204" d="M434.887 991.3c.761 1.314 1.51 2.646 2.237 4.011a23.351 23.351 0 0 0 2.267-6.119c.285.513.551 1.048.816 1.581a100.739 100.739 0 0 1 5.822 14.051c.107-.491.14-.981.212-1.459a99.566 99.566 0 0 0-5.816-14.06c-.266-.533-.531-1.064-.819-1.579a9.58 9.58 0 0 0-.671-4.859c-.712-1.329-1.454-2.681-2.238-3.978a9.465 9.465 0 0 1 .709 4.821 105.289 105.289 0 0 0-9.755-13.833 10.828 10.828 0 0 1-.208 1.423 106.491 106.491 0 0 1 9.753 13.886 24.29 24.29 0 0 1-2.309 6.114z" class="cls-1" transform="translate(-235.972 -928.072)"/>
            <path id="패스_205" d="M417.961 960.807a17.853 17.853 0 0 1-1.876 5.082c1.278.779 2.519 1.6 3.727 2.423a19.493 19.493 0 0 0 1.965-5.213 108.974 108.974 0 0 1 13.4 9.9c.071-.46.138-.928.2-1.367a108.984 108.984 0 0 0-13.4-9.787 7.922 7.922 0 0 0-.6-4.136c-1.243-.745-2.478-1.45-3.759-2.15a8.382 8.382 0 0 1 .565 4.033 114.51 114.51 0 0 0-15.026-7.047 6.94 6.94 0 0 1-.16 1.082 111.3 111.3 0 0 1 14.964 7.18z" class="cls-1" transform="translate(-256.569 -943.012)"/>
            <path id="패스_206" d="M439.244 1020.3c-.034 1.35-.076 2.719-.179 4.064a19.816 19.816 0 0 0 1.985-5.318c-.049.781-.107 1.539-.212 2.336.105-.74.212-1.483.286-2.164.056-.475.107-.953.141-1.43v-.2l.212-3.5.036-1.238a4.527 4.527 0 0 1-.036.7 95.991 95.991 0 0 0-.848-16.044c-.058.451-.127.908-.214 1.406a94.388 94.388 0 0 1 .87 15.952c-.342 1.694-.373 1.768-2.041 5.436z" class="cls-1" transform="translate(-226.528 -904.662)"/>
            <path id="패스_207" d="M440.527 1010.676c-.323 2.469-.671 5.222-1.08 7.634.464-2.523.832-5.075 1.08-7.634z" class="cls-1" transform="translate(-226.217 -893.699)"/>
            <path id="패스_208" d="M420.074 1053a33.431 33.431 0 0 0 .819-7.444c-.852.513-1.7 1.046-2.556 1.559a32.782 32.782 0 0 1-.317 7.17c-2.628 1.577-5.289 3.081-8.022 4.578.092.44.141.872.216 1.274q3.776-2.078 7.448-4.294a11.324 11.324 0 0 1-2.195 4.58c.455-.286.939-.573 1.381-.872a13.386 13.386 0 0 0 2.77-4.9q3.138-1.938 6.061-3.986c.323-.212.64-.424.941-.636.339-.643.658-1.3.977-1.97-.335.23-.674.441-.99.687-2.134 1.454-4.297 2.879-6.533 4.254z" class="cls-1" transform="translate(-250.86 -863.779)"/>
            <path id="패스_209" d="M367.15 971.971c2.371-1.294 4.754-2.639 7.054-4.022 2.918 2.9 5.931 6.108 8.983 9.565.781-.486 1.579-.981 2.338-1.441q-4.842-5.057-9.489-9.264 2.95-1.83 5.744-3.759c.3-.192.587-.4.872-.618-.993-.622-1.99-1.218-2.956-1.822-.266.192-.555.366-.839.565-1.7 1.186-3.473 2.342-5.285 3.48a105.6 105.6 0 0 0-8.943-6.966c-.35.239-.741.469-1.136.7a110.962 110.962 0 0 1 8.376 7.292q-3.192 1.936-6.494 3.723c.568.854 1.175 1.696 1.775 2.567z" class="cls-1" transform="translate(-290.219 -938.831)"/>
        </g>
    </g>
</svg>
