<svg xmlns="http://www.w3.org/2000/svg" id="그룹_353" width="215" height="214.341" viewBox="0 0 215 214.341">
    <defs>
        <style>
            .cls-1{isolation:isolate}.cls-2{fill:#fe573d}
        </style>
    </defs>
    <g id="그룹_137">
        <g id="그룹_136" class="cls-1">
            <g id="그룹_135" class="cls-1">
                <g id="그룹_134">
                    <path id="패스_290" d="M976.659 1023.717c-1.161-4.235-2.6-9.914-3.464-14.211.808 3.528 2.075 8.181 3.209 11.62a13.708 13.708 0 0 0 .254 2.592z" class="cls-2" transform="translate(-971.665 -884.328)"/>
                    <path id="패스_291" d="M1003.072 1061.965l-.952-.91-4.014-4.072c-9.229-10.709-15.743-19.17-21.983-38.4 5.723 10.649 11.532 19.916 29.514 34-3.036 2.575-6.472 5.493-2.564 9.378z" class="cls-2" transform="translate(-969.24 -876.815)"/>
                    <path id="패스_292" d="M1026.283 1059.148c-5.271-1.113-6.088-1.283-10.155-2.444l-.636-.192c-2.013-.737-2.135-.782-2.859-1.574l.031.017v-.007c8.37 3.1 8.536 3.157 13.619 4.2z" class="cls-2" transform="translate(-939.017 -846.718)"/>
                    <path id="패스_293" d="M1027.242 1067.985v.007l-.031-.017c-11.552-5.633-21.267-11.331-32.188-28.788 8.757 5.791 18.682 12.362 40.6 22.153-5.118 2.555-9.289 4.824-8.382 6.644z" class="cls-2" transform="translate(-953.595 -859.756)"/>
                    <path id="패스_294" d="M1041.375 1063.152h-.15c-.764 0-1.81-.005-2.588-.018-7.047-.733-11.841-1.824-18.834-10.724 6.154 2.519 15.458 6.333 26.05 9.506-3.992 1.117-4.468 1.236-4.468 1.236z" class="cls-2" transform="translate(-933.081 -848.811)"/>
                    <path id="패스_295" d="M1036.295 1058.331c-.433.024-1.011.07-1.453.1.064-.166.114-.393.165-.567 1.745.435 1.745.435 1.974.415l-.686.056z" class="cls-2" transform="translate(-920.632 -844.3)"/>
                    <path id="패스_296" d="M1023.5 941.211l.693-.09.9-.1c.078.018.184.033.271.049h-.038l-1.828.141z" class="cls-2" transform="translate(-930.019 -941.021)"/>
                    <path id="패스_297" d="M1024.5 941.048h.038a48.784 48.784 0 0 1 5.2.587c-2.091-.22-4.06-.411-5.237-.587z" class="cls-2" transform="translate(-929.191 -940.999)"/>
                    <path id="패스_298" d="M1007.678 948.946c1.705-.689 3.977-1.658 5.708-2.3 4.143-1.442 4.577-1.594 7.94-2.566 8.068-1.927 12.109-2.892 22.339-2.694-10.27.192-17.05 1.036-30.113 5.62a43.791 43.791 0 0 0-5.875 1.945z" class="cls-2" transform="translate(-943.119 -940.745)"/>
                    <path id="패스_299" d="M986.322 974.6l1.9-2.193c2.614-2.694 6.112-6.262 8.872-8.812 8.139-6.64 14.551-11.877 29.8-18.181-11.689 5.632-19.439 10.636-26.878 20.958-6.381 2.87-10.49 4.859-13.688 8.229z" class="cls-2" transform="translate(-960.798 -937.381)"/>
                    <path id="패스_300" d="M976.509 1038.345c-2.3-7.185-2.853-8.892-3.794-16.693l-.154-2.107c-.307-11.742-.307-11.742.281-17.686.431-3.12.954-7.309 1.539-10.4 1.135-3.219 1.734-4.169 6.041-7.792l-.026.071.026-.02c-3.809 12.508-8.551 28.075-3.913 54.632z" class="cls-2" transform="translate(-972.358 -905.722)"/>
                    <path id="패스_301" d="M976.782 1004.315l-.026.02.026-.071c5.776-14.823 11.572-27.589 29.1-45.489-4.372 9.793-5.725 17.629-.382 31-10.976 4.555-21.44 9.1-28.715 14.538z" class="cls-2" transform="translate(-968.717 -926.324)"/>
                    <path id="패스_302" d="M1005.619 1058.113c-13.683-11.093-22.036-19.514-29.815-34.745 2.762-4.723 6.5-8.245 20.267-15.524v.075l.042-.026c-.035 16.421.653 30.543 9.507 50.219z" class="cls-2" transform="translate(-969.506 -885.704)"/>
                    <path id="패스_303" d="M986.933 1032.509l-.042.026v-.075c1.038-16.037 2.6-30.221 12.327-54.35 6.668 11.334 12.822 19.428 29.744 34.747-22.811 10.333-31.351 14.208-42.029 19.653z" class="cls-2" transform="translate(-960.327 -910.319)"/>
                    <path id="패스_304" d="M1035.928 1067.328c-14.884-7.061-26.35-13.1-41.024-23.142 6.787-3.842 11.217-6.136 30.995-14.977l.015.073.049-.027c1.672 16.154 3.678 26.476 9.965 38.073z" class="cls-2" transform="translate(-953.693 -868.017)"/>
                    <path id="패스_305" d="M1012.22 1053.795l-.049.028-.015-.073c-.664-10.643-1.57-25.237 1.581-54.184 18.722 15.529 29.614 23.3 44.1 33.387-11.25 5.388-11.25 5.388-45.619 20.843z" class="cls-2" transform="translate(-939.951 -892.557)"/>
                    <path id="패스_306" d="M1046.65 1067.742c-11.982-4.465-18.161-7.037-26.7-10.79 2.4-1.053 2.4-1.053 30.2-12.6v.051l.049-.024c-2.941 18.251-3.2 19.74-3.552 23.361z" class="cls-2" transform="translate(-932.96 -855.481)"/>
                    <path id="패스_307" d="M1036.522 1064.6l-.049.024v-.051c2.753-17.344 4.308-27.905 6.236-44.652 17.8 12.241 25.915 17.834 35.264 25.807-9.282 4.648-18.9 9.459-41.451 18.872z" class="cls-2" transform="translate(-919.281 -875.703)"/>
                    <path id="패스_308" d="M1042.385 1061.246c-.448.057-1.047.139-1.5.2-1.491.179-2.1.247-2.663.3l-.371.038a12.519 12.519 0 0 0-2.356-.958c8.258-2.3 14.288-4.224 23.016-7.351l-.038.024.038-.013c-4.548 3.347-9.251 6.8-16.122 7.761z" class="cls-2" transform="translate(-920.095 -847.93)"/>
                    <path id="패스_309" d="M1048.1 1068.3l-.038.013.038-.024c7.412-6.673 14.286-13.738 23.33-32.718 6.6 6.79 10.435 11.435 7.942 18.607-6.878 3.82-14.012 7.764-31.272 14.122z" class="cls-2" transform="translate(-909.689 -862.748)"/>
                    <path id="패스_310" d="M1056.254 1059.968c-2.038.777-4.769 1.766-6.836 2.471 8.911-3.453 15.953-6.169 27.717-15.58-2.409 2.893-3.5 4.211-8.66 7.251-7.147 3.716-8.262 4.288-12.221 5.858z" class="cls-2" transform="translate(-908.565 -853.406)"/>
                    <path id="패스_311" d="M1013.256 945.692c10.26-3.054 14.886-3.99 25.792-4.323-10.046.872-15.582 1.347-25.792 4.323z" class="cls-2" transform="translate(-938.501 -940.733)"/>
                    <path id="패스_312" d="M996.041 966.154c5.416-6.783 11.2-12.941 27.092-19.6 4.105-1.009 8.337-2.052 20.863-4.31l-.075.015.026-.007c-15.166 3.977-28.331 8.262-47.905 23.9z" class="cls-2" transform="translate(-952.752 -940.007)"/>
                    <path id="패스_313" d="M1022.262 942.979l-.026.007.075-.015c2.793-.494 6.5-1.236 9.3-1.6-2.787.47-5.438.917-9.353 1.61z" class="cls-2" transform="translate(-931.067 -940.733)"/>
                    <path id="패스_314" d="M996.177 991.859c-3.548-9.366-5.765-17.514.521-29.967 4.27-1.694 4.27-1.694 28.775-10.515l-.051.042.037-.022c-9.5 9.521-18.256 19.133-29.282 40.462z" class="cls-2" transform="translate(-955.498 -932.449)"/>
                    <path id="패스_315" d="M1010.649 959.68l-.037.022.051-.042c12.133-10.7 18.71-14.628 30.572-18.291-3.548 1.362-7.593 2.9-6.352 8.307-5.218 2.557-10.3 4.915-24.235 10z" class="cls-2" transform="translate(-940.689 -940.733)"/>
                    <path id="패스_316" d="M1025.111 1017.617c-13.4-12.161-22.045-21.184-29.379-34.036 16.355-6.71 26.233-10.768 40.238-17.11l-.026.059.051-.018a437.046 437.046 0 0 0-10.885 51.106z" class="cls-2" transform="translate(-953.008 -919.953)"/>
                    <path id="패스_317" d="M1017.783 982.679l-.051.018.026-.059c3.314-11.692 6.748-23.224 11.982-35.7 3.259 5.209 7.357 9.486 20.705 18.381-5.158 3.266-13.787 8.759-32.661 17.359z" class="cls-2" transform="translate(-934.796 -936.121)"/>
                    <path id="패스_318" d="M1058.674 1040.716c-8.383-5.942-25.844-18.273-44.065-33.378 16.832-7.786 30.049-14.007 46.86-23.129v.069l.06-.035c-.09 10.744-.218 26.981-2.855 56.472z" class="cls-2" transform="translate(-937.381 -905.269)"/>
                    <path id="패스_319" d="M1042.195 1005.539l-.06.035v-.069c-.218-18.415-.956-31.362-4.169-47.019 10.859 6.615 10.859 6.615 40.377 22.959-6.394 5.344-14.341 11.985-36.147 24.094z" class="cls-2" transform="translate(-918.046 -926.564)"/>
                    <path id="패스_320" d="M1077.414 1055.846c-8.686-7.383-12.407-10.247-35.65-26.432 17.867-9.084 30.523-16.048 46.149-26.853v.077l.038-.035c-.978 15.853-2.449 30.808-10.537 53.243z" class="cls-2" transform="translate(-914.902 -890.077)"/>
                    <path id="패스_321" d="M1070.3 1027.286l-.038.035v-.077c.249-19.744-.819-34.279-7.176-54.5 15.469 9 25.761 15.77 35.875 25.758-4.831 8.008-10.325 15.7-28.66 28.784z" class="cls-2" transform="translate(-897.25 -914.76)"/>
                    <path id="패스_322" d="M1071.157 1064.118c1.645-6.246.868-10.336-8.182-19.527 15.264-8.43 24.924-14.606 35.363-24.943l-.015.064.026-.031c-5.286 14.425-10.959 27.73-27.192 44.436z" class="cls-2" transform="translate(-897.343 -875.931)"/>
                    <path id="패스_323" d="M1096.059 1016.011l-.426 4.679c-1.724 9.148-4 14.24-13.294 24.564l-.026.031.015-.064c4.474-15.644 7.847-30.687 3.873-56.463 7.224 9.459 9.8 14.8 9.94 25.966l-.082 1.287z" class="cls-2" transform="translate(-881.333 -901.503)"/>
                    <path id="패스_324" d="M1075.562 1049.245c-7.917 6.328-8.233 6.573-13.431 9.846 4.191-2.88 6.1-4.182 8.627-7.914 6.527-4.316 10.486-7.063 16.2-13.308-6.79 7.295-7.828 8.421-11.395 11.376z" class="cls-2" transform="translate(-898.041 -860.848)"/>
                    <path id="패스_325" d="M1024.912 947.759c-.086-1.033-.225-2.579.368-3.422.8-1.124 1.292-1.8 4.184-2.968-2.177 2.425-2.217 2.473-4.551 6.39z" class="cls-2" transform="translate(-928.916 -940.733)"/>
                    <path id="패스_326" d="M1045.241 966.063c-10.693-6.953-16.734-11.514-20.008-17.141 4.191-2.524 7.558-4.787 6.412-6.911l.022.013v-.005c5.034 3.723 9.229 7.867 13.573 24.045z" class="cls-2" transform="translate(-928.585 -940.201)"/>
                    <path id="패스_327" d="M1029.9 942.55v.005l-.022-.013-2.513-1.173c1.632.464 2.014.574 2.536 1.181z" class="cls-2" transform="translate(-926.82 -940.733)"/>
                    <path id="패스_328" d="M1078.448 985.443c-29.024-15.553-30.159-16.163-39.969-21.987 6.072-4.637 11.652-9.3 13.155-15.182l.038.033.011-.013c9.739 8.218 17.881 16.178 26.765 37.149z" class="cls-2" transform="translate(-917.621 -935.017)"/>
                    <path id="패스_329" d="M1060.882 954.01l-.011.013-.038-.033c-9.66-6.666-17.2-11.137-33.466-12.621a204.855 204.855 0 0 1 25.654 2.72c3.431 1.627 8.629 4.076 7.861 9.921z" class="cls-2" transform="translate(-926.82 -940.733)"/>
                    <path id="패스_330" d="M1098.808 1005.338c-7.889-7.485-14.623-13.272-35.478-25.116 6.026-6.748 10.554-12.659 9.567-22.016l.044.044v-.016c10.466 11.912 19.024 22.944 25.867 47.1z" class="cls-2" transform="translate(-897.049 -926.795)"/>
                    <path id="패스_331" d="M1089 970.556v.016l-.044-.044c-11.005-10.7-21.991-20.124-45.034-27.209 12.691 2.669 21.957 5.213 31.747 10.311 4.9 3.391 11.616 8.044 13.33 16.926z" class="cls-2" transform="translate(-913.112 -939.118)"/>
                    <path id="패스_332" d="M1086.867 979.943c3.828 10.484 3.9 10.686 5.24 16.423 2.142 11.245 2.179 11.462 2.579 17.5l.238 6.16c-.649-7.779-1.694-13.654-10.077-23.985 2.226-7.315 3.387-12.828-.831-22.435l2.851 6.339z" class="cls-2" transform="translate(-879.924 -914.048)"/>
                </g>
            </g>
        </g>
    </g>
</svg>
