<svg xmlns="http://www.w3.org/2000/svg" id="그룹_352" width="215" height="214.737" viewBox="0 0 215 214.737">
    <defs>
        <style>
            .cls-1{fill:#fe573d}
        </style>
    </defs>
    <g id="그룹_139">
        <path id="패스_333" d="M1217.3 959.028c-10.386 4.948-25.313 30.848-19.219 33.4 2.844 1.2 9.777-5.222 15.993-17.69 1.46-2.903 8.434-17.338 3.226-15.71zm-6.8 15.732c-.727 1.325-4.487 8.028-7.792 9.059-3.034.26-.314-7.366 4.847-13.575 2.625-3.151 5.551-5.48 5.827-3.55.182 1.306-.982 4.545-2.882 8.066z" class="cls-1" transform="translate(-1182.426 -925.897)"/>
        <path id="패스_334" d="M1199.822 984.172c-11.649 6.375-10.557 38.58-2.128 40.978 5.255 1.5 10.367-8.326 10.927-21.045.419-9.305-2.095-22.079-8.799-19.933zm3.51 16.748a30.242 30.242 0 0 1 .013 3.285c-.2 3.566-1.462 9.876-4.873 10.991-5.875.492-5.646-15.622-1.17-20.672 2.748-3.114 5.576-.124 6.03 6.396z" class="cls-1" transform="translate(-1186.929 -905.174)"/>
        <path id="패스_335" d="M1214.721 1051.435c6.479 1.128 6.529-8.415 2.853-17.905-3.714-9.589-12.517-21.667-19.368-19.377-9.914 6.306 6.116 35.489 16.515 37.282zm-13.822-27.156c2.285-2.857 8.042 2.086 10.99 9.452 1.267 3.106 2.557 8.653-.514 9.662-6.501.619-13.55-15.277-10.475-19.114z" class="cls-1" transform="translate(-1183.725 -880.392)"/>
        <path id="패스_336" d="M1218.812 1010.516c-15.225 6.63-8.813 29.976 6.341 36.58 13.4 5.844 21.994-5.474 18.877-18.5-2.292-9.659-12.608-21.637-25.218-18.08zm11.87 29.514c-9.088 1.349-15.836-11.08-11.645-17.428 4.06-6.147 14.281-1.961 16.576 6.788.835 3.204.742 9.055-4.931 10.64z" class="cls-1" transform="translate(-1171.302 -883.698)"/>
        <path id="패스_337" d="M1238.692 953.8c-12.8 4.8-16.18 22.758-5.24 27.856 10.148 4.736 25.324-4.29 22.95-16.7-1.17-6.18-8.17-13.705-17.71-11.156zm10.316 12.025c.251 2.389-.9 7.324-7.008 8.956-7.668 1.276-10.759-5.938-6.975-11.6 4.3-6.447 12.537-4.348 13.862 1.861.039.238.098.558.121.788z" class="cls-1" transform="translate(-1157.414 -930.538)"/>
        <path id="패스_338" d="M1247.1 1005.015c-18.313 7.114-16.485 29.788-1.221 37.114 14.922 7.157 29.817-5.566 28.656-19.591-.959-11.538-12.467-21.584-27.435-17.523zm17.633 18.669a10.608 10.608 0 0 1-8.229 11.358c-10.663 1.76-16.587-9.685-11.243-16.838 5.676-7.604 18.431-4.024 19.47 5.481z" class="cls-1" transform="translate(-1151.605 -888.483)"/>
        <path id="패스_339" d="M1239.945 1063.286c5.169.833 2.888-2.345 2.029-3.548a48.849 48.849 0 0 0-6.565-7.008c-8.255-7.562-19.214-14.328-24.191-12.681-6.318 4.467 16.497 21.243 28.727 23.237zm-22.162-16.509c1.371-1.411 7.69 1.6 13 6.193 1.409 1.219 5.814 5.235 3.656 5.959-5.028.535-19.047-9.697-16.657-12.152z" class="cls-1" transform="translate(-1171.276 -858.927)"/>
        <path id="패스_340" d="M1218.084 980.912c-16.578 6.8-17.01 32.886-4.091 39.206 10.559 5.173 22.691-6.406 22.376-21.345-.209-9.568-6.669-21.083-18.285-17.861zm9.885 16.43a14.321 14.321 0 0 1 .172 2.193c.018 3.259-1.6 9.9-7.672 11.6-8.757 1.279-11.645-10.866-6.247-18.009 4.738-6.262 12.442-3.89 13.747 4.217z" class="cls-1" transform="translate(-1175.598 -908.132)"/>
        <path id="패스_341" d="M1237.533 942.114a.586.586 0 0 0-.064.121c3.234 3.455 6.023 6.421 10.87 7.841 6.4 1.861 10.1.174 10.225-1.707.093-1.6-2.045-3.38-5.606-4.635a37.722 37.722 0 0 0-15.425-1.62zm3.952.779c.408-.594 5.3-.146 8.464 1.185 2.881 1.2 3.248 2.584 1.791 3.1a3.681 3.681 0 0 1-.356.1c-4.659.772-10.378-3.702-9.899-4.386z" class="cls-1" transform="translate(-1148.647 -939.968)"/>
        <path id="패스_342" d="M1274.449 1056.82c6.043-4.959 6.492-9.2 2.806-9.384a8.785 8.785 0 0 0-2.652.435c-10.711 4-12.023 15.3-11.967 15.381.842.093 7.083-2.54 11.813-6.432zm-6.768-.208c2.873-3.822 6.768-5.088 7.114-3.456.179.855-.682 2.279-2.292 3.813a18.907 18.907 0 0 1-6.057 3.86c-1.993.318 1.191-4.191 1.235-4.217z" class="cls-1" transform="translate(-1127.815 -852.61)"/>
        <path id="패스_343" d="M1310.919 1013.943c.846-11.963-4.536-23.284-13.592-20.44-14.147 7.117-12.462 37.3-1.345 40.709 6.798 2.088 14.062-7.761 14.937-20.269zm-13.983-8.755c3.665-4.445 8.5-1.625 9.384 5.482a18.905 18.905 0 0 1 .1 3.3c-.188 3.2-1.713 9.6-6.127 10.976-6.993.954-8.319-13.746-3.357-19.758z" class="cls-1" transform="translate(-1107.495 -897.619)"/>
        <path id="패스_344" d="M1301.383 1039.979c6.569-11.331 4.981-18.943-.742-17.689-.331.071-.76.232-1.095.333-13.135 6.021-20.442 31.831-15.184 33.03 3.456.789 12.053-7.125 17.021-15.674zm-11.237 8.556c-4.03.543-1.168-8.3 2.678-13.358 3.559-4.7 7.308-5.84 7.686-2.319.183 1.713-.6 4.367-2.064 7.063-1.6 2.935-5.12 7.649-8.301 8.614z" class="cls-1" transform="translate(-1111.251 -873.534)"/>
        <path id="패스_345" d="M1240.773 1060.484c13.215 4.895 17.136-1.258 13.181-9.775-.183-.4-.453-.925-.656-1.3-4.528-8.123-15.7-15.067-25.147-12.424-10.807 4.715-1.565 18.237 12.622 23.499zm-9.049-15.273c2.255-3.542 11.042-1.4 15.09 4.86.364.581 3.513 5.69-1.146 6.991-6.902 1.045-16.816-7.369-13.944-11.851z" class="cls-1" transform="translate(-1160.27 -861.732)"/>
        <path id="패스_346" d="M1270.83 1060.293c-9.323-.219-9.323-.219-13.765-.936-3.427-.563-7.129-1.38-10.093-2.02-7.245-1.584-11.762-2.519-13.455-1.932-.038.061-.1.132-.142.188.749 2.927 23.2 6.802 37.455 4.7zm-16.214-.728c2.424.366 4.876.439 7.286.943l-.013.036c-4.273.565-18.839-1.1-19.749-2.539.396-.266.396-.266 12.476 1.56z" class="cls-1" transform="translate(-1152.036 -846.155)"/>
        <path id="패스_347" d="M1274.482 1045.4c-.168-8.9-9.543-16.364-21.843-13.067-15.246 5.787-10.672 20.705.611 26.078 12.35 5.882 21.375-3.844 21.232-13.011zm-22.616-3c3.626-5.1 13.623-4.065 15.186 3.062a6.774 6.774 0 0 1 .142.793 7.474 7.474 0 0 1-5.75 8.011c-7.815 1.279-13.112-6.88-9.577-11.866z" class="cls-1" transform="translate(-1144.149 -865.769)"/>
        <path id="패스_348" d="M1268.307 1061.01a2.2 2.2 0 0 0-.49-.212 27.228 27.228 0 0 1-5.7-2.338c-4.284-2.113-13.195-6.52-19.289-4.805-3.394 1.62.647 4.129 3.981 5.332 8.41 3.026 20.091 2.452 21.498 2.023zm-5.984-.342c-4.109.647-15.122-1.91-13.743-3.712.406-.5 3.069-1.17 10.556 1.859 3.3 1.329 3.4 1.561 3.453 1.685a.6.6 0 0 1-.266.168z" class="cls-1" transform="translate(-1145.271 -847.779)"/>
        <path id="패스_349" d="M1282.009 1056.55c9.389-5.6 13.348-10.749 11.928-11.4a3.038 3.038 0 0 0-1.61.2c-2.872 1.206-2.872 1.206-16.312 11.894a50.941 50.941 0 0 1-10.517 6.79 77.108 77.108 0 0 0 16.511-7.484zm2.067-4.032c2.15-1.431 3.517-2.027 3.648-1.612.176.508-1.937 2.707-6.357 5.5a50.567 50.567 0 0 1-8.647 4.462.446.446 0 0 0-.1.009c.1-.377 11.339-8.287 11.456-8.359z" class="cls-1" transform="translate(-1125.444 -854.546)"/>
        <path id="패스_350" d="M1189.058 1010.884c.075-3.061.2-6.332.386-9.2-.554 8.019-.755 11.61-.373 15.271.25 2.685.493 6.291.846 8.967l-.046-.5c-.214-4.19.179-13.23.431-18.251.143-2.862.917-17.32 1.9-21.943-.777 3.678-1.674 8.4-2.312 12.458-.3 3.124-.528 6.9-.614 8.653-.097 1.622-.154 3.17-.218 4.545z" class="cls-1" transform="translate(-1188.874 -904.105)"/>
        <path id="패스_351" d="M1258.432 944.786c18.558 4.717 15.109 1.1 14.955.943-1.113-1.128-5.29-2.778-11.813-3.747a83.567 83.567 0 0 0-21.8-.175c6.393.169 7.726.193 18.658 2.979zm.843-2.61c4.332.686 6.918 1.74 6.169 2.153a1.266 1.266 0 0 1-.218.069c-2.606.388-17.459-2.718-17.541-2.751.292-.247 6.15-.314 11.59.529z" class="cls-1" transform="translate(-1146.742 -940.567)"/>
        <path id="패스_352" d="M1279.944 1050.967c-2.431 1.323-5.173 2.661-7.794 3.857-.082.046-.168.1-.25.148a88.211 88.211 0 0 0 8.044-4.005z" class="cls-1" transform="translate(-1120.145 -849.683)"/>
        <path id="패스_353" d="M1189.252 995.137c.093-.715.2-1.481.325-2.254.064-.658.139-1.279.2-1.859z" class="cls-1" transform="translate(-1188.562 -899.304)"/>
        <path id="패스_354" d="M1294.295 1050.042c.1-.061.252-.13.334-.174a8.983 8.983 0 0 1-1.6 1.338c1.121-.764 2.221-1.524 3.188-2.226l.812-.61c3.822-2.978 4.884-4.1 5.112-4.507-.108.025-.24.055-.333.086-6.787 4.021-12.727 9.289-19.525 13.283a91.063 91.063 0 0 1-15.368 7.273c2.027-.658 5.566-2.078 9.36-3.8 2.817-1.683 5.827-3.014 8.653-4.71 3.183-1.906 6.181-4.071 9.367-5.953z" class="cls-1" transform="translate(-1124.27 -855.564)"/>
        <path id="패스_355" d="M1212.628 988.13c6.443 2.82 17.889-5.427 20.74-17.746 1.243-5.385 1.126-15.75-7.26-13.432-13.374 5.24-22.82 27.097-13.48 31.178zm4.919-19.58c3.928-5.5 9.457-7.589 10.311-2.19a10.559 10.559 0 0 1-.45 4.571c-.832 2.793-3.535 7.887-8.39 9.23-5.626.828-5.595-5.838-1.471-11.61z" class="cls-1" transform="translate(-1172.318 -927.785)"/>
        <path id="패스_356" d="M1283.971 1047.88c-2.067 1.393-4.255 2.793-6.112 4 2.553-1.536 4.73-2.98 6.112-4z" class="cls-1" transform="translate(-1115.212 -852.238)"/>
        <path id="패스_357" d="M1276.3 1051.71c.874-.474 1.7-.95 2.48-1.406.119-.08.247-.161.368-.234-.589.351-1.2.708-1.831 1.064-.342.201-.682.384-1.017.576z" class="cls-1" transform="translate(-1116.501 -850.425)"/>
        <path id="패스_358" d="M1189.186 995.02c.031-.563.068-1.139.12-1.746-.052.556-.093 1.144-.12 1.746z" class="cls-1" transform="translate(-1188.616 -897.442)"/>
        <path id="패스_359" d="M1292.941 986.323c-2.565-9.051-13.1-19.664-26.244-16.028-17.328 6.957-12.926 29.985 2.921 36.644 14.54 6.119 27.623-5.439 23.323-20.616zm-14.352 12.151c-10.124 1.623-16.585-9.739-11.926-16.765 4.615-6.951 15.844-3.634 18.211 5.394.812 3.097.534 9.458-6.286 11.371z" class="cls-1" transform="translate(-1133.666 -917.071)"/>
        <path id="패스_360" d="M1254.7 941.227c-1.214-.119-2.395-.2-3.495-.273l3.6.282a.468.468 0 0 0-.105-.009z" class="cls-1" transform="translate(-1137.273 -940.753)"/>
        <path id="패스_361" d="M1293.452 962.828a26.588 26.588 0 0 0-5.509-6.024c-7.646-6.353-19.8-11.089-24.548-9.567-5.639 3.347 11.614 20.492 23.374 23.219 7.211 1.661 10.267-1.83 6.683-7.628zm-23.222-10.808c1.374-1.866 8.87.876 13.589 4.979 2.61 2.254 5.3 5.988 2.049 7.017-6.386.918-17.706-9.196-15.639-11.996z" class="cls-1" transform="translate(-1128.098 -935.789)"/>
        <path id="패스_362" d="M1264.866 941.451l-1.581-.124a52.054 52.054 0 0 1 9.11 1.45l-.022.031a27.14 27.14 0 0 1-3.665-.411c-2.25-.3-4.88-.653-7.708-.914-3.392-.322-6.809-.36-10.2-.537a77.362 77.362 0 0 1 8.885.1l-1.3-.1-.45-.024c-10.9-.358-16.933.649-16.964.662 12.281-1.1 20.713-.1 34.97 2.59 4.045.768 5.074.921 5.756.883-.459-.793-9.557-2.857-16.831-3.606z" class="cls-1" transform="translate(-1145.75 -940.844)"/>
        <path id="패스_363" d="M1298.689 1017.258c.214-10.19-7.558-22.7-22.173-18.611-18.26 7.39-17.925 32.058-3.456 38.735 11.674 5.411 25.34-5.317 25.629-20.124zm-7.832-.384c.027.333.038.773.038 1.1 0 3.39-1.76 9.612-8.338 11.433-9.746 1.574-13.855-10.267-8.3-17.461 5.675-7.376 15.765-4.388 16.6 4.929z" class="cls-1" transform="translate(-1127.937 -893.651)"/>
        <path id="패스_364" d="M1271.215 1057.112c7.448 3.164 17.379-6.831 20.428-15.116 3.577-9.719-1.011-18.216-12.473-15.069-16.443 6.349-17.633 26.073-7.955 30.185zm2.817-18c4.109-5.895 11.417-6.286 12.405-.651a9.054 9.054 0 0 1-.356 4.037c-.72 2.374-3.367 7.227-8.168 8.554-6.244 1.008-7.676-6.471-3.881-11.94z" class="cls-1" transform="translate(-1125.779 -870.134)"/>
        <path id="패스_365" d="M1229.579 951.862A70.169 70.169 0 0 1 1245 943.58c-.053.005-.132.031-.188.042-18.128 5.56-32.612 16.7-32.384 19.161.247.148.728.428 4.356-1.879 4.406-2.811 8.474-6.094 12.795-9.042zm7.061-4.979c-.132.144-.132.144-.94.61-1.614.892-3.588 2.005-7.1 4.248-8.021 5.131-8.021 5.131-8.892 5.4 0 0-.154-.007-.2-.058.428-1.836 13.502-9.151 17.132-10.2z" class="cls-1" transform="translate(-1169.381 -938.579)"/>
        <path id="패스_366" d="M1258.91 974.556c12.367 5.282 23.356-1.689 18.651-11.846a17.526 17.526 0 0 0-1.59-2.672c-4.155-5.7-15.092-12.186-23.489-9.857-9.85 4.062-5.91 19.103 6.428 24.375zm-4.027-17.71c2.756-4.158 11.539-1.208 14.783 3.847 1.36 2.131 2.543 6.573-2.866 8.075-8.583 1.407-14.828-7.524-11.917-11.922z" class="cls-1" transform="translate(-1140.816 -933.518)"/>
        <path id="패스_367" d="M1239.253 1013.864c14 6.154 30.523-6.383 28.5-21.658-1.228-9.36-10.864-20.185-25.743-16.205-18.724 7.075-17.865 31.206-2.757 37.863zm-.528-25.072a10.453 10.453 0 0 1 19.009 3.462 8.873 8.873 0 0 1 .168 1.082 11.147 11.147 0 0 1-8.678 11.864c-10.31 1.669-15.536-9.03-10.499-16.408z" class="cls-1" transform="translate(-1156.54 -912.442)"/>
        <path id="패스_368" d="M1197.2 1029.676c.389.7.764 1.356 1.1 1.9-.335-.576-.71-1.233-1.1-1.9z" class="cls-1" transform="translate(-1181.981 -867.308)"/>
        <path id="패스_369" d="M1193 993.257c1.12-2.541 5.03-9.753 8.874-16.1 6.209-10.276 10.592-15.606 12.188-17.423-.439.47-1.023 1.119-1.457 1.6-2.791 3.411-4.436 5.419-5.635 6.938-1.051 1.451-2.935 4.177-5.4 8.178-.932 1.517-1.793 2.943-2.51 4.2.323-.58.656-1.168.989-1.753a73.253 73.253 0 0 0-5.242 10.089z" class="cls-1" transform="translate(-1185.459 -925.207)"/>
        <path id="패스_370" d="M1193.059 1021.283c.192.481.406.969.62 1.479-.035-.1-.064-.194-.106-.289-.18-.417-.361-.806-.514-1.19z" class="cls-1" transform="translate(-1185.41 -874.255)"/>
        <path id="패스_371" d="M1197.158 1030.3c-1.131-2.424-2.562-5.474-3.76-8.207a59.173 59.173 0 0 0 3.76 8.207z" class="cls-1" transform="translate(-1185.13 -873.586)"/>
        <path id="패스_372" d="M1198.646 1032.237c-.177-.311-.345-.633-.525-.962-.738-1.279-1.6-2.8-2.667-4.694.876 1.712 2.094 3.768 3.192 5.656z" class="cls-1" transform="translate(-1183.427 -869.869)"/>
        <path id="패스_373" d="M1200.859 964.343c.122-.17.25-.344.382-.508-.095.121-.225.287-.382.508z" class="cls-1" transform="translate(-1178.953 -921.811)"/>
        <path id="패스_374" d="M1192.994 978.135l.011-.061v.027z" class="cls-1" transform="translate(-1185.464 -910.024)"/>
        <path id="패스_375" d="M1201.058 964.113c-.143.2-.285.395-.439.6a.267.267 0 0 0 .044-.068c.15-.203.285-.378.395-.532z" class="cls-1" transform="translate(-1179.152 -921.582)"/>
        <path id="패스_376" d="M1306.2 990.639c-5.1 6.152-3.427 42.025-.941 41.464 1.33-.3 2.54-4.789 3.591-13.33.764-11.2.764-11.2.466-17.019l-.06-1.082-.082-1.261c-.622-6.798-1.574-9.587-2.974-8.772zm2.913 21.778c-.168 3.2-.828 9.413-2.113 10.124-2.939-.194-.965-20.7.539-21.934 1.166-.956 1.945 4.885 1.573 11.811z" class="cls-1" transform="translate(-1094.501 -899.737)"/>
        <path id="패스_377" d="M1198.279 970.578c1.268-1.815 2.853-4.175 4.277-6.136a72.029 72.029 0 0 0-4.277 6.136z" class="cls-1" transform="translate(-1181.089 -921.309)"/>
        <path id="패스_378" d="M1195.232 1027.4c1.446 3.261 3.509 7.374 3.99 8.3.74 1.471 1.658 3.252 2.542 4.889a70.676 70.676 0 0 0 6.194 9.605l1.23 1.641-.23-.318c-2.157-3.261-5.659-10-8.2-15.089-.086-.157-8.214-16.379-9.705-21.1.427 1.413 1 3.3 1.427 4.721 1.187 3.188 2.044 5.517 2.752 7.351z" class="cls-1" transform="translate(-1187.069 -879.183)"/>
        <path id="패스_379" d="M1309.367 1027.927c2.119-4.7 2.857-7.149 2.4-7.905a1.134 1.134 0 0 0-.6.144c-4.321 3.628-19.929 32.826-20.229 34.2.048.055.119.122.179.2 1.795-.872 6.975-7.262 11.1-13.672 2.153-3.664 4.948-8.591 6.861-12.376zm-6.061 11.031c-2.51 4.05-5.293 7.726-6.222 8.176a.757.757 0 0 0-.13-.1c.175-1.5 9.647-18.335 11.053-18.179.437.785-2.083 5.855-4.701 10.103z" class="cls-1" transform="translate(-1104.38 -875.303)"/>
        <path id="패스_380" d="M1312.093 999.846c2.473-.663-3-14.352-9.026-24.672l-2.4-3.88-.026-.02c-4.105-6.147-6.779-8.89-7.964-8.172-1.343 2.648 5 15.831 7.343 20.25 5.997 11.348 10.62 16.889 12.073 16.494zm-13.6-28.967c.8-.863 4.42 4 7.445 10.011 1.492 2.954 4 8.711 2.873 9.417-3.329-.107-11.359-18.307-10.317-19.428z" class="cls-1" transform="translate(-1103.096 -922.511)"/>
        <path id="패스_381" d="M1268.076 1057.494c.8-4.506-4.195-8.408-11.166-6.542-6.341 2.442-4.847 7.474.813 9.894 6.202 2.638 9.486 1.572 10.353-3.352zm-2.976.333c0 .1.256 2.4-1.764 2.939-2.711.459-7.355-2.46-5.613-4.891 1.661-2.309 6.962-1.453 7.377 1.952z" class="cls-1" transform="translate(-1135.977 -850.09)"/>
        <path id="패스_382" d="M1223.9 1053.381l-.5-.254a1.349 1.349 0 0 0 .258.136z" class="cls-1" transform="translate(-1160.295 -847.895)"/>
        <path id="패스_383" d="M1216.827 1049.631c-1.064-.708-2.281-1.519-3.712-2.49 1.122.784 2.393 1.636 3.712 2.49z" class="cls-1" transform="translate(-1168.808 -852.85)"/>
        <path id="패스_384" d="M1216.442 1050.2c1.767 1.318 3.834 2.8 5.8 4.14.364.24.692.459 1.031.687-.188-.112-.368-.229-.55-.347a74.977 74.977 0 0 0 10.333 6.167l4.75 2.285a118.5 118.5 0 0 1-13.957-8.379 191.188 191.188 0 0 1-17.85-13.7c.132.135.307.309.439.446 3.809 3.5 5.7 5.244 7.3 6.586l-.254-.19c.135.115.278.227.417.34 1.49 1.254 2.738 2.179 5.112 3.957z" class="cls-1" transform="translate(-1174.701 -857.895)"/>
        <path id="패스_385" d="M1193.209 1021.656c-.108-.272-.228-.556-.333-.825.094.261.215.546.333.825z" class="cls-1" transform="translate(-1185.561 -874.629)"/>
        <path id="패스_386" d="M1281.156 950.245l-.813-.431c-7.048-3.7-10.185-4.56-10.592-4.246 1.386 2.341 31.537 23.65 33.65 22.155.161-2.473-12.515-11.568-15.8-13.632zm15.045 11.139a.42.42 0 0 0-.108.073c-1.8.024-17.543-10.451-17.706-11.8 1.031-.263 6.757 2.9 11 5.8 3.395 2.316 6.837 5.102 6.813 5.926z" class="cls-1" transform="translate(-1121.924 -936.984)"/>
        <path id="패스_387" d="M1220.714 959.8c.044.022 4.738 1.837 15.105-10.289a43.7 43.7 0 0 1 6.348-6.31.568.568 0 0 0-.322.038c-13.637 4.314-24.788 14.787-21.131 16.561zm12.891-10.124c-4.412 4.292-6.421 4.84-7.068 5.021-1.734.239-.656-1.3-.289-1.764 2.484-3.226 9.9-7.28 10.817-7.1.125.192-1.045 1.493-3.459 3.846z" class="cls-1" transform="translate(-1163.099 -938.898)"/>
        <path id="패스_388" d="M1284.031 965.684c-11.413 5.946-.254 31.894 12.63 36.567 9.889 3.575 14.858-6.726 9.485-19.7-4.23-10.173-14.115-19.371-22.115-16.867zm15.012 27.479c-7.962 1.095-14.973-13.464-11.025-18.514 2.954-3.751 10.2.671 13.177 8.017 1.205 3.013 2.324 9.079-2.152 10.498z" class="cls-1" transform="translate(-1114.029 -920.625)"/>
        <path id="패스_389" d="M1232.495 955.219c5.087 2.175 13.266-3.138 11.049-8.71-.876-2.179-3.767-4.257-5.341-3.827-5.076 1.837-11.453 10.078-5.708 12.537zm2.342-8.71c3.03-4.037 5.348-1.727 5.551.364.157 1.561-.881 3.555-3.52 4.272-3.346.546-3.92-2.145-2.032-4.636z" class="cls-1" transform="translate(-1154.644 -939.37)"/>
        <path id="패스_390" d="M1196.854 972.217c.716-1.223 1.567-2.661 2.6-4.418-.82 1.311-1.715 2.857-2.6 4.418z" class="cls-1" transform="translate(-1182.269 -918.53)"/>
    </g>
</svg>
