<svg xmlns="http://www.w3.org/2000/svg" width="215" height="214.817" viewBox="0 0 215 214.817">
    <defs>
        <style>
            .cls-2{fill:#fe573d}
        </style>
    </defs>
    <g id="그룹_382" transform="translate(-3456.007 -3101.672)">
        <g id="그룹_381" transform="translate(3456.007 3101.672)" style="isolation:isolate">
            <g id="그룹_380">
                <path id="패스_867" d="M3589.667 3128.851c-14.42-12.049-25.962-18.745-41.18-23.874l-.5-.156.851.257c2.891.917 3.061.971 4.68 1.547a110.493 110.493 0 0 1 14.285 6.295c7.578 4.359 8.75 5.026 14.594 9.345 1.861 1.525 4.4 3.493 6.192 5.085a7.151 7.151 0 0 1 1.082 1.5zm8.993 10.671c.343-.957.423-1.183-.521-2.554l-3.164-3.459c-7.465-7.249-7.754-7.531-12.582-11.242-7.312-5.187-8.245-5.854-14.594-9.345a112.288 112.288 0 0 0-14.285-6.295c-3.089-1.062-3.089-1.062-4.68-1.547-2.114-.628-2.114-.628-3.224-.927l-.261-.072 3.917 1.289c26.926 10.742 43.252 27.754 49.393 34.154z" class="cls-2" transform="translate(-3409.854 -3100.429)"/>
                <path id="패스_868" d="M3577.809 3120.092l-.7-.573c-3.528-2.351-8.326-5.326-12-7.436a112.288 112.288 0 0 0-14.285-6.295l-.243-.087c11.581 4.5 16.422 7.055 27.235 14.391z" class="cls-2" transform="translate(-3407.156 -3099.591)"/>
                <path id="패스_869" d="M3615.269 3201.365c-11.678 1.165-11.678 1.165-55.49 4.723-4.369-7.142-4.369-7.142-34.935-52.927 5.966-10 5.966-10 25.149-40.05 19.491-.789 21.531-.874 26.825-1.371a215.87 215.87 0 0 1 38.775 34.366c5.775 18.587 5.687 32.532-.325 55.259zm5.761 14.177c7.918-24.675 10.451-45.1-1.359-70.616a171.328 171.328 0 0 0-48.465-38.571c-2.673.42-2.673.42-25.126 1.105-18.471 19.06-31.566 39.47-36.494 47.155 13.973 22.418 29.118 44.078 42.865 66.646 57.682-4.406 57.682-4.406 68.58-5.719z" class="cls-2" transform="translate(-3428.329 -3099.254)"/>
                <path id="패스_870" d="M3591.182 3172.3c-8.39.635-8.39.635-29.032 2.066-6.362-9.134-8.284-11.888-19.574-27.074a252.94 252.94 0 0 0 9.654-23.851c8.077-.416 14.459-.742 20.4-1.141 6.021 5.869 12.236 11.938 20.72 21.648a93.844 93.844 0 0 1-2.169 28.351zm8.4 13.453c2.325-10.619 5.516-25.154 1.435-42.675a261.96 261.96 0 0 0-30.47-29.267c-6.843.509-9.308.626-25.333 1.368-4.263 9.018-5.488 11.3-17.179 33.117 20.677 29.352 21.487 30.5 28.057 40.856 38.538-2.952 38.538-2.952 43.491-3.4z" class="cls-2" transform="translate(-3418.802 -3095.399)"/>
                <path id="패스_871" d="M3539.14 3103.149c.012-.143.038-.334.05-.479l.54-.049.2.034a10.377 10.377 0 0 0 1.7.284c2.441.439 3.3.637 3.3.637l.02.006c-.384-.059-1.556-.228-5.807-.432zm11.8 1.926l-2-.581-.206-.048c-.67-.165-1.347-.32-2.025-.478-.59-.134-1.19-.256-1.782-.39-.487-.1-1.638-.336-1.668-.336-1.112-.211-2.238-.312-3.336-.587-.62-.1-1.245-.187-1.865-.282l-.552-.08c-2.205-.053-3.793-.091-2.5 3.105 15.745-.1 15.745-.1 15.935-.323z" class="cls-2" transform="translate(-3415.436 -3101.358)"/>
                <path id="패스_872" d="M3533.9 3262.723c-16.065 2.7-21.088 4.625-25.176 7.451-17.73-13.828-27.306-22.914-37.974-36.008-7.639-22.376-8.425-38.161-3.1-62.552 12.9-6.677 24.56-10.017 48-13.757 7.531 12.16 7.531 12.16 35.881 53.757-10.745 24.813-14.705 36.28-17.625 51.108zm6.462 8.514c4.606-15.611 9.5-26.4 26.515-61-14.265-22.426-29.542-44.192-43.264-66.96-26.2 3.569-44.172 7.418-58.536 16.566-7.3 25.225-9.342 48.261 4.438 78.645 6 7.5 17.171 21.46 47.3 40.758 1.538-2.469 4.63-5.114 23.546-8.006z" class="cls-2" transform="translate(-3454.271 -3080.181)"/>
                <path id="패스_873" d="M3514.813 3234.942c-7.472 1.483-12.879 2.559-19.129 4.982a278.815 278.815 0 0 1-20.69-22.5c-1.541-10.966-2.342-18.665-.454-33.023a146.029 146.029 0 0 1 25.687-6.967c6.43 9 8.37 11.72 20.727 27.881-3.111 10.976-5.071 18.443-6.141 29.628zm8.978 10.3c1.286-8.459 2.894-18.986 11.585-41.761-18.457-25.625-22.3-30.959-29.227-41.873-10.642 1.971-25.215 4.677-38.032 10.707-1.823 11.626-4.319 27.555 1.829 48.925 5.806 6.985 13.034 15.683 30.062 30.535 3.843-1.818 8.2-3.881 23.783-6.533z" class="cls-2" transform="translate(-3450.826 -3070.712)"/>
                <path id="패스_874" d="M3517.361 3141.71c-21.344 3.133-32.458 6.072-44.036 11.647 1.491-7.143 2.889-13.892 13.168-23.834 3.428-2.875 8.1-6.6 11.72-9.233 9.092-5.709 9.268-5.816 14.47-8.3 9.538-4.108 9.911-4.271 15.77-6.03 8.423-2.178 9.716-2.513 16.975-3.534a116.027 116.027 0 0 1 20-.563c-5.68.237-9.157.772-9.484 6.17a141.9 141.9 0 0 0-34.389 28.8c-1.265 1.464-2.507 3.955-4.2 4.886zm5.109 10.473c5.935-8.261 21.7-30.193 41.846-44.458-.734-3.584-.7-5.741 5.869-5.495a116.81 116.81 0 0 0-24.756.191c-8.557 1.356-9.873 1.563-16.975 3.534-9.836 3.3-10.222 3.427-15.77 6.03-9.5 4.965-9.689 5.063-14.47 8.3-8.681 6.409-8.845 6.534-12.988 10.4-3.32 3.353-7.6 7.971-10.665 11.559-4.083 5.763-8.708 12.295-9.3 25.482 13.228-7.815 28.2-11.884 57.208-15.55z" class="cls-2" transform="translate(-3451.226 -3101.672)"/>
                <path id="패스_875" d="M3508.331 3125.5c-8.253 1.555-13.809 2.685-21.3 5.28 2.8-5.484 5.009-9.174 12.011-14.179 10.39-5.652 17.686-9.313 31.372-12.516a106.762 106.762 0 0 1 13.581-1.622c-5.027 1.446-8.253 2.615-10.507 6.655a119.058 119.058 0 0 0-23.795 15.257 7.892 7.892 0 0 1-1.359 1.125zm.883 8.264c7.058-6.934 17.73-17.412 33.541-25.362 1.169-3.144 2.275-6.112 12.618-6.718a113.892 113.892 0 0 0-15.482.729c-8.557 1.356-9.873 1.563-16.975 3.534-9.836 3.3-10.222 3.427-15.77 6.03-9.5 4.965-9.689 5.063-14.47 8.3l-.485.331c-8.673 6.616-12.85 11.091-16.2 21.71 5.281-2.1 14.119-5.607 32.048-8.376a4.331 4.331 0 0 0 1.18-.182z" class="cls-2" transform="translate(-3445.687 -3101.669)"/>
                <path id="패스_876" d="M3537.55 3257.209c-8.614-1.331-8.948-1.385-14-3-.838-.279-1.951-.654-2.781-.945a108.987 108.987 0 0 1-16.837-7.693c-7.955-4.873-8.779-5.387-14.25-9.671-2.16-1.872-5.078-4.319-7.148-6.28a25.986 25.986 0 0 1-4.276-5.214c12.208 10.956 23.117 17.982 40.236 25.914 7.983 3.626 9.886 4.486 19.059 6.892zm0 0c-6.8-2.043-12.685-3.8-20.52-8.677-27.127-14.5-39.613-26.607-48.25-36.534a18.969 18.969 0 0 0 3.182 5.85c1.632 1.958 3.749 4.625 5.461 6.515 7.3 7.463 7.589 7.755 12.256 11.535 7.487 5.6 8.265 6.186 14.25 9.671a109.042 109.042 0 0 0 16.837 7.693c3.089 1.059 3.089 1.059 4.68 1.544.5.146 1.16.352 1.656.494 3.107.713 7.286 1.517 10.448 1.908z" class="cls-2" transform="translate(-3449.409 -3044.68)"/>
                <path id="패스_877" d="M3531.1 3249.816c-10.8-1.982-14.847-2.731-27.439-8.4a59.193 59.193 0 0 1-9.687-5.734 130.747 130.747 0 0 0 23.4 10.335c4.081 1.268 9.565 2.83 13.728 3.8zm0 0c-10.191-2.669-10.8-2.826-16.988-5.43-7.447-3.086-19.908-8.261-32.846-18.076a37.048 37.048 0 0 0 5.668 5.041c3.111 2.122 7.313 4.883 10.545 6.825a114.664 114.664 0 0 0 14.606 6.87c9.657 3.226 10.236 3.421 19.015 4.77z" class="cls-2" transform="translate(-3442.959 -3037.287)"/>
                <path id="패스_878" d="M3463.321 3228.958l.155.4c-1.078-3.1-2.554-7.208-3.48-10.352-2.548-10.692-2.592-10.9-3.25-16.558-.838-11.154-.85-11.371-.585-17.165.38-4.4 1-10.264 1.679-14.627 1.057-4.665 2.633-10.843 4.028-15.413-.74 2.672-1.629 6.257-2.092 8.989-3.832 17.365-6.709 36.67 3.546 64.722zm4.87 9.463c-10.166-23.19-14.792-45.57-4.348-79.443.544-6.679 1.007-12.457 5.482-20.625-2.257 4.517-5.024 10.662-6.914 15.337-3.426 10.9-3.488 11.112-4.573 16.97-.619 4.371-1.351 10.222-1.679 14.627-.067 11.456-.067 11.456.585 17.165 1.725 11.088 1.725 11.088 3.25 16.558 3.406 10.556 3.406 10.556 5.743 15.677 1.277 2.53 2.909 5.925 4.289 8.393-.646-1.357-1.324-3.25-1.837-4.659z" class="cls-2" transform="translate(-3456.007 -3082.723)"/>
                <path id="패스_879" d="M3514.126 3249.341a103.28 103.28 0 0 0 18.41 1.811c11.6-.226 27.494-.543 48.21-10.46l-5.526 2.521c-9.422 3.586-9.988 3.8-16.1 5.347a106.871 106.871 0 0 1-38.569 2.305 29.936 29.936 0 0 1-6.421-1.524zm0 0a29.936 29.936 0 0 0 6.421 1.524 106.871 106.871 0 0 0 38.569-2.305c9.681-2.755 10.263-2.922 16.1-5.347 9.694-4.527 9.879-4.617 14.858-7.682 3.55-2.4 8.226-5.684 11.606-8.3l-.349.263c-16.708 12.375-37.133 23.766-73.249 23.3-7.657-.447-8.46-.5-13.96-1.448z" class="cls-2" transform="translate(-3425.984 -3036.812)"/>
                <path id="패스_880" d="M3520.834 3243.919c-1.277-.261-2.475-.5-6.261-1.4a90.345 90.345 0 0 0 24.837 2c2.795-.235 6.538-.491 9.327-.872-2.094.234-4.883.6-6.985.768a114.455 114.455 0 0 1-16.506-.029l-4.412-.466zm-6.708-1.51c2.213.581 5.184 1.306 7.446 1.641a117.647 117.647 0 0 0 20.18.364 115.468 115.468 0 0 0 17.365-2.786l3.7-.979c-9.844 2.382-14.332 3.471-26.86 3.784-8.223-.059-11.983-.086-21.834-2.023z" class="cls-2" transform="translate(-3425.984 -3029.88)"/>
                <path id="패스_881" d="M3600.165 3206.135c5.385-23.637 4.484-38.664-3.564-59.527a5.614 5.614 0 0 0-.249-1.821l.576 1.156c4.465 10.112 4.465 10.112 6.132 15.513 2.869 10.8 2.869 10.8 3.673 16.431 1.125 11.1 1.148 11.313 1.03 17.083-.684 11.4-.69 11.614-1.771 17.482-2.36 10.446-2.792 12.326-6.316 21.5-4.721 10.292-4.721 10.292-7.709 15.174l-1.829 2.885c5.3-8.954 7.222-12.772 9.621-23.759 1.6-7.34.025-14.75.406-22.118zm-21.822 60.692l.4-.372 3.358-3.755c6.893-8.734 6.893-8.734 9.865-13.574 5.411-9.663 5.518-9.85 7.709-15.174 3.538-9.7 4.278-11.717 6.316-21.5 1.661-11.614 1.661-11.614 1.771-17.482-.225-11.388-.225-11.388-1.03-17.083-2.009-11-2.009-11-3.673-16.431-3.667-10.446-3.667-10.446-6.132-15.513-2.161-4.021-5.19-9.3-7.625-13.168.576 1.231.729 1.561.085 2.71 9.542 20.067 13.771 40.048 3.39 72.336 3.94 21.379 2.909 38.706-14.435 59.007z" class="cls-2" transform="translate(-3392.811 -3085.606)"/>
                <path id="패스_882" d="M3599.961 3194.187c.8-11.315.83-11.757-.05-21.726.346 4.4.684 10.289.72 14.7-.684 11.4-.69 11.614-1.771 17.482l-.011.072c.42-3.144.907-7.356 1.112-10.532zm-2.686 2.41c.138 12.378-.625 18.848-5.127 30.506l.4-.954c3.538-9.7 4.278-11.717 6.316-21.5 1.661-11.614 1.661-11.614 1.771-17.482-.225-11.388-.225-11.388-1.03-17.083-2.009-11-2.009-11-3.673-16.431l-1.957-5.774.179.784c5.686 19.083 5.54 20.71 3.124 47.935z" class="cls-2" transform="translate(-3385.679 -3077.803)"/>
                <path id="패스_883" d="M3514.126 3241.809l3.494.5c-1.052-.15-2.446-.347-3.494-.5z" class="cls-2" transform="translate(-3425.984 -3029.28)"/>
                <path id="패스_884" d="M3542.193 3269.681c-18.583-.382-18.583-.382-20.832-.376 8.24-2.8 9.762-7.564 6.025-18.859 14.625-20.549 20.847-29.761 30.263-44.792 44.624-2.865 44.624-2.865 52.448-3.529 2.183 17.177 1.2 28.636-10.2 43.619-27.975 19.917-49.669 23.376-57.7 23.938zm-10.53 1.3c21.593-.967 45.354-4.849 72.748-26.482 14.941-17.007 18.621-32.391 13.573-56.764-8.227.88-8.227.88-67.127 5.1-10.642 19.506-22.256 38.483-31.988 58.485 2.747 5.521 9.187 18.44-4.744 18.428 5.85.384 11.666 1.185 17.538 1.237z" class="cls-2" transform="translate(-3425.984 -3057.214)"/>
                <path id="패스_885" d="M3552.117 3254.123c-6.524.125-11.236.216-16.3.354 2.276-3.37 4.24-6.289 3.7-14.042a254.988 254.988 0 0 0 20.935-21.922c21.26-1.145 21.26-1.145 25.945-1.421-.2 7.07-.373 13.173-4.706 21.362-20.952 13.7-29.5 15.654-29.577 15.669zm-7.562 4.375c10.2-2.826 25.612-7.087 44.711-20.727 4.146-6.646 9.3-14.918 7.521-33.051-4.75.331-4.75.331-40.045 2.438a388.562 388.562 0 0 1-26.991 33.894c.975 5.469 2.313 12.965-5.06 17.544 6.62-.107 13.245.812 19.863-.1z" class="cls-2" transform="translate(-3420.526 -3048.439)"/>
                <path id="패스_886" d="M3519.66 3246.545c-2.217-.816-5.187-1.884-7.32-2.9-1.306-1.55-.827-2.75 5.506-4.3 3.331 5.181 3.27 6.105 1.814 7.2zm0 0c2.868-.69 7.2-1.728-.459-13.9-11.627 1.967-16.053 3.843-15.774 6.685 3.679 2.126 12.618 7.086 16.233 7.217z" class="cls-2" transform="translate(-3431.518 -3034.016)"/>
                <path id="패스_887" d="M3515.127 3242.823c-.281-1.125-.3-1.212-1.659-2.977-.843.438-1.406.737-1.255 1.253.15.493.758.919 2.045 1.425l.869.3z" class="cls-2" transform="translate(-3426.985 -3030.294)"/>
            </g>
        </g>
    </g>
</svg>
