<svg xmlns="http://www.w3.org/2000/svg" width="198.956" height="231.662" viewBox="0 0 198.956 231.662">
    <defs>
        <style>
            .cls-1{fill:#fe573d}
        </style>
    </defs>
    <g id="그룹_364">
        <g id="그룹_175">
            <path id="패스_495" d="M210.388 1272.022l4.806-12.176 12.5 3.568.728-1.911-12.468-3.568 4.5-11.572-1.938-.551-4.519 11.566-12.47-3.558-.784 1.9 12.5 3.565-4.831 12.176z" class="cls-1" transform="translate(-34.204 -1213.97)"/>
            <path id="패스_496" d="M201.9 1293.665l4.814-12.176 12.894 3.677.731-1.911-12.879-3.68 4.8-12.166-2.007-.584-4.811 12.175-12.891-3.684-.766 1.9 12.9 3.687-4.827 12.176z" class="cls-1" transform="translate(-40.381 -1199.473)"/>
            <path id="패스_497" d="M193.514 1315.07l4.8-12.183 13.3 3.806.743-1.911-13.281-3.782 4.8-12.189-2.051-.581-4.839 12.17-13.286-3.8-.781 1.9 13.31 3.8-4.824 12.17z" class="cls-1" transform="translate(-46.498 -1184.706)"/>
            <path id="패스_498" d="M185.233 1335.938l4.563-11.648 13.713 3.9.734-1.914-13.686-3.915 4.8-12.169-2.119-.6-4.827 12.17-13.688-3.9-.79 1.895 13.736 3.918-4.6 11.652z" class="cls-1" transform="translate(-52.7 -1169.967)"/>
            <path id="패스_499" d="M187.572 1265.449l5.2-12.074 12.5 3.588.8-1.9-12.473-3.574 4.885-11.463-1.921-.548-4.926 11.457-12.468-3.575-.861 1.891 12.52 3.578-5.237 12.061z" class="cls-1" transform="translate(-49.679 -1218.339)"/>
            <path id="패스_500" d="M178.6 1286.962l5.189-12.071 12.924 3.687.777-1.895L184.6 1273l5.208-12.061-1.985-.581-5.23 12.067-12.9-3.677-.827 1.881 12.909 3.684-5.24 12.061z" class="cls-1" transform="translate(-56.189 -1203.936)"/>
            <path id="패스_501" d="M169.616 1308.2l5.2-12.064 13.317 3.806.8-1.9-13.307-3.786 5.215-12.057-2.068-.6-5.227 12.057-13.284-3.782-.845 1.871 13.312 3.8-5.227 12.064z" class="cls-1" transform="translate(-62.71 -1189.28)"/>
            <path id="패스_502" d="M160.89 1328.952l4.954-11.566 13.724 3.915.784-1.891-13.69-3.9 5.2-12.07-2.126-.6-5.217 12.054-13.7-3.9-.85 1.881 13.729 3.908-4.991 11.563z" class="cls-1" transform="translate(-69.23 -1174.625)"/>
            <path id="패스_503" d="M165.34 1259.041l5.593-11.955 12.513 3.581.842-1.881-12.458-3.575 5.3-11.348-1.933-.548-5.326 11.344-12.473-3.571-.908 1.868 12.5 3.568-5.628 11.948z" class="cls-1" transform="translate(-64.735 -1222.592)"/>
            <path id="패스_504" d="M155.65 1280.347l5.621-11.955 12.886 3.69.868-1.885-12.884-3.68 5.608-11.949-1.992-.568-5.634 11.942-12.889-3.684-.9 1.875 12.911 3.687-5.631 11.945z" class="cls-1" transform="translate(-71.743 -1208.32)"/>
            <path id="패스_505" d="M145.964 1301.413l5.6-11.949 13.322 3.786.865-1.868-13.292-3.8 5.61-11.952-2.055-.6-5.644 11.97-13.284-3.8-.908 1.862 13.313 3.8-5.641 11.955z" class="cls-1" transform="translate(-78.747 -1193.808)"/>
            <path id="패스_506" d="M136.522 1321.954l5.367-11.443 13.713 3.911.865-1.882-13.7-3.908 5.609-11.952-2.124-.6-5.624 11.948-13.695-3.9-.919 1.862 13.726 3.911-5.388 11.43z" class="cls-1" transform="translate(-85.759 -1179.285)"/>
            <path id="패스_507" d="M142.463 1252.461l6-11.846 12.51 3.575.9-1.868-12.468-3.561 5.709-11.249-1.923-.541-5.737 11.232-12.475-3.564-.97 1.841 12.5 3.562-6.035 11.853z" class="cls-1" transform="translate(-80.242 -1226.97)"/>
            <path id="패스_508" d="M132.317 1273.631l6.009-11.836 12.9 3.677.923-1.855-12.887-3.677 6.019-11.846-1.992-.564-6.042 11.843-12.881-3.684-.96 1.849 12.9 3.677-6.029 11.849z" class="cls-1" transform="translate(-87.563 -1212.786)"/>
            <path id="패스_509" d="M122.184 1294.575l6.029-11.846 13.308 3.8.911-1.865-13.3-3.786 6.02-11.853-2.065-.578-6.039 11.826-13.279-3.783-.97 1.848 13.312 3.8-6.032 11.83z" class="cls-1" transform="translate(-94.874 -1198.35)"/>
            <path id="패스_510" d="M112.278 1315l5.765-11.328 13.723 3.911.921-1.875-13.7-3.892 6.03-11.843-2.139-.611-6.034 11.836-13.691-3.9-.959 1.848 13.711 3.9-5.8 11.325z" class="cls-1" transform="translate(-102.194 -1183.922)"/>
        </g>
        <g id="그룹_176" transform="translate(151.007 48.378)">
            <path id="패스_511" d="M219.456 1275.061l-.046-6.615 4.35-11.79v-1.06l-4.363 11.813-.046-6.615-.695 1.865.066 6.591-4.359 11.82.018 1.01 4.342-11.793.069 6.6z" class="cls-1" transform="translate(-175.811 -1255.597)"/>
            <path id="패스_512" d="M219.459 1286.554l-.064-6.621 4.136-11.394v-1.05l-4.144 11.4-.051-6.618-.662 1.819.069 6.588-4.152 11.407.016 1.017 4.142-11.384.066 6.6z" class="cls-1" transform="translate(-175.653 -1247.391)"/>
            <path id="패스_513" d="M219.453 1298.041l-.059-6.615 3.949-10.988v-1.046l-3.949 10.995-.05-6.615-.642 1.74.059 6.595-3.941 11 .015 1.023 3.941-10.988.063 6.6z" class="cls-1" transform="translate(-175.494 -1239.179)"/>
            <path id="패스_514" d="M219.443 1309.532l-.04-6.611 3.74-10.575-.01-1.059-3.743 10.582-.043-6.615-.6 1.69.058 6.6-3.761 10.6.026 1.017 3.743-10.589.059 6.6z" class="cls-1" transform="translate(-175.343 -1230.973)"/>
            <path id="패스_515" d="M212.071 1295.239l-.236-6.218 4.339-11.8-.025-1-4.36 11.816-.246-6.215-.693 1.865.264 6.2-4.357 11.823.053.941 4.344-11.793.264 6.2z" class="cls-1" transform="translate(-181.058 -1241.365)"/>
            <path id="패스_516" d="M212.426 1306.011l-.254-6.205 4.151-11.387-.026-1-4.147 11.414-.272-6.219-.649 1.806.271 6.212-4.157 11.391.043.96 4.142-11.394.256 6.205z" class="cls-1" transform="translate(-180.655 -1233.644)"/>
            <path id="패스_517" d="M212.772 1316.811l-.249-6.225 3.941-10.988-.03-1-3.941 11.011-.271-6.225-.606 1.746.258 6.212-3.959 10.995.054.944 3.944-10.961.248 6.176z" class="cls-1" transform="translate(-180.259 -1225.926)"/>
            <path id="패스_518" d="M213.12 1327.586l-.253-6.208 3.743-10.579-.035-1.007-3.738 10.615-.266-6.222-.6 1.667.279 6.212-3.751 10.589.046.96 3.74-10.588.261 6.2z" class="cls-1" transform="translate(-179.856 -1218.205)"/>
            <path id="패스_519" d="M204.708 1315.4l-.444-5.812 4.342-11.79-.066-.941-4.36 11.806-.441-5.8-.692 1.862.464 5.793-4.362 11.82.081.878 4.35-11.783.461 5.793z" class="cls-1" transform="translate(-186.306 -1227.128)"/>
            <path id="패스_520" d="M205.4 1325.479l-.446-5.812 4.142-11.388-.056-.93-4.142 11.4-.455-5.816-.668 1.8.47 5.8-4.157 11.424.091.878 4.127-11.4.46 5.806z" class="cls-1" transform="translate(-185.662 -1219.89)"/>
            <path id="패스_521" d="M206.107 1335.56l-.459-5.819 3.943-10.975-.061-.941-3.946 11-.451-5.816-.637 1.733.47 5.8-3.954 11.008.079.888 3.959-10.978.441 5.789z" class="cls-1" transform="translate(-185.021 -1212.662)"/>
            <path id="패스_522" d="M206.812 1345.637l-.455-5.819 3.755-10.579-.074-.927-3.746 10.592-.46-5.809-.581 1.677.446 5.793-3.755 10.605.086.891 3.753-10.582.452 5.8z" class="cls-1" transform="translate(-184.381 -1205.427)"/>
            <path id="패스_523" d="M197.332 1335.571l-.642-5.407 4.339-11.8-.106-.878-4.349 11.823-.64-5.417-.72 1.868.68 5.38-4.345 11.826.107.815L196 1332l.67 5.41z" class="cls-1" transform="translate(-191.55 -1212.894)"/>
            <path id="패스_524" d="M198.382 1344.954l-.655-5.43 4.147-11.381-.091-.875-4.149 11.417-.664-5.42-.657 1.8.652 5.393-4.137 11.43.109.805 4.151-11.378.658 5.4z" class="cls-1" transform="translate(-190.667 -1206.147)"/>
            <path id="패스_525" d="M199.444 1354.317l-.654-5.42 3.933-10.978-.082-.875-3.959 11.014-.644-5.426-.634 1.737.657 5.393-3.954 11.011.127.835 3.943-10.975.655 5.38z" class="cls-1" transform="translate(-189.786 -1199.402)"/>
            <path id="패스_526" d="M200.47 1363.686l-.645-5.413 3.754-10.582-.1-.861-3.761 10.592-.644-5.413-.594 1.673.652 5.4-3.74 10.6.1.822 3.746-10.582.658 5.4z" class="cls-1" transform="translate(-188.896 -1192.651)"/>
        </g>
        <g id="그룹_177" transform="translate(.285 136.137)">
            <path id="패스_527" d="M189.6 1340.332l-1.192-5.43 13.358 3.819-.157-.839-13.386-3.839-1.2-5.426-2.137-.63 1.238 5.463-13.393-3.845.224.875 13.363 3.819 1.221 5.459z" class="cls-1" transform="translate(-53.809 -1293.41)"/>
            <path id="패스_528" d="M191.21 1349.845l-1.178-5.433 12.761 3.624-.152-.842-12.8-3.637-1.185-5.433-2.04-.587 1.225 5.446-12.793-3.647.223.865 12.76 3.637 1.231 5.453z" class="cls-1" transform="translate(-52.216 -1286.821)"/>
            <path id="패스_529" d="M192.841 1359.362l-1.2-5.443 12.188 3.449-.172-.848-12.208-3.449-1.19-5.439-1.954-.558 1.231 5.456-12.209-3.472.224.871 12.176 3.456 1.221 5.456z" class="cls-1" transform="translate(-50.64 -1280.241)"/>
            <path id="패스_530" d="M194.326 1369.188l-1.1-5.757 11.587 3.255-.157-.838-11.618-3.278-1.2-5.449-1.85-.512 1.221 5.456-11.6-3.291.213.868 11.578 3.258 1.157 5.78z" class="cls-1" transform="translate(-49.068 -1273.662)"/>
            <path id="패스_531" d="M166.551 1333.837l-1.769-5.631 13.345 3.829-.246-.872-13.393-3.842-1.781-5.624-2.127-.6 1.812 5.638-13.378-3.842.307.9 13.351 3.819 1.81 5.634z" class="cls-1" transform="translate(-70.176 -1298.163)"/>
            <path id="패스_532" d="M169.4 1343.73l-1.774-5.625 12.76 3.647-.241-.881-12.8-3.644-1.772-5.618-2.047-.6 1.81 5.644-12.792-3.644.312.9 12.765 3.624 1.816 5.644z" class="cls-1" transform="translate(-67.737 -1291.325)"/>
            <path id="패스_533" d="M172.271 1353.617l-1.774-5.608 12.161 3.436-.249-.875-12.2-3.463-1.8-5.621-1.933-.545 1.817 5.628-12.211-3.469.314.9 12.185 3.446 1.8 5.644z" class="cls-1" transform="translate(-65.298 -1284.471)"/>
            <path id="패스_534" d="M175.058 1363.728l-1.713-5.836 11.585 3.268-.246-.865-11.617-3.277-1.784-5.628-1.85-.531 1.8 5.631-11.617-3.271.323.891 11.576 3.264 1.763 5.846z" class="cls-1" transform="translate(-62.859 -1277.63)"/>
            <path id="패스_535" d="M143.836 1327.432l-2.357-5.812 13.356 3.819-.327-.9-13.4-3.829-2.371-5.812-2.127-.607 2.393 5.822-13.378-3.825.4.907 13.356 3.829 2.393 5.816z" class="cls-1" transform="translate(-86.312 -1302.859)"/>
            <path id="패스_536" d="M147.73 1337.645l-2.372-5.809 12.775 3.634-.347-.9-12.786-3.652-2.357-5.8-2.048-.588 2.4 5.825-12.8-3.647.4.914 12.775 3.647 2.378 5.8z" class="cls-1" transform="translate(-83.16 -1295.792)"/>
            <path id="패스_537" d="M151.621 1347.853l-2.363-5.806 12.18 3.456-.352-.9-12.2-3.469-2.355-5.8-1.947-.555 2.383 5.813-12.2-3.456.418.921 12.171 3.449 2.393 5.819z" class="cls-1" transform="translate(-80.01 -1288.721)"/>
            <path id="패스_538" d="M155.47 1358.188l-2.319-5.911 11.58 3.261-.352-.908-11.613-3.271-2.37-5.806-1.842-.528 2.395 5.822-11.615-3.288.4.924 11.589 3.278 2.363 5.908z" class="cls-1" transform="translate(-76.854 -1281.655)"/>
            <path id="패스_539" d="M121.271 1321.066l-2.957-6 13.363 3.832-.436-.941-13.384-3.826-2.959-5.994-2.127-.614 2.992 6.007-13.4-3.835.5.947 13.364 3.832 2.971 5.994z" class="cls-1" transform="translate(-102.363 -1307.526)"/>
            <path id="패스_540" d="M126.1 1331.567l-2.941-6 12.76 3.651-.436-.924-12.8-3.647-2.947-6-2.035-.574 2.971 6.007-12.792-3.651.5.947 12.772 3.624 2.967 6z" class="cls-1" transform="translate(-98.552 -1300.25)"/>
            <path id="패스_541" d="M130.919 1342.08l-2.944-5.991 12.168 3.459-.426-.924-12.206-3.469-2.956-5.994-1.936-.555 2.969 6-12.2-3.469.5.961 12.183 3.446 2.966 6z" class="cls-1" transform="translate(-94.76 -1292.982)"/>
            <path id="패스_542" d="M135.727 1352.6l-2.956-6 11.59 3.271-.428-.934-11.615-3.268-2.967-6.01-1.848-.515 2.99 6-11.614-3.287.5.951 11.585 3.274 2.977 6z" class="cls-1" transform="translate(-90.968 -1285.712)"/>
        </g>
    </g>
</svg>
