<svg xmlns="http://www.w3.org/2000/svg" id="그룹_368" width="215" height="220.432" viewBox="0 0 215 220.432">
    <defs>
        <style>
            .cls-1{fill:#fe573d}
        </style>
    </defs>
    <g id="그룹_236">
        <path id="패스_626" d="M987.612 1301.833c5.9 1.828 9.974-7.885 6.241-14.855-1.743-3.257-5.844-6-9.487-1.886-4.195 5.849-1.566 15.254 3.246 16.741z" class="cls-1" transform="translate(-960.326 -1189.03)"/>
        <path id="패스_627" d="M1035.957 1331.564c-.108.172-.27.385-.375.547-2.876 4.9 5.883 9.522 13.393 7.075 5.827-1.9 4.809-6.529-.109-8.982-3.885-1.95-9.738-2.126-12.909 1.36z" class="cls-1" transform="translate(-913.474 -1148.346)"/>
        <path id="패스_628" d="M1005.74 1320.785c7.691.37 10.5-9.222 4.679-16.04-2.955-3.457-9.078-6.148-13.423-1.3-4.974 7.055 1.225 16.97 8.744 17.34z" class="cls-1" transform="translate(-948.837 -1173.226)"/>
        <path id="패스_629" d="M983.321 1264.355a.883.883 0 0 0-.032.417c.4 1.05 2.885-4.218 4.078-6.745.489-1.035 1.072-2.024 1.609-3.029a2.031 2.031 0 0 0-.14.166c-3.742 4.709-5.03 7.534-5.423 8.814a63.886 63.886 0 0 0-5.508 8.451 53.325 53.325 0 0 0-4.092 8.769 1.753 1.753 0 0 0 .317-.391c.029-.043 7.862-14.056 9.191-16.452z" class="cls-1" transform="translate(-967.838 -1213.916)"/>
        <path id="패스_630" d="M984.083 1270.711c-.476-2.525-2.051-5.266-4.462-2.494-2.915 3.975-3.584 12.052-1.157 13.937 2.704 2.105 6.826-4.896 5.619-11.443z" class="cls-1" transform="translate(-965.024 -1203.206)"/>
        <path id="패스_631" d="M987.643 1251.385c-.338-.51-1-.234-1.985.8-2.213 2.4-2.4 4.088-1.575 4.235 1.542.263 4.4-3.783 3.56-5.035z" class="cls-1" transform="translate(-959.116 -1217.347)"/>
        <path id="패스_632" d="M1017.891 1334.693c-3.844-2.22-10.414-3.8-12.974-.349-2.761 5.669 9.339 12.423 15.81 10.423 4.708-1.462 3.273-6.543-2.836-10.074z" class="cls-1" transform="translate(-940.569 -1145.227)"/>
        <path id="패스_633" d="M1000.739 1342.912c.487 3.346 15.432 9.124 18.285 8.014 1.9-.737-2.445-3.688-7.685-5.967-3.839-1.679-10.113-3.718-10.6-2.047z" class="cls-1" transform="translate(-943.923 -1136.384)"/>
        <path id="패스_634" d="M996.7 1321.117c-2.819-3.2-8.283-6.9-10.989-3.21-2.813 5.6 4.868 15.719 10.938 16.452 5.619.665 5.646-6.883.051-13.242z" class="cls-1" transform="translate(-957.801 -1159.406)"/>
        <path id="패스_635" d="M974.186 1313.122c-.972-2.819-2.715-7.611-3.45-8.1a.486.486 0 0 0-.087.238 24.175 24.175 0 0 0 .993 4.883c.531 1.933 1.46 5.036 2.91 8.918.685 1.813 1.932 4.864 2.468 4.975.491-.614-1.42-6.862-2.834-10.914z" class="cls-1" transform="translate(-970.649 -1169.489)"/>
        <path id="패스_636" d="M981.306 1326.9c.3 3.639 11.979 15.625 14.143 15.47 1.429-.1-1.413-4.588-6.09-9.605-2.917-3.125-7.677-7.486-8.053-5.865z" class="cls-1" transform="translate(-961.183 -1150.364)"/>
        <path id="패스_637" d="M971.641 1293.719c1.233 1.437 3-3.85 3.193-11.442a26.184 26.184 0 0 0-.264-5.178c-.357-1.758-.857-1.012-1.142-.614-2.228 4.079-3.395 15.354-1.787 17.234z" class="cls-1" transform="translate(-970.431 -1195.278)"/>
        <path id="패스_638" d="M1012.557 1255.337c-3.937 5.5 1.624 11.841 9.309 10.6 7.712-1.233 10.967-8.735 5.527-12.732a11.567 11.567 0 0 0-13.765.925 14.385 14.385 0 0 0-1.071 1.207z" class="cls-1" transform="translate(-934.58 -1217.141)"/>
        <path id="패스_639" d="M1062.588 1287.388c-2.337-3.781-8.013-7.141-13.323-2.734-5.955 6.2-1.858 15.755 5.3 17.3 7.7 1.673 12.579-7.177 8.023-14.566z" class="cls-1" transform="translate(-903.365 -1189.432)"/>
        <path id="패스_640" d="M1023.025 1239.82c1.509-1.482-.183-2.611-3.839-2.568-3.567.042-9.12 1.263-11.85 3.174-.346.285-.659.559-.7.917-.252 2.27 12.853 1.962 16.389-1.523z" class="cls-1" transform="translate(-938.69 -1229.68)"/>
        <path id="패스_641" d="M1027.755 1235.83c6.073-.621 9.392-1.409 8.68-2.041-1.775-1.557-19.433.525-19.69 2.325.63.73 8.582-.03 11.01-.284z" class="cls-1" transform="translate(-929.706 -1233.241)"/>
        <path id="패스_642" d="M1026.9 1241.9a4.4 4.4 0 0 0-1.088 1.239c-2.3 4.543 8.657 9.267 15.621 6.745 4.813-1.741 4.533-5.789-.552-8.178-3.361-1.573-9.917-2.557-13.981.194z" class="cls-1" transform="translate(-921.928 -1227.088)"/>
        <path id="패스_643" d="M1007.9 1252.692c4.1-2.377 4.587-6.035.967-7.132a12.213 12.213 0 0 0-10.359 2.558 4.924 4.924 0 0 0-1.307 1.937c-1.111 3.687 5.099 5.883 10.699 2.637z" class="cls-1" transform="translate(-947.178 -1222.564)"/>
        <path id="패스_644" d="M1013.309 1285.507a10.527 10.527 0 0 0 6.775 17.669c9.137.723 14.583-10.372 8.572-17.452-2.928-3.442-9.627-5.794-15.347-.217z" class="cls-1" transform="translate(-935.306 -1189.785)"/>
        <path id="패스_645" d="M1001.416 1243.866a.337.337 0 0 0-.009-.1 1.664 1.664 0 0 0-.279.066c.536-.366 1.067-.714 1.622-1.059 2.143-1.337 4.39-2.475 6.5-3.848a74.459 74.459 0 0 0-10.491 6.075c-.518.3-1.1.644-1.7 1.025l.721-.361c-2.532 1.726-4.435 3.178-4.547 3.527 2.47-1.39 4.7-3.123 7.011-4.745z" class="cls-1" transform="translate(-950.587 -1228.193)"/>
        <path id="패스_646" d="M998.226 1269.912c-5.455 6.393-2.137 14.662 4.06 15.03 7.489.442 13.059-9.868 8.37-15.528-2.215-2.691-7.549-4.32-12.43.498z" class="cls-1" transform="translate(-948.604 -1203.407)"/>
        <path id="패스_647" d="M1031.555 1302.783c-5.933 7.092-.7 15.795 7.2 16.116a9.5 9.5 0 0 0 7.666-15.84c-2.847-3.341-9.341-5.635-14.866-.276z" class="cls-1" transform="translate(-918.82 -1174.31)"/>
        <path id="패스_648" d="M988.5 1258.259c-3.843 4.447-2.438 10.211 1.358 10.47 5.045.336 9.573-7.419 6.528-11.216-1.315-1.648-4.639-2.513-7.886.746z" class="cls-1" transform="translate(-956.82 -1212.986)"/>
        <path id="패스_649" d="M981.125 1302.191c-1.35-3.459-4.3-7.793-6.488-4.745-2.653 5.094.672 16.312 4.43 17.987 3.684 1.654 4.874-6.027 2.058-13.242z" class="cls-1" transform="translate(-967.955 -1177.132)"/>
        <path id="패스_650" d="M1083.611 1286.117c-3.384 2.179-1.4 17.928.553 19.528 1.535 1.258 2.834-4.288 2.776-9.543-.06-5.187-1.41-10.452-3.329-9.985z" class="cls-1" transform="translate(-871.942 -1186.303)"/>
        <path id="패스_651" d="M1075.43 1276.526c-1.941-4.062-6.647-8.5-11-5.67-5.168 4.6-.485 15.785 5.9 17.832 5.662 1.812 8.521-5.01 5.1-12.162z" class="cls-1" transform="translate(-889.319 -1200.626)"/>
        <path id="패스_652" d="M1047.035 1252.575c-.153.139-.376.321-.531.472-4.484 4.626 3.159 14.388 11.527 14.706 6.833.268 8.563-6.284 3.134-11.881-3.09-3.195-9.517-6.328-14.13-3.297z" class="cls-1" transform="translate(-904.453 -1217.162)"/>
        <path id="패스_653" d="M1074.937 1292.094c-4.334 3.9-2.236 14.838 1.372 17.672 3.382 2.634 5.861-4.071 5-10.606-.673-5.042-3.241-9.06-6.372-7.066z" class="cls-1" transform="translate(-880.177 -1181.431)"/>
        <path id="패스_654" d="M1031.451 1266.876c-6.547 6.8-.563 16.339 8.044 16.7 8.8.351 13.1-8.844 7.22-15.385-3.006-3.335-9.72-5.945-15.264-1.315z" class="cls-1" transform="translate(-919.111 -1205.587)"/>
        <path id="패스_655" d="M1078.126 1328.158a.728.728 0 0 1 .113.1c.75-.568 2.955-4.8 4.431-8.552 2.23-5.606 2.936-9.985 2.041-9.873-1.844 1.297-6.559 17.406-6.585 18.325z" class="cls-1" transform="translate(-875.188 -1165.212)"/>
        <path id="패스_656" d="M1058.236 1244.55a2.867 2.867 0 0 0-.327.2c-3.021 2.489 9.547 13.993 15.1 13.823 3-.087 1.749-3.827-2.655-8.013-3.228-3.053-9.112-6.937-12.118-6.01z" class="cls-1" transform="translate(-893.554 -1223.321)"/>
        <path id="패스_657" d="M1075.223 1263.214c-3.727 2.315 2.553 15.9 7.173 18.1 3.04 1.446 3.561-3.263 1.023-9.326-1.997-4.762-5.702-9.477-8.196-8.774z" class="cls-1" transform="translate(-878.772 -1206.681)"/>
        <path id="패스_658" d="M1054.813 1240.594c1.686-.77-.6-2.585-5.23-4.141-4.46-1.49-10.565-2.519-13.074-1.66a1.312 1.312 0 0 0-.427.319c-1.382 2.195 15.24 7.052 18.731 5.482z" class="cls-1" transform="translate(-912.603 -1232.14)"/>
        <path id="패스_659" d="M1072.075 1306.756c-1.626-4.318-5.58-6.9-9.4-3.761-4.449 4.66-2.309 12.547 2.543 15.021 5.797 2.959 9.345-4.645 6.857-11.26z" class="cls-1" transform="translate(-891.068 -1172.521)"/>
        <path id="패스_660" d="M1054.74 1336.2a1.761 1.761 0 0 0-.353.878c.006 3.266 11.225 1.312 13.74-1 1.6-1.475-3.236-2.009-3.789-2.058-3.193-.332-7.615.047-9.598 2.18z" class="cls-1" transform="translate(-896.273 -1143.825)"/>
        <path id="패스_661" d="M1060.621 1340c-6.086 1.528-9.687 2.963-10.695 4.26a.591.591 0 0 0-.083.393c.27.9 3.793.4 6.9-.612 5.98-1.941 9.934-4.448 10.225-4.966.126-.233.424-.781-6.347.925z" class="cls-1" transform="translate(-900.318 -1139.482)"/>
        <path id="패스_662" d="M1048.073 1349.782a.221.221 0 0 0 .045.1c1.271 1.116 18.195-6.656 18.289-8.412-.355.015-.355.015-7.891 3.238-6.729 2.865-10.099 4.313-10.443 5.074z" class="cls-1" transform="translate(-901.881 -1137.114)"/>
        <path id="패스_663" d="M1027.443 1342.952a2.96 2.96 0 0 0-.185.4c-1.394 4.215 12.473 6.1 18.083 2.464 3.078-1.987-.287-4.154-5.166-5.038-3.927-.705-10.561-.711-12.732 2.174z" class="cls-1" transform="translate(-920.455 -1138.073)"/>
        <path id="패스_664" d="M1078.019 1313.2c-3.03 2.815-3.7 15.245-3.021 15.986.64.729 2.815-4.381 3.8-8.4 1.202-4.935.835-8.549-.779-7.586z" class="cls-1" transform="translate(-878.179 -1162.359)"/>
        <path id="패스_665" d="M1030.084 1320.105c-3.406-2.759-10.111-4.517-14.364.2-4.528 6.479 3.116 14.2 10.957 13.535 7.748-.659 9.723-8.612 3.407-13.735z" class="cls-1" transform="translate(-931.818 -1158.515)"/>
        <path id="패스_666" d="M1070.209 1319.4c-2.977 3.183-1.165 9.413.871 11.32 2.373 2.205 3.384-3.7 3.195-6.894-.214-3.526-1.828-6.219-4.066-4.426z" class="cls-1" transform="translate(-883.613 -1157.223)"/>
        <path id="패스_667" d="M1024.149 1349.845c.636 2.749 17.4 1.9 19.688-.057 1.7-1.461-7.349-1.6-8.389-1.618-1.101-.017-10.703-.075-11.299 1.675z" class="cls-1" transform="translate(-923.13 -1131.165)"/>
        <path id="패스_668" d="M995.51 1246.439c.215-.536-.406-.695-1.969.076a24.3 24.3 0 0 0-5.31 3.846 1.641 1.641 0 0 0-.313.342c.523.238 6.897-2.503 7.592-4.264z" class="cls-1" transform="translate(-955.311 -1221.921)"/>
        <path id="패스_669" d="M1060.48 1317.9a8.091 8.091 0 0 0-12.015-.448c-4.365 5.257-.217 11.5 5.972 12.151 7.663.797 10.386-6.673 6.043-11.703z" class="cls-1" transform="translate(-903.138 -1160.626)"/>
        <path id="패스_670" d="M1061.907 1327.724c-2.443 2.995.738 6.192 4.991 6.48 5.257.364 4.349-3.546 2.385-5.731-1.819-2.025-5.02-2.981-7.376-.749z" class="cls-1" transform="translate(-890.348 -1150.462)"/>
    </g>
</svg>
