<svg xmlns="http://www.w3.org/2000/svg" width="80.055" height="57.717" viewBox="0 0 80.055 57.717">
    <path fill="#fe573d" stroke="rgba(0,0,0,0)" stroke-miterlimit="10" d="M99.528 140.717c-10.053 0-20.229-.43-30.245-1.278a10.1 10.1 0 0 1-6.565-3.382A10.3 10.3 0 0 1 60 129.183v-33.65a10.3 10.3 0 0 1 2.716-6.873 10.1 10.1 0 0 1 6.565-3.382C79.3 84.43 89.475 84 99.528 84s20.229.43 30.246 1.278a10.1 10.1 0 0 1 6.565 3.382 10.3 10.3 0 0 1 2.717 6.873v33.65a10.3 10.3 0 0 1-2.717 6.873 10.1 10.1 0 0 1-6.565 3.382c-10.017.849-20.194 1.279-30.246 1.279zm-9.785-42.705v28.023l25.1-14.011z" transform="translate(-59.5 -83.5)"/>
</svg>
